{"glyphs":{"0":{"ha":1075,"x_min":0,"x_max":0,"o":"m 538 -24 b 60 539 242 -24 60 239 b 538 1100 60 840 242 1100 b 1015 539 835 1100 1015 840 b 538 -24 1015 238 833 -24 m 275 539 b 538 8 275 219 381 8 b 800 540 694 8 800 218 b 538 1069 800 861 694 1069 b 275 539 381 1069 275 860 "},"1":{"ha":554,"x_min":0,"x_max":0,"o":"m 219 0 b 231 183 228 58 231 108 l 231 947 b 32 789 190 876 104 817 l 28 849 b 268 1083 121 861 238 947 l 435 1083 l 435 183 b 446 0 435 108 438 57 l 219 0 "},"2":{"ha":890,"x_min":0,"x_max":0,"o":"m 67 33 b 601 807 67 379 601 429 b 365 1063 601 988 481 1063 b 150 879 254 1063 150 996 b 244 725 150 811 194 763 b 294 640 281 696 294 668 b 213 557 294 599 261 563 b 58 806 107 622 58 715 b 424 1101 58 957 196 1101 b 813 786 615 1101 813 997 b 110 106 813 418 164 356 l 367 106 b 836 164 564 106 728 126 l 813 0 l 67 0 l 67 33 "},"3":{"ha":915,"x_min":0,"x_max":0,"o":"m 458 -24 b 40 367 253 -24 56 85 l 65 367 b 376 69 85 165 224 69 b 656 328 560 69 656 199 b 383 575 656 453 567 574 b 301 569 353 575 325 574 l 297 593 b 631 903 546 639 631 785 b 479 1072 631 994 575 1072 b 265 892 367 1072 313 992 b 174 814 246 844 219 814 b 81 892 126 814 97 847 b 476 1100 176 1028 304 1100 b 797 863 651 1100 797 1006 b 511 610 797 751 710 657 b 867 318 694 608 867 511 b 458 -24 867 140 715 -24 "},"4":{"ha":989,"x_min":0,"x_max":0,"o":"m 549 0 b 557 219 556 96 557 146 l 557 288 l 25 288 l 25 314 b 571 1086 331 619 499 906 l 750 1086 b 735 797 735 944 735 892 l 735 404 b 958 453 813 413 885 429 l 919 288 l 735 288 l 735 219 b 740 0 735 146 733 96 l 549 0 m 156 408 b 550 394 264 396 439 394 l 557 394 l 557 988 b 156 408 506 878 378 642 "},"5":{"ha":931,"x_min":0,"x_max":0,"o":"m 463 -24 b 42 396 253 -24 58 97 l 67 396 b 381 69 89 169 226 69 b 667 361 567 69 667 210 b 389 642 667 513 563 642 b 131 536 303 642 211 608 l 103 550 l 197 1083 l 843 1083 l 772 935 b 403 990 663 969 540 990 l 214 990 l 138 575 b 486 726 229 675 354 726 b 878 361 746 726 878 544 b 463 -24 878 167 732 -24 "},"6":{"ha":993,"x_min":0,"x_max":0,"o":"m 535 -24 b 60 536 235 -24 60 219 b 546 1100 60 879 272 1100 b 903 990 686 1100 826 1053 b 819 882 907 932 879 882 b 708 957 765 882 735 917 b 536 1072 669 1008 631 1072 b 271 533 349 1072 271 792 l 271 494 b 597 706 340 636 469 706 b 936 351 800 706 936 547 b 535 -24 936 154 799 -24 m 274 435 b 521 4 290 178 375 4 b 728 318 654 4 728 142 b 514 635 728 517 647 635 b 274 435 415 635 315 567 "},"7":{"ha":804,"x_min":0,"x_max":0,"o":"m 200 0 b 638 840 235 101 336 303 l 715 975 l 433 975 b 69 926 306 975 189 963 l 29 1083 l 776 1083 l 776 1046 l 678 835 b 432 0 499 411 432 164 l 200 0 "},"8":{"ha":950,"x_min":0,"x_max":0,"o":"m 475 -24 b 43 297 222 -24 43 118 b 285 582 43 422 139 522 b 125 821 193 635 125 704 b 469 1100 125 1006 294 1100 b 826 842 656 1100 826 993 b 624 611 826 738 746 654 b 904 301 768 551 904 476 b 475 -24 904 81 688 -24 m 204 281 b 472 4 204 114 321 4 b 718 228 614 4 718 99 b 343 550 718 415 513 468 b 204 281 267 486 204 393 m 281 894 b 564 636 281 751 418 694 b 682 854 628 683 682 760 b 474 1072 682 976 603 1072 b 281 894 367 1072 281 1004 "},"9":{"ha":993,"x_min":0,"x_max":0,"o":"m 458 1101 b 933 542 758 1101 933 858 b 447 -22 933 199 721 -22 b 90 88 307 -22 167 25 b 174 196 86 146 114 196 b 285 121 228 196 258 161 b 457 6 324 69 363 6 b 722 544 644 6 722 286 l 722 583 b 396 372 653 442 524 372 b 57 726 193 372 57 531 b 458 1101 57 924 194 1101 m 265 760 b 479 443 265 561 346 443 b 719 643 578 443 678 511 b 472 1074 703 900 618 1074 b 265 760 339 1074 265 936 "}," ":{"ha":278,"x_min":0,"x_max":0,"o":""}," ":{"ha":278,"x_min":0,"x_max":0,"o":""},"A":{"ha":936,"x_min":0,"x_max":0,"o":"m 29 0 b 140 293 50 39 94 147 l 349 960 b 358 1083 360 996 365 1049 l 565 1083 l 814 254 b 906 0 846 142 882 57 l 646 0 b 604 240 643 58 628 161 l 563 382 l 201 382 l 192 350 b 125 0 144 201 125 57 l 29 0 m 551 417 l 386 975 l 213 417 "},"Á":{"ha":936,"x_min":0,"x_max":0,"o":"m 29 0 b 140 293 50 39 94 147 l 349 960 b 358 1083 360 996 365 1049 l 565 1083 l 814 254 b 906 0 846 142 882 57 l 646 0 b 604 240 643 58 628 161 l 563 382 l 201 382 l 192 350 b 125 0 144 201 125 57 l 29 0 m 551 417 l 386 975 l 213 417 m 522 1408 l 683 1408 l 382 1154 l 350 1154 "},"Ă":{"ha":936,"x_min":0,"x_max":0,"o":"m 29 0 b 140 293 50 39 94 147 l 349 960 b 358 1083 360 996 365 1049 l 565 1083 l 814 254 b 906 0 846 142 882 57 l 646 0 b 604 240 643 58 628 161 l 563 382 l 201 382 l 192 350 b 125 0 144 201 125 57 l 29 0 m 551 417 l 386 975 l 213 417 m 339 1388 b 472 1251 343 1299 399 1251 b 607 1388 547 1251 603 1299 l 635 1388 b 472 1160 635 1250 588 1160 b 311 1388 357 1160 310 1250 "},"Â":{"ha":936,"x_min":0,"x_max":0,"o":"m 29 0 b 140 293 50 39 94 147 l 349 960 b 358 1083 360 996 365 1049 l 565 1083 l 814 254 b 906 0 846 142 882 57 l 646 0 b 604 240 643 58 628 161 l 563 382 l 201 382 l 192 350 b 125 0 144 201 125 57 l 29 0 m 551 417 l 386 975 l 213 417 m 443 1401 l 501 1401 l 694 1161 l 665 1161 l 472 1299 l 279 1161 l 249 1161 "},"Ä":{"ha":936,"x_min":0,"x_max":0,"o":"m 29 0 b 140 293 50 39 94 147 l 349 960 b 358 1083 360 996 365 1049 l 565 1083 l 814 254 b 906 0 846 142 882 57 l 646 0 b 604 240 643 58 628 161 l 563 382 l 201 382 l 192 350 b 125 0 144 201 125 57 l 29 0 m 551 417 l 386 975 l 213 417 m 332 1379 l 431 1281 l 332 1183 l 233 1281 m 615 1379 l 714 1281 l 615 1183 l 515 1281 "},"À":{"ha":936,"x_min":0,"x_max":0,"o":"m 29 0 b 140 293 50 39 94 147 l 349 960 b 358 1083 360 996 365 1049 l 565 1083 l 814 254 b 906 0 846 142 882 57 l 646 0 b 604 240 643 58 628 161 l 563 382 l 201 382 l 192 350 b 125 0 144 201 125 57 l 29 0 m 551 417 l 386 975 l 213 417 m 425 1408 l 596 1154 l 564 1154 l 263 1408 "},"Ā":{"ha":936,"x_min":0,"x_max":0,"o":"m 29 0 b 140 293 50 39 94 147 l 349 960 b 358 1083 360 996 365 1049 l 565 1083 l 814 254 b 906 0 846 142 882 57 l 646 0 b 604 240 643 58 628 161 l 563 382 l 201 382 l 192 350 b 125 0 144 201 125 57 l 29 0 m 551 417 l 386 975 l 213 417 m 238 1288 b 708 1288 422 1261 524 1261 l 708 1201 b 238 1201 524 1231 422 1231 "},"Ą":{"ha":936,"x_min":0,"x_max":0,"o":"m 29 0 b 140 293 50 39 94 147 l 349 960 b 358 1083 360 996 365 1049 l 565 1083 l 814 254 b 906 0 846 142 882 57 l 822 0 b 663 -197 710 -42 663 -129 b 742 -290 663 -253 697 -290 b 808 -268 764 -290 786 -283 l 819 -283 b 696 -337 781 -321 738 -337 b 560 -218 608 -337 560 -283 b 767 0 560 -142 625 -47 l 646 0 b 604 240 643 58 628 161 l 563 382 l 201 382 l 192 350 b 125 0 144 201 125 57 l 29 0 m 551 417 l 386 975 l 213 417 "},"Å":{"ha":936,"x_min":0,"x_max":0,"o":"m 29 0 b 140 293 50 39 94 147 l 349 960 b 358 1083 360 996 365 1049 l 565 1083 l 814 254 b 906 0 846 142 882 57 l 646 0 b 604 240 643 58 628 161 l 563 382 l 201 382 l 192 350 b 125 0 144 201 125 57 l 29 0 m 551 417 l 386 975 l 213 417 m 336 1257 b 474 1393 336 1332 397 1393 b 610 1257 549 1393 610 1332 b 474 1121 610 1182 549 1121 b 336 1257 397 1121 336 1182 m 371 1257 b 474 1153 371 1201 417 1153 b 575 1257 529 1153 575 1201 b 474 1361 575 1313 529 1361 b 371 1257 417 1361 371 1313 "},"Ã":{"ha":936,"x_min":0,"x_max":0,"o":"m 29 0 b 140 293 50 39 94 147 l 349 960 b 358 1083 360 996 365 1049 l 565 1083 l 814 254 b 906 0 846 142 882 57 l 646 0 b 604 240 643 58 628 161 l 563 382 l 201 382 l 192 350 b 125 0 144 201 125 57 l 29 0 m 551 417 l 386 975 l 213 417 m 283 1168 b 351 1404 226 1294 258 1404 b 600 1258 464 1404 510 1258 b 638 1400 656 1258 672 1324 l 663 1406 b 593 1168 719 1279 688 1168 b 344 1314 481 1168 436 1314 b 308 1172 290 1314 274 1250 l 283 1168 "},"Æ":{"ha":1321,"x_min":0,"x_max":0,"o":"m 28 0 b 213 319 71 65 143 183 l 549 979 b 576 1083 569 1022 579 1056 l 1250 1083 l 1214 994 b 868 1057 1078 1043 968 1057 l 803 1057 l 803 588 l 889 588 b 1128 601 988 588 1057 593 l 1128 543 b 889 557 1057 551 988 557 l 803 557 l 803 28 l 881 28 b 1292 100 1001 28 1153 49 l 1268 0 l 588 0 b 599 183 597 60 599 96 l 599 385 l 279 385 l 256 338 b 125 0 169 164 146 81 l 28 0 m 599 418 l 599 1013 l 296 418 "},"B":{"ha":1004,"x_min":0,"x_max":0,"o":"m 114 0 b 125 183 122 57 125 107 l 125 900 b 114 1083 125 976 122 1026 l 475 1083 b 883 836 739 1083 883 996 b 588 603 883 697 772 625 b 960 300 807 581 960 481 b 525 0 960 113 800 0 l 114 0 m 467 28 b 743 304 628 28 743 132 b 469 586 743 467 638 586 l 329 586 l 329 28 m 426 614 b 682 831 599 614 682 693 b 426 1056 682 982 589 1056 l 329 1056 l 329 614 "},"C":{"ha":1211,"x_min":0,"x_max":0,"o":"m 622 -24 b 61 538 276 -24 61 236 b 646 1100 61 842 281 1100 b 1129 899 829 1100 989 1036 b 1035 806 1122 847 1090 806 b 935 886 985 806 958 843 b 640 1072 874 981 768 1072 b 271 592 419 1072 271 860 b 717 71 271 263 472 71 b 1142 467 929 71 1101 219 l 1165 467 b 622 -24 1122 147 886 -24 "},"Ć":{"ha":1211,"x_min":0,"x_max":0,"o":"m 622 -24 b 61 538 276 -24 61 236 b 646 1100 61 842 281 1100 b 1129 899 829 1100 989 1036 b 1035 806 1122 847 1090 806 b 935 886 985 806 958 843 b 640 1072 874 981 768 1072 b 271 592 419 1072 271 860 b 717 71 271 263 472 71 b 1142 467 929 71 1101 219 l 1165 467 b 622 -24 1122 147 886 -24 m 682 1408 l 843 1408 l 542 1154 l 510 1154 "},"Č":{"ha":1211,"x_min":0,"x_max":0,"o":"m 622 -24 b 61 538 276 -24 61 236 b 646 1100 61 842 281 1100 b 1129 899 829 1100 989 1036 b 1035 806 1122 847 1090 806 b 935 886 985 806 958 843 b 640 1072 874 981 768 1072 b 271 592 419 1072 271 860 b 717 71 271 263 472 71 b 1142 467 929 71 1101 219 l 1165 467 b 622 -24 1122 147 886 -24 m 439 1401 l 632 1264 l 825 1401 l 854 1401 l 661 1161 l 603 1161 l 408 1401 "},"Ç":{"ha":1211,"x_min":0,"x_max":0,"o":"m 608 -24 l 553 -99 b 631 -81 578 -86 604 -81 b 776 -208 725 -81 776 -144 b 613 -342 776 -276 719 -342 b 446 -251 544 -342 479 -312 b 471 -231 451 -239 460 -231 b 496 -256 485 -231 490 -242 b 583 -314 514 -292 546 -314 b 671 -210 642 -314 671 -261 b 592 -115 671 -157 642 -115 b 518 -146 567 -115 540 -125 l 497 -129 l 574 -22 b 61 538 256 1 61 250 b 646 1100 61 842 281 1100 b 1129 899 829 1100 989 1036 b 1035 806 1122 847 1090 806 b 935 886 985 806 958 843 b 640 1072 874 981 768 1072 b 271 592 419 1072 271 860 b 717 71 271 263 472 71 b 1142 467 929 71 1101 219 l 1165 467 b 622 -24 1122 147 886 -24 "},"Ĉ":{"ha":1211,"x_min":0,"x_max":0,"o":"m 622 -24 b 61 538 276 -24 61 236 b 646 1100 61 842 281 1100 b 1129 899 829 1100 989 1036 b 1035 806 1122 847 1090 806 b 935 886 985 806 958 843 b 640 1072 874 981 768 1072 b 271 592 419 1072 271 860 b 717 71 271 263 472 71 b 1142 467 929 71 1101 219 l 1165 467 b 622 -24 1122 147 886 -24 m 604 1401 l 663 1401 l 856 1161 l 826 1161 l 633 1299 l 440 1161 l 410 1161 "},"Ċ":{"ha":1211,"x_min":0,"x_max":0,"o":"m 622 -24 b 61 538 276 -24 61 236 b 646 1100 61 842 281 1100 b 1129 899 829 1100 989 1036 b 1035 806 1122 847 1090 806 b 935 886 985 806 958 843 b 640 1072 874 981 768 1072 b 271 592 419 1072 271 860 b 717 71 271 263 472 71 b 1142 467 929 71 1101 219 l 1165 467 b 622 -24 1122 147 886 -24 m 633 1392 l 742 1283 l 633 1175 l 524 1283 "},"D":{"ha":1165,"x_min":0,"x_max":0,"o":"m 114 0 b 125 183 122 57 125 107 l 125 900 b 114 1083 125 976 122 1026 l 458 1083 b 1106 539 889 1083 1106 851 b 458 0 1106 242 894 0 l 114 0 m 458 28 b 888 539 735 28 888 219 b 458 1056 888 872 735 1056 l 329 1056 l 329 28 "},"Ď":{"ha":1165,"x_min":0,"x_max":0,"o":"m 114 0 b 125 183 122 57 125 107 l 125 900 b 114 1083 125 976 122 1026 l 458 1083 b 1106 539 889 1083 1106 851 b 458 0 1106 242 894 0 l 114 0 m 458 28 b 888 539 735 28 888 219 b 458 1056 888 872 735 1056 l 329 1056 l 329 28 m 372 1401 l 565 1264 l 758 1401 l 788 1401 l 594 1161 l 536 1161 l 342 1401 "},"Đ":{"ha":1203,"x_min":0,"x_max":0,"o":"m 36 597 b 161 588 75 593 117 590 l 161 900 b 150 1083 161 976 158 1026 l 494 1083 b 1142 539 925 1083 1142 851 b 494 0 1142 242 931 0 l 150 0 b 161 183 158 57 161 107 l 161 554 b 36 546 117 553 75 550 l 36 597 m 494 28 b 924 539 771 28 924 219 b 494 1056 924 872 771 1056 l 365 1056 l 365 583 b 654 597 469 583 571 588 l 654 546 b 365 558 571 554 469 558 l 365 28 "},"Ð":{"ha":1244,"x_min":0,"x_max":0,"o":"m 36 597 b 203 586 86 592 143 589 l 203 900 b 192 1083 203 976 200 1026 l 536 1083 b 1183 539 967 1083 1183 851 b 536 0 1183 242 972 0 l 192 0 b 203 183 200 57 203 107 l 203 556 b 36 546 143 554 86 550 l 36 597 m 536 28 b 965 539 813 28 965 219 b 536 1056 965 872 813 1056 l 407 1056 l 407 583 b 654 597 496 585 582 589 l 654 546 b 407 558 582 553 496 557 l 407 28 "},"E":{"ha":854,"x_min":0,"x_max":0,"o":"m 114 0 b 125 183 122 57 125 107 l 125 900 b 114 1083 125 976 122 1026 l 782 1083 l 746 994 b 374 1057 608 1046 504 1057 l 329 1057 l 329 588 l 422 588 b 660 601 521 588 590 593 l 660 543 b 422 557 590 551 521 557 l 329 557 l 329 28 l 410 28 b 824 100 538 28 688 49 l 800 0 l 114 0 "},"É":{"ha":854,"x_min":0,"x_max":0,"o":"m 114 0 b 125 183 122 57 125 107 l 125 900 b 114 1083 125 976 122 1026 l 782 1083 l 746 994 b 374 1057 608 1046 504 1057 l 329 1057 l 329 588 l 422 588 b 660 601 521 588 590 593 l 660 543 b 422 557 590 551 521 557 l 329 557 l 329 28 l 410 28 b 824 100 538 28 688 49 l 800 0 l 114 0 m 501 1408 l 663 1408 l 361 1154 l 329 1154 "},"Ĕ":{"ha":854,"x_min":0,"x_max":0,"o":"m 114 0 b 125 183 122 57 125 107 l 125 900 b 114 1083 125 976 122 1026 l 782 1083 l 746 994 b 374 1057 608 1046 504 1057 l 329 1057 l 329 588 l 422 588 b 660 601 521 588 590 593 l 660 543 b 422 557 590 551 521 557 l 329 557 l 329 28 l 410 28 b 824 100 538 28 688 49 l 800 0 l 114 0 m 319 1388 b 453 1251 324 1299 379 1251 b 588 1388 528 1251 583 1299 l 615 1388 b 453 1160 615 1250 568 1160 b 292 1388 338 1160 290 1250 "},"Ě":{"ha":854,"x_min":0,"x_max":0,"o":"m 114 0 b 125 183 122 57 125 107 l 125 900 b 114 1083 125 976 122 1026 l 782 1083 l 746 994 b 374 1057 608 1046 504 1057 l 329 1057 l 329 588 l 422 588 b 660 601 521 588 590 593 l 660 543 b 422 557 590 551 521 557 l 329 557 l 329 28 l 410 28 b 824 100 538 28 688 49 l 800 0 l 114 0 m 260 1401 l 453 1264 l 646 1401 l 675 1401 l 482 1161 l 424 1161 l 229 1401 "},"Ê":{"ha":854,"x_min":0,"x_max":0,"o":"m 114 0 b 125 183 122 57 125 107 l 125 900 b 114 1083 125 976 122 1026 l 782 1083 l 746 994 b 374 1057 608 1046 504 1057 l 329 1057 l 329 588 l 422 588 b 660 601 521 588 590 593 l 660 543 b 422 557 590 551 521 557 l 329 557 l 329 28 l 410 28 b 824 100 538 28 688 49 l 800 0 l 114 0 m 424 1401 l 482 1401 l 675 1161 l 646 1161 l 453 1299 l 260 1161 l 229 1161 "},"Ë":{"ha":854,"x_min":0,"x_max":0,"o":"m 114 0 b 125 183 122 57 125 107 l 125 900 b 114 1083 125 976 122 1026 l 782 1083 l 746 994 b 374 1057 608 1046 504 1057 l 329 1057 l 329 588 l 422 588 b 660 601 521 588 590 593 l 660 543 b 422 557 590 551 521 557 l 329 557 l 329 28 l 410 28 b 824 100 538 28 688 49 l 800 0 l 114 0 m 313 1379 l 411 1281 l 313 1183 l 214 1281 m 596 1379 l 694 1281 l 596 1183 l 496 1281 "},"Ė":{"ha":854,"x_min":0,"x_max":0,"o":"m 114 0 b 125 183 122 57 125 107 l 125 900 b 114 1083 125 976 122 1026 l 782 1083 l 746 994 b 374 1057 608 1046 504 1057 l 329 1057 l 329 588 l 422 588 b 660 601 521 588 590 593 l 660 543 b 422 557 590 551 521 557 l 329 557 l 329 28 l 410 28 b 824 100 538 28 688 49 l 800 0 l 114 0 m 454 1392 l 563 1283 l 454 1175 l 344 1283 "},"È":{"ha":854,"x_min":0,"x_max":0,"o":"m 114 0 b 125 183 122 57 125 107 l 125 900 b 114 1083 125 976 122 1026 l 782 1083 l 746 994 b 374 1057 608 1046 504 1057 l 329 1057 l 329 588 l 422 588 b 660 601 521 588 590 593 l 660 543 b 422 557 590 551 521 557 l 329 557 l 329 28 l 410 28 b 824 100 538 28 688 49 l 800 0 l 114 0 m 406 1408 l 576 1154 l 544 1154 l 243 1408 "},"Ē":{"ha":854,"x_min":0,"x_max":0,"o":"m 114 0 b 125 183 122 57 125 107 l 125 900 b 114 1083 125 976 122 1026 l 782 1083 l 746 994 b 374 1057 608 1046 504 1057 l 329 1057 l 329 588 l 422 588 b 660 601 521 588 590 593 l 660 543 b 422 557 590 551 521 557 l 329 557 l 329 28 l 410 28 b 824 100 538 28 688 49 l 800 0 l 114 0 m 218 1288 b 689 1288 403 1261 504 1261 l 689 1201 b 218 1201 504 1231 403 1231 "},"Ę":{"ha":854,"x_min":0,"x_max":0,"o":"m 114 0 b 125 183 122 57 125 107 l 125 900 b 114 1083 125 976 122 1026 l 782 1083 l 746 994 b 374 1057 608 1046 504 1057 l 329 1057 l 329 588 l 422 588 b 660 601 521 588 590 593 l 660 543 b 422 557 590 551 521 557 l 329 557 l 329 28 l 410 28 b 824 100 538 28 688 49 l 800 0 l 722 0 b 563 -197 610 -42 563 -129 b 642 -290 563 -253 597 -290 b 708 -268 664 -290 686 -283 l 719 -283 b 596 -337 681 -321 638 -337 b 460 -218 508 -337 460 -283 b 667 0 460 -142 525 -47 l 114 0 "},"Ẽ":{"ha":854,"x_min":0,"x_max":0,"o":"m 114 0 b 125 183 122 57 125 107 l 125 900 b 114 1083 125 976 122 1026 l 782 1083 l 746 994 b 374 1057 608 1046 504 1057 l 329 1057 l 329 588 l 422 588 b 660 601 521 588 590 593 l 660 543 b 422 557 590 551 521 557 l 329 557 l 329 28 l 410 28 b 824 100 538 28 688 49 l 800 0 l 114 0 m 263 1168 b 331 1404 206 1294 238 1404 b 579 1258 443 1404 489 1258 b 617 1400 635 1258 651 1324 l 642 1406 b 572 1168 699 1279 667 1168 b 324 1314 460 1168 415 1314 b 288 1172 269 1314 253 1250 l 263 1168 "},"F":{"ha":799,"x_min":0,"x_max":0,"o":"m 114 0 b 125 183 122 57 125 107 l 125 900 b 114 1083 125 976 122 1026 l 769 1083 l 733 994 b 361 1057 589 1047 482 1057 l 329 1057 l 329 560 l 410 560 b 647 574 496 560 568 564 l 647 515 b 410 529 568 525 496 529 l 329 529 l 329 183 b 340 0 329 107 332 57 l 114 0 "},"G":{"ha":1324,"x_min":0,"x_max":0,"o":"m 576 -25 b 61 526 300 -25 61 197 b 649 1100 61 838 275 1100 b 1135 899 840 1100 1000 1032 b 1042 806 1126 842 1090 806 b 940 886 1000 806 968 831 b 644 1072 867 1007 756 1072 b 275 568 419 1072 275 842 b 664 72 275 294 422 72 b 1024 494 881 72 1004 243 l 979 494 b 689 467 886 494 782 483 l 647 524 l 1288 524 l 1288 494 l 1186 494 l 1186 378 b 1219 0 1186 244 1196 104 l 989 0 b 1024 354 1011 97 1022 228 b 576 -25 958 103 786 -25 "},"Ğ":{"ha":1324,"x_min":0,"x_max":0,"o":"m 576 -25 b 61 526 300 -25 61 197 b 649 1100 61 838 275 1100 b 1135 899 840 1100 1000 1032 b 1042 806 1126 842 1090 806 b 940 886 1000 806 968 831 b 644 1072 867 1007 756 1072 b 275 568 419 1072 275 842 b 664 72 275 294 422 72 b 1024 494 881 72 1004 243 l 979 494 b 689 467 886 494 782 483 l 647 524 l 1288 524 l 1288 494 l 1186 494 l 1186 378 b 1219 0 1186 244 1196 104 l 989 0 b 1024 354 1011 97 1022 228 b 576 -25 958 103 786 -25 m 525 1388 b 658 1251 529 1299 585 1251 b 793 1388 733 1251 789 1299 l 821 1388 b 658 1160 821 1250 774 1160 b 497 1388 543 1160 496 1250 "},"Ǧ":{"ha":1324,"x_min":0,"x_max":0,"o":"m 576 -25 b 61 526 300 -25 61 197 b 649 1100 61 838 275 1100 b 1135 899 840 1100 1000 1032 b 1042 806 1126 842 1090 806 b 940 886 1000 806 968 831 b 644 1072 867 1007 756 1072 b 275 568 419 1072 275 842 b 664 72 275 294 422 72 b 1024 494 881 72 1004 243 l 979 494 b 689 467 886 494 782 483 l 647 524 l 1288 524 l 1288 494 l 1186 494 l 1186 378 b 1219 0 1186 244 1196 104 l 989 0 b 1024 354 1011 97 1022 228 b 576 -25 958 103 786 -25 m 465 1401 l 658 1264 l 851 1401 l 881 1401 l 688 1161 l 629 1161 l 435 1401 "},"Ĝ":{"ha":1324,"x_min":0,"x_max":0,"o":"m 576 -25 b 61 526 300 -25 61 197 b 649 1100 61 838 275 1100 b 1135 899 840 1100 1000 1032 b 1042 806 1126 842 1090 806 b 940 886 1000 806 968 831 b 644 1072 867 1007 756 1072 b 275 568 419 1072 275 842 b 664 72 275 294 422 72 b 1024 494 881 72 1004 243 l 979 494 b 689 467 886 494 782 483 l 647 524 l 1288 524 l 1288 494 l 1186 494 l 1186 378 b 1219 0 1186 244 1196 104 l 989 0 b 1024 354 1011 97 1022 228 b 576 -25 958 103 786 -25 m 629 1401 l 688 1401 l 881 1161 l 851 1161 l 658 1299 l 465 1161 l 435 1161 "},"Ģ":{"ha":1324,"x_min":0,"x_max":0,"o":"m 576 -25 b 61 526 300 -25 61 197 b 649 1100 61 838 275 1100 b 1135 899 840 1100 1000 1032 b 1042 806 1126 842 1090 806 b 940 886 1000 806 968 831 b 644 1072 867 1007 756 1072 b 275 568 419 1072 275 842 b 664 72 275 294 422 72 b 1024 494 881 72 1004 243 l 979 494 b 689 467 886 494 782 483 l 647 524 l 1288 524 l 1288 494 l 1186 494 l 1186 378 b 1219 0 1186 244 1196 104 l 989 0 b 1024 354 1011 97 1022 228 b 576 -25 958 103 786 -25 m 635 -54 l 760 -128 b 599 -360 735 -228 669 -312 l 579 -342 b 650 -236 615 -310 638 -275 l 561 -176 "},"Ġ":{"ha":1324,"x_min":0,"x_max":0,"o":"m 576 -25 b 61 526 300 -25 61 197 b 649 1100 61 838 275 1100 b 1135 899 840 1100 1000 1032 b 1042 806 1126 842 1090 806 b 940 886 1000 806 968 831 b 644 1072 867 1007 756 1072 b 275 568 419 1072 275 842 b 664 72 275 294 422 72 b 1024 494 881 72 1004 243 l 979 494 b 689 467 886 494 782 483 l 647 524 l 1288 524 l 1288 494 l 1186 494 l 1186 378 b 1219 0 1186 244 1196 104 l 989 0 b 1024 354 1011 97 1022 228 b 576 -25 958 103 786 -25 m 660 1392 l 768 1283 l 660 1175 l 550 1283 "},"H":{"ha":1086,"x_min":0,"x_max":0,"o":"m 744 0 b 756 183 753 57 756 107 l 756 549 l 329 549 l 329 183 b 340 0 329 107 332 57 l 114 0 b 125 183 122 57 125 107 l 125 900 b 114 1083 125 976 122 1026 l 340 1083 b 329 900 332 1026 329 976 l 329 581 l 756 581 l 756 900 b 744 1083 756 976 753 1026 l 972 1083 b 961 900 964 1026 961 976 l 961 183 b 972 0 961 107 964 57 l 744 0 "},"Ħ":{"ha":1101,"x_min":0,"x_max":0,"o":"m 61 801 b 135 796 83 800 107 797 l 135 900 b 124 1083 135 976 132 1026 l 350 1083 b 339 900 342 1026 339 976 l 339 789 b 553 788 407 788 479 788 b 765 789 625 788 697 788 l 765 900 b 754 1083 765 976 763 1026 l 982 1083 b 971 900 974 1026 971 976 l 971 796 b 1044 801 999 797 1024 800 l 1044 747 l 971 751 l 971 183 b 982 0 971 107 974 57 l 754 0 b 765 183 763 57 765 107 l 765 549 l 339 549 l 339 183 b 350 0 339 107 342 57 l 124 0 b 135 183 132 57 135 107 l 135 751 l 61 747 l 61 801 m 765 581 l 765 758 b 553 760 697 760 625 760 b 339 758 481 760 407 760 l 339 581 "},"Ĥ":{"ha":1086,"x_min":0,"x_max":0,"o":"m 744 0 b 756 183 753 57 756 107 l 756 549 l 329 549 l 329 183 b 340 0 329 107 332 57 l 114 0 b 125 183 122 57 125 107 l 125 900 b 114 1083 125 976 122 1026 l 340 1083 b 329 900 332 1026 329 976 l 329 581 l 756 581 l 756 900 b 744 1083 756 976 753 1026 l 972 1083 b 961 900 964 1026 961 976 l 961 183 b 972 0 961 107 964 57 l 744 0 m 514 1401 l 572 1401 l 765 1161 l 736 1161 l 543 1299 l 350 1161 l 319 1161 "},"I":{"ha":454,"x_min":0,"x_max":0,"o":"m 114 0 b 125 183 122 57 125 107 l 125 900 b 114 1083 125 976 122 1026 l 340 1083 b 329 900 332 1026 329 976 l 329 183 b 340 0 329 107 332 57 l 114 0 "},"Ĳ":{"ha":907,"x_min":0,"x_max":0,"o":"m 114 0 b 125 183 122 57 125 107 l 125 900 b 114 1083 125 976 122 1026 l 340 1083 b 329 900 332 1026 329 976 l 329 183 b 340 0 329 107 332 57 l 114 0 m 451 -281 b 579 25 567 -233 579 -135 l 579 900 b 568 1083 579 976 576 1026 l 794 1083 b 783 900 786 1026 783 976 l 783 25 b 457 -299 783 -217 617 -262 l 451 -281 "},"Í":{"ha":454,"x_min":0,"x_max":0,"o":"m 114 0 b 125 183 122 57 125 107 l 125 900 b 114 1083 125 976 122 1026 l 340 1083 b 329 900 332 1026 329 976 l 329 183 b 340 0 329 107 332 57 l 114 0 m 222 1408 l 379 1408 l 161 1154 l 131 1154 "},"Ĭ":{"ha":454,"x_min":0,"x_max":0,"o":"m 114 0 b 125 183 122 57 125 107 l 125 900 b 114 1083 125 976 122 1026 l 340 1083 b 329 900 332 1026 329 976 l 329 183 b 340 0 329 107 332 57 l 114 0 m 94 1388 b 228 1251 99 1299 154 1251 b 363 1388 303 1251 358 1299 l 390 1388 b 228 1160 390 1250 343 1160 b 67 1388 113 1160 65 1250 "},"Î":{"ha":454,"x_min":0,"x_max":0,"o":"m 114 0 b 125 183 122 57 125 107 l 125 900 b 114 1083 125 976 122 1026 l 340 1083 b 329 900 332 1026 329 976 l 329 183 b 340 0 329 107 332 57 l 114 0 m 197 1401 l 256 1401 l 401 1161 l 371 1161 l 226 1293 l 82 1161 l 51 1161 "},"Ï":{"ha":454,"x_min":0,"x_max":0,"o":"m 114 0 b 125 183 122 57 125 107 l 125 900 b 114 1083 125 976 122 1026 l 340 1083 b 329 900 332 1026 329 976 l 329 183 b 340 0 329 107 332 57 l 114 0 m 101 1381 l 200 1282 l 101 1185 l 3 1282 m 357 1381 l 454 1282 l 357 1185 l 257 1282 "},"İ":{"ha":454,"x_min":0,"x_max":0,"o":"m 114 0 b 125 183 122 57 125 107 l 125 900 b 114 1083 125 976 122 1026 l 340 1083 b 329 900 332 1026 329 976 l 329 183 b 340 0 329 107 332 57 l 114 0 m 228 1392 l 336 1283 l 228 1175 l 118 1283 "},"Ì":{"ha":454,"x_min":0,"x_max":0,"o":"m 114 0 b 125 183 122 57 125 107 l 125 900 b 114 1083 125 976 122 1026 l 340 1083 b 329 900 332 1026 329 976 l 329 183 b 340 0 329 107 332 57 l 114 0 m 231 1408 l 324 1154 l 293 1154 l 75 1408 "},"Ī":{"ha":454,"x_min":0,"x_max":0,"o":"m 114 0 b 125 183 122 57 125 107 l 125 900 b 114 1083 125 976 122 1026 l 340 1083 b 329 900 332 1026 329 976 l 329 183 b 340 0 329 107 332 57 l 114 0 m 50 1288 b 406 1288 204 1261 250 1261 l 406 1203 b 50 1203 250 1231 204 1231 "},"Į":{"ha":551,"x_min":0,"x_max":0,"o":"m 278 -326 b 125 -192 185 -326 125 -265 b 288 0 125 -125 174 -50 l 179 0 b 190 183 188 58 190 111 l 190 900 b 179 1083 190 976 188 1026 l 406 1083 b 394 900 397 1026 394 976 l 394 183 b 406 0 394 111 397 58 l 340 0 b 225 -167 260 -40 225 -108 b 331 -278 225 -228 263 -278 b 397 -256 353 -278 376 -271 l 408 -271 b 278 -326 376 -307 331 -326 "},"Ĩ":{"ha":453,"x_min":0,"x_max":0,"o":"m 113 0 b 124 183 121 57 124 107 l 124 900 b 113 1083 124 976 121 1026 l 339 1083 b 328 900 331 1026 328 976 l 328 183 b 339 0 328 107 331 57 l 113 0 m 60 1168 b 119 1404 4 1294 31 1404 b 314 1257 221 1404 236 1257 b 343 1400 367 1257 376 1326 l 367 1406 b 307 1168 425 1279 397 1168 b 113 1315 206 1168 192 1315 b 83 1172 60 1315 51 1247 l 60 1168 "},"J":{"ha":453,"x_min":0,"x_max":0,"o":"m -3 -281 b 125 25 113 -233 125 -135 l 125 900 b 114 1083 125 976 122 1026 l 340 1083 b 329 900 332 1026 329 976 l 329 25 b 3 -299 329 -217 163 -262 l -3 -281 "},"Ĵ":{"ha":453,"x_min":0,"x_max":0,"o":"m -3 -281 b 125 25 113 -233 125 -135 l 125 900 b 114 1083 125 976 122 1026 l 340 1083 b 329 900 332 1026 329 976 l 329 25 b 3 -299 329 -217 163 -262 l -3 -281 m 197 1401 l 256 1401 l 449 1161 l 419 1161 l 226 1299 l 33 1161 l 3 1161 "},"K":{"ha":1035,"x_min":0,"x_max":0,"o":"m 936 -4 b 588 268 733 -3 653 93 b 421 586 526 433 501 546 l 329 483 l 329 183 b 340 0 329 107 332 57 l 114 0 b 125 183 122 57 125 107 l 125 900 b 114 1083 125 978 122 1026 l 340 1083 b 329 900 332 1026 329 978 l 329 526 l 569 799 b 783 1083 671 914 760 1038 l 893 1083 b 621 811 794 992 689 888 l 485 658 b 800 336 660 618 729 510 b 1025 25 878 149 913 33 l 1025 0 b 936 -4 982 -3 958 -4 "},"Ķ":{"ha":1035,"x_min":0,"x_max":0,"o":"m 936 -4 b 588 268 733 -3 653 93 b 421 586 526 433 501 546 l 329 483 l 329 183 b 340 0 329 107 332 57 l 114 0 b 125 183 122 57 125 107 l 125 900 b 114 1083 125 978 122 1026 l 340 1083 b 329 900 332 1026 329 978 l 329 526 l 569 799 b 783 1083 671 914 760 1038 l 893 1083 b 621 811 794 992 689 888 l 485 658 b 800 336 660 618 729 510 b 1025 25 878 149 913 33 l 1025 0 b 936 -4 982 -3 958 -4 m 521 -54 l 646 -128 b 485 -360 621 -228 556 -312 l 465 -342 b 536 -236 501 -310 524 -275 l 447 -176 "},"L":{"ha":828,"x_min":0,"x_max":0,"o":"m 114 0 b 125 183 122 57 125 107 l 125 900 b 114 1083 125 976 122 1026 l 340 1083 b 329 900 332 1026 329 976 l 329 28 l 382 28 b 796 100 510 28 660 49 l 771 0 l 114 0 "},"Ĺ":{"ha":828,"x_min":0,"x_max":0,"o":"m 114 0 b 125 183 122 57 125 107 l 125 900 b 114 1083 125 976 122 1026 l 340 1083 b 329 900 332 1026 329 976 l 329 28 l 382 28 b 796 100 510 28 660 49 l 771 0 l 114 0 m 276 1408 l 438 1408 l 136 1154 l 104 1154 "},"Ľ":{"ha":828,"x_min":0,"x_max":0,"o":"m 114 0 b 125 183 122 57 125 107 l 125 900 b 114 1083 125 976 122 1026 l 340 1083 b 329 900 332 1026 329 976 l 329 28 l 382 28 b 796 100 510 28 660 49 l 771 0 l 114 0 m 536 1083 l 681 1083 l 518 821 l 483 821 "},"Ļ":{"ha":828,"x_min":0,"x_max":0,"o":"m 114 0 b 125 183 122 57 125 107 l 125 900 b 114 1083 125 976 122 1026 l 340 1083 b 329 900 332 1026 329 976 l 329 28 l 382 28 b 796 100 510 28 660 49 l 771 0 l 114 0 m 415 -54 l 540 -128 b 379 -360 515 -228 450 -312 l 360 -342 b 431 -236 396 -310 418 -275 l 342 -176 "},"Ŀ":{"ha":828,"x_min":0,"x_max":0,"o":"m 114 0 b 125 183 122 57 125 107 l 125 900 b 114 1083 125 976 122 1026 l 340 1083 b 329 900 332 1026 329 976 l 329 28 l 382 28 b 796 100 510 28 660 49 l 771 0 l 114 0 m 606 679 l 722 564 l 606 449 l 489 564 "},"Ł":{"ha":881,"x_min":0,"x_max":0,"o":"m 28 360 b 179 475 71 390 124 431 l 179 900 b 168 1083 179 976 176 1026 l 394 1083 b 383 900 386 1026 383 976 l 383 649 b 504 765 431 690 472 732 l 538 729 b 383 610 494 699 440 657 l 383 28 l 436 28 b 850 100 564 28 714 49 l 825 0 l 168 0 b 179 183 176 57 179 107 l 179 435 b 61 324 135 394 93 357 l 28 360 "},"M":{"ha":1378,"x_min":0,"x_max":0,"o":"m 160 972 l 160 390 b 190 0 160 256 172 90 l 97 0 b 128 392 117 90 128 256 l 128 900 b 117 1083 128 978 125 1026 l 335 1083 l 694 250 l 1053 1083 l 1264 1083 b 1253 900 1256 1026 1253 976 l 1253 183 b 1264 0 1253 107 1256 57 l 1038 0 b 1049 183 1046 57 1049 107 l 1049 996 l 614 -18 l 582 -18 "},"N":{"ha":989,"x_min":0,"x_max":0,"o":"m 97 0 b 128 392 117 90 128 256 l 128 900 b 117 1083 128 979 125 1028 l 340 1083 l 829 81 l 829 693 b 799 1083 829 828 818 993 l 893 1083 b 861 693 872 993 861 828 l 861 183 b 872 0 861 106 864 56 l 647 0 l 160 994 l 160 390 b 190 0 160 256 171 90 l 97 0 "},"Ń":{"ha":989,"x_min":0,"x_max":0,"o":"m 97 0 b 128 392 117 90 128 256 l 128 900 b 117 1083 128 979 125 1028 l 340 1083 l 829 81 l 829 693 b 799 1083 829 828 818 993 l 893 1083 b 861 693 872 993 861 828 l 861 183 b 872 0 861 106 864 56 l 647 0 l 160 994 l 160 390 b 190 0 160 256 171 90 l 97 0 m 565 1408 l 726 1408 l 425 1154 l 393 1154 "},"Ň":{"ha":989,"x_min":0,"x_max":0,"o":"m 97 0 b 128 392 117 90 128 256 l 128 900 b 117 1083 128 979 125 1028 l 340 1083 l 829 81 l 829 693 b 799 1083 829 828 818 993 l 893 1083 b 861 693 872 993 861 828 l 861 183 b 872 0 861 106 864 56 l 647 0 l 160 994 l 160 390 b 190 0 160 256 171 90 l 97 0 m 322 1401 l 515 1264 l 708 1401 l 738 1401 l 544 1161 l 486 1161 l 292 1401 "},"Ņ":{"ha":989,"x_min":0,"x_max":0,"o":"m 97 0 b 128 392 117 90 128 256 l 128 900 b 117 1083 128 979 125 1028 l 340 1083 l 829 81 l 829 693 b 799 1083 829 828 818 993 l 893 1083 b 861 693 872 993 861 828 l 861 183 b 872 0 861 106 864 56 l 647 0 l 160 994 l 160 390 b 190 0 160 256 171 90 l 97 0 m 468 -54 l 593 -128 b 432 -360 568 -228 503 -312 l 413 -342 b 483 -236 449 -310 471 -275 l 394 -176 "},"Ñ":{"ha":989,"x_min":0,"x_max":0,"o":"m 97 0 b 128 392 117 90 128 256 l 128 900 b 117 1083 128 979 125 1028 l 340 1083 l 829 81 l 829 693 b 799 1083 829 828 818 993 l 893 1083 b 861 693 872 993 861 828 l 861 183 b 872 0 861 106 864 56 l 647 0 l 160 994 l 160 390 b 190 0 160 256 171 90 l 97 0 m 326 1168 b 394 1404 269 1294 301 1404 b 643 1258 507 1404 553 1258 b 681 1400 699 1258 715 1324 l 706 1406 b 636 1168 763 1279 731 1168 b 388 1314 524 1168 479 1314 b 351 1172 333 1314 317 1250 l 326 1168 "},"Ŋ":{"ha":989,"x_min":0,"x_max":0,"o":"m 521 -318 b 590 147 657 -232 683 -43 l 160 994 l 160 390 b 190 0 160 256 171 90 l 97 0 b 128 392 115 86 128 249 l 128 900 b 117 1083 128 979 125 1028 l 340 1083 l 829 83 l 829 693 b 799 1083 829 829 818 994 l 893 1083 b 861 693 872 992 861 826 l 861 57 b 529 -337 861 -178 775 -304 l 521 -318 "},"O":{"ha":1313,"x_min":0,"x_max":0,"o":"m 656 -24 b 61 539 288 -24 61 236 b 656 1100 61 843 286 1100 b 1251 539 1026 1100 1251 843 b 656 -24 1251 236 1025 -24 m 286 539 b 656 7 286 208 436 7 b 1026 539 876 7 1026 208 b 656 1071 1026 871 878 1071 b 286 539 435 1071 286 871 "},"Ó":{"ha":1313,"x_min":0,"x_max":0,"o":"m 656 -24 b 61 539 288 -24 61 236 b 656 1100 61 843 286 1100 b 1251 539 1026 1100 1251 843 b 656 -24 1251 236 1025 -24 m 286 539 b 656 7 286 208 436 7 b 1026 539 876 7 1026 208 b 656 1071 1026 871 878 1071 b 286 539 435 1071 286 871 m 706 1408 l 867 1408 l 565 1154 l 533 1154 "},"Ŏ":{"ha":1313,"x_min":0,"x_max":0,"o":"m 656 -24 b 61 539 288 -24 61 236 b 656 1100 61 843 286 1100 b 1251 539 1026 1100 1251 843 b 656 -24 1251 236 1025 -24 m 286 539 b 656 7 286 208 436 7 b 1026 539 876 7 1026 208 b 656 1071 1026 871 878 1071 b 286 539 435 1071 286 871 m 524 1388 b 657 1251 528 1299 583 1251 b 792 1388 732 1251 788 1299 l 819 1388 b 657 1160 819 1250 772 1160 b 496 1388 542 1160 494 1250 "},"Ô":{"ha":1313,"x_min":0,"x_max":0,"o":"m 656 -24 b 61 539 288 -24 61 236 b 656 1100 61 843 286 1100 b 1251 539 1026 1100 1251 843 b 656 -24 1251 236 1025 -24 m 286 539 b 656 7 286 208 436 7 b 1026 539 876 7 1026 208 b 656 1071 1026 871 878 1071 b 286 539 435 1071 286 871 m 628 1401 l 686 1401 l 879 1161 l 850 1161 l 657 1299 l 464 1161 l 433 1161 "},"Ö":{"ha":1313,"x_min":0,"x_max":0,"o":"m 656 -24 b 61 539 288 -24 61 236 b 656 1100 61 843 286 1100 b 1251 539 1026 1100 1251 843 b 656 -24 1251 236 1025 -24 m 286 539 b 656 7 286 208 436 7 b 1026 539 876 7 1026 208 b 656 1071 1026 871 878 1071 b 286 539 435 1071 286 871 m 517 1379 l 615 1281 l 517 1183 l 418 1281 m 800 1379 l 899 1281 l 800 1183 l 700 1281 "},"Ò":{"ha":1313,"x_min":0,"x_max":0,"o":"m 656 -24 b 61 539 288 -24 61 236 b 656 1100 61 843 286 1100 b 1251 539 1026 1100 1251 843 b 656 -24 1251 236 1025 -24 m 286 539 b 656 7 286 208 436 7 b 1026 539 876 7 1026 208 b 656 1071 1026 871 878 1071 b 286 539 435 1071 286 871 m 610 1408 l 781 1154 l 749 1154 l 447 1408 "},"Ő":{"ha":1313,"x_min":0,"x_max":0,"o":"m 656 -24 b 61 539 288 -24 61 236 b 656 1100 61 843 286 1100 b 1251 539 1026 1100 1251 843 b 656 -24 1251 236 1025 -24 m 286 539 b 656 7 286 208 436 7 b 1026 539 876 7 1026 208 b 656 1071 1026 871 878 1071 b 286 539 435 1071 286 871 m 610 1415 l 733 1415 l 560 1154 l 526 1154 m 794 1415 l 924 1415 l 731 1154 l 699 1154 "},"Ō":{"ha":1313,"x_min":0,"x_max":0,"o":"m 656 -24 b 61 539 288 -24 61 236 b 656 1100 61 843 286 1100 b 1251 539 1026 1100 1251 843 b 656 -24 1251 236 1025 -24 m 286 539 b 656 7 286 208 436 7 b 1026 539 876 7 1026 208 b 656 1071 1026 871 878 1071 b 286 539 435 1071 286 871 m 421 1288 b 892 1288 606 1261 707 1261 l 892 1201 b 421 1201 707 1231 606 1231 "},"Ø":{"ha":1313,"x_min":0,"x_max":0,"o":"m 318 67 b 61 539 154 168 61 344 b 656 1100 61 843 286 1100 b 929 1044 758 1100 850 1081 b 997 1163 953 1086 976 1125 l 1047 1133 b 974 1024 1024 1099 999 1063 b 1251 539 1151 925 1251 742 b 656 -24 1251 236 1025 -24 b 358 43 543 -24 443 1 b 283 -86 332 -1 307 -46 l 235 -58 m 286 539 b 381 161 286 381 321 253 b 888 974 544 414 736 721 b 656 1071 826 1038 747 1071 b 286 539 435 1071 286 871 m 407 125 b 656 7 471 49 556 7 b 1026 539 876 7 1026 208 b 918 939 1026 711 986 847 b 407 125 754 689 561 382 "},"Ǿ":{"ha":1313,"x_min":0,"x_max":0,"o":"m 318 67 b 61 539 154 168 61 344 b 656 1100 61 843 286 1100 b 929 1044 758 1100 850 1081 b 997 1163 953 1086 976 1125 l 1047 1133 b 974 1024 1024 1099 999 1063 b 1251 539 1151 925 1251 742 b 656 -24 1251 236 1025 -24 b 358 43 543 -24 443 1 b 283 -86 332 -1 307 -46 l 235 -58 m 286 539 b 381 161 286 381 321 253 b 888 974 544 414 736 721 b 656 1071 826 1038 747 1071 b 286 539 435 1071 286 871 m 407 125 b 656 7 471 49 556 7 b 1026 539 876 7 1026 208 b 918 939 1026 711 986 847 b 407 125 754 689 561 382 m 706 1408 l 867 1408 l 565 1154 l 533 1154 "},"Õ":{"ha":1313,"x_min":0,"x_max":0,"o":"m 656 -24 b 61 539 288 -24 61 236 b 656 1100 61 843 286 1100 b 1251 539 1026 1100 1251 843 b 656 -24 1251 236 1025 -24 m 286 539 b 656 7 286 208 436 7 b 1026 539 876 7 1026 208 b 656 1071 1026 871 878 1071 b 286 539 435 1071 286 871 m 467 1168 b 535 1404 410 1294 442 1404 b 783 1258 647 1404 693 1258 b 821 1400 839 1258 856 1324 l 846 1406 b 776 1168 903 1279 871 1168 b 528 1314 664 1168 619 1314 b 492 1172 474 1314 457 1250 l 467 1168 "},"Œ":{"ha":1551,"x_min":0,"x_max":0,"o":"m 636 -24 b 61 539 332 -24 61 189 b 631 1100 61 876 317 1100 b 800 1083 688 1100 751 1092 l 1479 1083 l 1443 1001 b 1100 1056 1336 1032 1222 1056 l 1033 1056 l 1033 588 l 1093 588 b 1357 604 1207 588 1263 593 l 1357 540 b 1093 557 1263 551 1207 557 l 1033 557 l 1033 28 l 1113 28 b 1521 90 1296 28 1414 54 l 1497 0 l 824 0 b 636 -24 772 -14 703 -24 m 278 539 b 649 8 278 207 429 8 b 829 82 738 8 806 49 l 829 994 b 647 1069 803 1026 735 1069 b 278 539 431 1069 278 872 "},"P":{"ha":957,"x_min":0,"x_max":0,"o":"m 114 0 b 125 183 122 57 125 107 l 125 900 b 114 1083 125 976 122 1026 l 438 1083 b 910 788 710 1083 910 1014 b 424 490 910 561 710 490 l 329 490 l 329 183 b 340 0 329 107 332 57 l 114 0 m 424 521 b 701 788 606 521 701 593 b 438 1056 701 982 606 1056 l 329 1056 l 329 521 "},"Þ":{"ha":957,"x_min":0,"x_max":0,"o":"m 114 0 b 125 183 122 58 125 108 l 125 900 b 114 1083 125 975 122 1025 l 340 1083 b 329 900 332 1025 329 975 l 438 900 b 910 604 710 900 910 831 b 424 307 910 378 710 307 l 329 307 l 329 183 b 340 0 329 108 332 58 l 114 0 m 424 338 b 701 604 606 338 701 410 b 438 872 701 799 606 872 l 329 872 l 329 338 "},"Q":{"ha":1315,"x_min":0,"x_max":0,"o":"m 1003 -147 b 786 -12 899 -147 836 -87 b 656 -24 744 -19 701 -24 b 61 539 288 -24 61 236 b 656 1100 61 843 286 1100 b 1251 539 1026 1100 1251 843 b 883 14 1251 304 1117 96 b 1038 -96 919 -49 961 -96 b 1192 15 1114 -96 1171 -46 l 1211 10 b 1003 -147 1176 -87 1096 -147 m 286 539 b 360 196 286 400 313 283 b 565 311 397 265 469 311 b 842 96 728 311 790 201 b 853 74 846 89 849 81 b 1026 539 961 158 1026 321 b 656 1071 1026 871 878 1071 b 286 539 435 1071 286 871 m 374 171 b 656 7 439 65 538 7 b 763 25 693 7 729 13 b 746 53 757 33 751 43 b 518 261 685 156 633 261 b 374 171 451 261 401 225 "},"R":{"ha":1044,"x_min":0,"x_max":0,"o":"m 935 -4 b 599 236 749 -3 674 63 b 372 533 522 418 514 533 l 329 533 l 329 183 b 340 0 329 107 332 57 l 114 0 b 125 183 122 57 125 107 l 125 900 b 114 1083 125 976 122 1026 l 431 1083 b 903 807 703 1083 903 1014 b 499 540 903 629 757 556 b 806 271 636 517 728 453 b 1028 25 885 92 942 25 l 1028 0 b 935 -4 985 -3 958 -4 m 415 561 b 693 807 594 561 693 632 b 431 1056 693 982 597 1056 l 329 1056 l 329 561 "},"Ŕ":{"ha":1044,"x_min":0,"x_max":0,"o":"m 935 -4 b 599 236 749 -3 674 63 b 372 533 522 418 514 533 l 329 533 l 329 183 b 340 0 329 107 332 57 l 114 0 b 125 183 122 57 125 107 l 125 900 b 114 1083 125 976 122 1026 l 431 1083 b 903 807 703 1083 903 1014 b 499 540 903 629 757 556 b 806 271 636 517 728 453 b 1028 25 885 92 942 25 l 1028 0 b 935 -4 985 -3 958 -4 m 415 561 b 693 807 594 561 693 632 b 431 1056 693 982 597 1056 l 329 1056 l 329 561 m 535 1408 l 696 1408 l 394 1154 l 363 1154 "},"Ř":{"ha":1044,"x_min":0,"x_max":0,"o":"m 935 -4 b 599 236 749 -3 674 63 b 372 533 522 418 514 533 l 329 533 l 329 183 b 340 0 329 107 332 57 l 114 0 b 125 183 122 57 125 107 l 125 900 b 114 1083 125 976 122 1026 l 431 1083 b 903 807 703 1083 903 1014 b 499 540 903 629 757 556 b 806 271 636 517 728 453 b 1028 25 885 92 942 25 l 1028 0 b 935 -4 985 -3 958 -4 m 292 1401 l 485 1264 l 678 1401 l 707 1401 l 514 1161 l 456 1161 l 261 1401 m 415 561 b 693 807 594 561 693 632 b 431 1056 693 982 597 1056 l 329 1056 l 329 561 "},"Ŗ":{"ha":1044,"x_min":0,"x_max":0,"o":"m 935 -4 b 599 236 749 -3 674 63 b 372 533 522 418 514 533 l 329 533 l 329 183 b 340 0 329 107 332 57 l 114 0 b 125 183 122 57 125 107 l 125 900 b 114 1083 125 976 122 1026 l 431 1083 b 903 807 703 1083 903 1014 b 499 540 903 629 757 556 b 806 271 636 517 728 453 b 1028 25 885 92 942 25 l 1028 0 b 935 -4 985 -3 958 -4 m 415 561 b 693 807 594 561 693 632 b 431 1056 693 982 597 1056 l 329 1056 l 329 561 m 504 -54 l 629 -128 b 468 -360 604 -228 539 -312 l 449 -342 b 519 -236 485 -310 507 -275 l 431 -176 "},"S":{"ha":897,"x_min":0,"x_max":0,"o":"m 468 -24 b 42 276 282 -24 111 83 b 125 343 51 314 81 343 b 244 224 190 343 221 278 b 485 7 275 93 356 7 b 688 186 603 7 688 79 b 101 826 688 468 101 493 b 440 1100 101 994 256 1100 b 811 893 592 1100 729 1026 b 728 825 799 854 771 825 b 626 908 678 825 650 863 b 422 1072 593 1003 524 1072 b 250 915 325 1072 250 1008 b 843 283 250 654 843 635 b 468 -24 843 96 671 -24 "},"Ś":{"ha":897,"x_min":0,"x_max":0,"o":"m 468 -24 b 42 276 282 -24 111 83 b 125 343 51 314 81 343 b 244 224 190 343 221 278 b 485 7 275 93 356 7 b 688 186 603 7 688 79 b 101 826 688 468 101 493 b 440 1100 101 994 256 1100 b 811 893 592 1100 729 1026 b 728 825 799 854 771 825 b 626 908 678 825 650 863 b 422 1072 593 1003 524 1072 b 250 915 325 1072 250 1008 b 843 283 250 654 843 635 b 468 -24 843 96 671 -24 m 496 1408 l 657 1408 l 356 1154 l 324 1154 "},"Š":{"ha":897,"x_min":0,"x_max":0,"o":"m 468 -24 b 42 276 282 -24 111 83 b 125 343 51 314 81 343 b 244 224 190 343 221 278 b 485 7 275 93 356 7 b 688 186 603 7 688 79 b 101 826 688 468 101 493 b 440 1100 101 994 256 1100 b 811 893 592 1100 729 1026 b 728 825 799 854 771 825 b 626 908 678 825 650 863 b 422 1072 593 1003 524 1072 b 250 915 325 1072 250 1008 b 843 283 250 654 843 635 b 468 -24 843 96 671 -24 m 253 1401 l 446 1264 l 639 1401 l 668 1401 l 475 1161 l 417 1161 l 222 1401 "},"Ş":{"ha":897,"x_min":0,"x_max":0,"o":"m 453 -24 l 397 -99 b 475 -81 422 -86 449 -81 b 621 -208 569 -81 621 -144 b 457 -342 621 -276 564 -342 b 290 -251 389 -342 324 -312 b 315 -231 296 -239 304 -231 b 340 -256 329 -231 335 -242 b 428 -314 358 -292 390 -314 b 515 -210 486 -314 515 -261 b 436 -115 515 -157 486 -115 b 363 -146 411 -115 385 -125 l 342 -129 l 418 -21 b 42 276 253 -4 106 100 b 125 343 51 314 81 343 b 244 224 190 343 221 278 b 485 7 275 93 356 7 b 688 186 603 7 688 79 b 101 826 688 468 101 493 b 440 1100 101 994 256 1100 b 811 893 592 1100 729 1026 b 728 825 799 854 771 825 b 626 908 678 825 650 863 b 422 1072 593 1003 524 1072 b 250 915 325 1072 250 1008 b 843 283 250 654 843 635 b 468 -24 843 96 671 -24 "},"Ŝ":{"ha":897,"x_min":0,"x_max":0,"o":"m 468 -24 b 42 276 282 -24 111 83 b 125 343 51 314 81 343 b 244 224 190 343 221 278 b 485 7 275 93 356 7 b 688 186 603 7 688 79 b 101 826 688 468 101 493 b 440 1100 101 994 256 1100 b 811 893 592 1100 729 1026 b 728 825 799 854 771 825 b 626 908 678 825 650 863 b 422 1072 593 1003 524 1072 b 250 915 325 1072 250 1008 b 843 283 250 654 843 635 b 468 -24 843 96 671 -24 m 418 1401 l 476 1401 l 669 1161 l 640 1161 l 447 1299 l 254 1161 l 224 1161 "},"Ș":{"ha":897,"x_min":0,"x_max":0,"o":"m 468 -24 b 42 276 282 -24 111 83 b 125 343 51 314 81 343 b 244 224 190 343 221 278 b 485 7 275 93 356 7 b 688 186 603 7 688 79 b 101 826 688 468 101 493 b 440 1100 101 994 256 1100 b 811 893 592 1100 729 1026 b 728 825 799 854 771 825 b 626 908 678 825 650 863 b 422 1072 593 1003 524 1072 b 250 915 325 1072 250 1008 b 843 283 250 654 843 635 b 468 -24 843 96 671 -24 m 431 -54 l 556 -128 b 394 -360 531 -228 465 -312 l 375 -342 b 446 -236 411 -310 433 -275 l 357 -176 "},"ẞ":{"ha":1126,"x_min":0,"x_max":0,"o":"m 735 -24 b 408 238 585 -24 450 60 b 482 290 418 272 446 290 b 560 201 539 290 556 249 b 715 6 572 85 629 6 b 897 249 813 6 897 101 b 519 556 897 461 728 569 l 519 643 l 824 993 b 471 1054 714 1038 604 1054 l 331 1054 l 329 183 b 340 0 329 108 332 58 l 114 0 b 125 183 122 58 125 108 l 125 900 b 114 1083 125 975 122 1026 l 926 1083 l 926 1053 l 582 665 b 1075 310 844 685 1075 567 b 735 -24 1075 111 926 -24 "},"T":{"ha":969,"x_min":0,"x_max":0,"o":"m 371 0 b 382 183 379 57 382 107 l 382 1057 b 56 990 263 1053 163 1036 l 19 1083 l 950 1083 l 914 990 b 586 1057 807 1036 707 1053 l 586 183 b 597 0 586 107 589 57 l 371 0 "},"Ŧ":{"ha":975,"x_min":0,"x_max":0,"o":"m 372 0 b 383 183 381 57 383 107 l 383 539 b 118 528 290 538 197 533 l 118 582 b 383 569 197 575 290 571 l 383 1057 b 57 990 264 1053 164 1036 l 21 1083 l 951 1083 l 915 990 b 588 1057 808 1036 708 1053 l 588 569 b 858 582 683 571 782 575 l 858 528 b 588 539 782 533 683 538 l 588 183 b 599 0 588 107 590 57 l 372 0 "},"Ť":{"ha":969,"x_min":0,"x_max":0,"o":"m 371 0 b 382 183 379 57 382 107 l 382 1057 b 56 990 263 1053 163 1036 l 19 1083 l 950 1083 l 914 990 b 586 1057 807 1036 707 1053 l 586 183 b 597 0 586 107 589 57 l 371 0 m 290 1401 l 483 1264 l 676 1401 l 706 1401 l 513 1161 l 454 1161 l 260 1401 "},"Ţ":{"ha":969,"x_min":0,"x_max":0,"o":"m 371 0 b 382 183 379 57 382 107 l 382 1057 b 56 990 263 1053 163 1036 l 19 1083 l 950 1083 l 914 990 b 586 1057 807 1036 707 1053 l 586 183 b 597 0 586 107 589 57 l 500 0 l 428 -99 b 506 -81 453 -86 479 -81 b 651 -208 600 -81 651 -144 b 488 -342 651 -276 594 -342 b 321 -251 419 -342 354 -312 b 346 -231 326 -239 335 -231 b 371 -256 360 -231 365 -242 b 458 -314 389 -292 421 -314 b 546 -210 517 -314 546 -261 b 467 -115 546 -157 517 -115 b 393 -146 442 -115 415 -125 l 372 -129 l 464 0 l 371 0 "},"Ț":{"ha":969,"x_min":0,"x_max":0,"o":"m 371 0 b 382 183 379 57 382 107 l 382 1057 b 56 990 263 1053 163 1036 l 19 1083 l 950 1083 l 914 990 b 586 1057 807 1036 707 1053 l 586 183 b 597 0 586 107 589 57 l 371 0 m 461 -54 l 586 -128 b 425 -360 561 -228 496 -312 l 406 -342 b 476 -236 442 -310 464 -275 l 388 -176 "},"U":{"ha":975,"x_min":0,"x_max":0,"o":"m 501 -22 b 110 376 253 -22 110 115 l 110 900 b 97 1083 110 975 106 1022 l 324 1083 b 314 900 317 1024 314 975 l 314 376 b 568 38 314 160 394 38 b 828 376 735 38 828 151 l 828 706 b 797 1083 828 838 815 1000 l 892 1083 b 860 706 874 1000 860 839 l 860 376 b 501 -22 860 108 743 -22 "},"Ú":{"ha":975,"x_min":0,"x_max":0,"o":"m 501 -22 b 110 376 253 -22 110 115 l 110 900 b 97 1083 110 975 106 1022 l 324 1083 b 314 900 317 1024 314 975 l 314 376 b 568 38 314 160 394 38 b 828 376 735 38 828 151 l 828 706 b 797 1083 828 838 815 1000 l 892 1083 b 860 706 874 1000 860 839 l 860 376 b 501 -22 860 108 743 -22 m 564 1408 l 725 1408 l 424 1154 l 392 1154 "},"Ŭ":{"ha":975,"x_min":0,"x_max":0,"o":"m 501 -22 b 110 376 253 -22 110 115 l 110 900 b 97 1083 110 975 106 1022 l 324 1083 b 314 900 317 1024 314 975 l 314 376 b 568 38 314 160 394 38 b 828 376 735 38 828 151 l 828 706 b 797 1083 828 838 815 1000 l 892 1083 b 860 706 874 1000 860 839 l 860 376 b 501 -22 860 108 743 -22 m 381 1388 b 514 1251 385 1299 440 1251 b 649 1388 589 1251 644 1299 l 676 1388 b 514 1160 676 1250 629 1160 b 353 1388 399 1160 351 1250 "},"Û":{"ha":975,"x_min":0,"x_max":0,"o":"m 501 -22 b 110 376 253 -22 110 115 l 110 900 b 97 1083 110 975 106 1022 l 324 1083 b 314 900 317 1024 314 975 l 314 376 b 568 38 314 160 394 38 b 828 376 735 38 828 151 l 828 706 b 797 1083 828 838 815 1000 l 892 1083 b 860 706 874 1000 860 839 l 860 376 b 501 -22 860 108 743 -22 m 485 1401 l 543 1401 l 736 1161 l 707 1161 l 514 1299 l 321 1161 l 290 1161 "},"Ü":{"ha":975,"x_min":0,"x_max":0,"o":"m 501 -22 b 110 376 253 -22 110 115 l 110 900 b 97 1083 110 975 106 1022 l 324 1083 b 314 900 317 1024 314 975 l 314 376 b 568 38 314 160 394 38 b 828 376 735 38 828 151 l 828 706 b 797 1083 828 838 815 1000 l 892 1083 b 860 706 874 1000 860 839 l 860 376 b 501 -22 860 108 743 -22 m 374 1379 l 472 1281 l 374 1183 l 275 1281 m 657 1379 l 756 1281 l 657 1183 l 557 1281 "},"Ù":{"ha":975,"x_min":0,"x_max":0,"o":"m 501 -22 b 110 376 253 -22 110 115 l 110 900 b 97 1083 110 975 106 1022 l 324 1083 b 314 900 317 1024 314 975 l 314 376 b 568 38 314 160 394 38 b 828 376 735 38 828 151 l 828 706 b 797 1083 828 838 815 1000 l 892 1083 b 860 706 874 1000 860 839 l 860 376 b 501 -22 860 108 743 -22 m 467 1408 l 638 1154 l 606 1154 l 304 1408 "},"Ű":{"ha":975,"x_min":0,"x_max":0,"o":"m 501 -22 b 110 376 253 -22 110 115 l 110 900 b 97 1083 110 975 106 1022 l 324 1083 b 314 900 317 1024 314 975 l 314 376 b 568 38 314 160 394 38 b 828 376 735 38 828 151 l 828 706 b 797 1083 828 838 815 1000 l 892 1083 b 860 706 874 1000 860 839 l 860 376 b 501 -22 860 108 743 -22 m 467 1415 l 590 1415 l 417 1154 l 383 1154 m 651 1415 l 781 1415 l 588 1154 l 556 1154 "},"Ū":{"ha":975,"x_min":0,"x_max":0,"o":"m 501 -22 b 110 376 253 -22 110 115 l 110 900 b 97 1083 110 975 106 1022 l 324 1083 b 314 900 317 1024 314 975 l 314 376 b 568 38 314 160 394 38 b 828 376 735 38 828 151 l 828 706 b 797 1083 828 838 815 1000 l 892 1083 b 860 706 874 1000 860 839 l 860 376 b 501 -22 860 108 743 -22 m 279 1288 b 750 1288 464 1261 565 1261 l 750 1201 b 279 1201 565 1231 464 1231 "},"Ų":{"ha":976,"x_min":0,"x_max":0,"o":"m 538 -337 b 394 -211 450 -337 394 -281 b 543 -21 394 -147 440 -74 b 503 -24 531 -22 517 -24 b 110 403 261 -24 110 131 l 110 900 b 97 1083 110 971 106 1019 l 324 1083 b 313 900 315 1029 313 982 l 313 403 b 568 43 313 160 406 43 b 828 403 732 43 828 165 l 828 757 b 796 1083 828 871 815 997 l 893 1083 b 861 757 874 996 861 871 l 861 403 b 644 -3 861 179 785 49 b 496 -190 529 -43 496 -126 b 589 -290 496 -249 535 -290 b 653 -268 610 -290 632 -283 l 664 -283 b 538 -337 633 -318 588 -337 "},"Ů":{"ha":975,"x_min":0,"x_max":0,"o":"m 501 -22 b 110 376 253 -22 110 115 l 110 900 b 97 1083 110 975 106 1022 l 324 1083 b 314 900 317 1024 314 975 l 314 376 b 568 38 314 160 394 38 b 828 376 735 38 828 151 l 828 706 b 797 1083 828 838 815 1000 l 892 1083 b 860 706 874 1000 860 839 l 860 376 b 501 -22 860 108 743 -22 m 378 1257 b 515 1393 378 1332 439 1393 b 651 1257 590 1393 651 1332 b 515 1121 651 1182 590 1121 b 378 1257 439 1121 378 1182 m 413 1257 b 515 1153 413 1201 458 1153 b 617 1257 571 1153 617 1201 b 515 1361 617 1313 571 1361 b 413 1257 458 1361 413 1313 "},"Ũ":{"ha":975,"x_min":0,"x_max":0,"o":"m 501 -22 b 110 376 253 -22 110 115 l 110 900 b 97 1083 110 975 106 1022 l 324 1083 b 314 900 317 1024 314 975 l 314 376 b 568 38 314 160 394 38 b 828 376 735 38 828 151 l 828 706 b 797 1083 828 838 815 1000 l 892 1083 b 860 706 874 1000 860 839 l 860 376 b 501 -22 860 108 743 -22 m 324 1168 b 392 1404 267 1294 299 1404 b 640 1258 504 1404 550 1258 b 678 1400 696 1258 713 1324 l 703 1406 b 633 1168 760 1279 728 1168 b 385 1314 521 1168 476 1314 b 349 1172 331 1314 314 1250 l 324 1168 "},"V":{"ha":922,"x_min":0,"x_max":0,"o":"m 129 800 b 35 1083 90 942 57 1026 l 293 1083 b 332 843 294 1025 308 922 l 543 111 l 726 715 b 794 1083 769 851 790 1006 l 890 1083 b 778 772 865 1028 818 904 l 579 124 b 571 0 568 88 564 35 l 363 0 l 129 800 "},"W":{"ha":1439,"x_min":0,"x_max":0,"o":"m 692 829 b 618 1083 667 942 636 1026 l 875 1083 b 899 843 872 1025 881 922 l 1063 122 l 1243 715 b 1311 1083 1286 851 1307 1006 l 1407 1083 b 1294 772 1382 1028 1335 904 l 1096 124 b 1088 0 1085 88 1081 35 l 879 0 l 722 693 l 575 124 b 571 0 565 88 561 35 l 363 0 l 129 800 b 35 1083 90 942 57 1026 l 293 1083 b 332 843 294 1025 308 922 l 540 118 l 707 760 l 692 829 "},"Ẃ":{"ha":1439,"x_min":0,"x_max":0,"o":"m 692 829 b 618 1083 667 942 636 1026 l 875 1083 b 899 843 872 1025 881 922 l 1063 122 l 1243 715 b 1311 1083 1286 851 1307 1006 l 1407 1083 b 1294 772 1382 1028 1335 904 l 1096 124 b 1088 0 1085 88 1081 35 l 879 0 l 722 693 l 575 124 b 571 0 565 88 561 35 l 363 0 l 129 800 b 35 1083 90 942 57 1026 l 293 1083 b 332 843 294 1025 308 922 l 540 118 l 707 760 l 692 829 m 790 1408 l 951 1408 l 650 1154 l 618 1154 "},"Ŵ":{"ha":1439,"x_min":0,"x_max":0,"o":"m 692 829 b 618 1083 667 942 636 1026 l 875 1083 b 899 843 872 1025 881 922 l 1063 122 l 1243 715 b 1311 1083 1286 851 1307 1006 l 1407 1083 b 1294 772 1382 1028 1335 904 l 1096 124 b 1088 0 1085 88 1081 35 l 879 0 l 722 693 l 575 124 b 571 0 565 88 561 35 l 363 0 l 129 800 b 35 1083 90 942 57 1026 l 293 1083 b 332 843 294 1025 308 922 l 540 118 l 707 760 l 692 829 m 711 1401 l 769 1401 l 963 1161 l 933 1161 l 740 1299 l 547 1161 l 517 1161 "},"Ẅ":{"ha":1439,"x_min":0,"x_max":0,"o":"m 692 829 b 618 1083 667 942 636 1026 l 875 1083 b 899 843 872 1025 881 922 l 1063 122 l 1243 715 b 1311 1083 1286 851 1307 1006 l 1407 1083 b 1294 772 1382 1028 1335 904 l 1096 124 b 1088 0 1085 88 1081 35 l 879 0 l 722 693 l 575 124 b 571 0 565 88 561 35 l 363 0 l 129 800 b 35 1083 90 942 57 1026 l 293 1083 b 332 843 294 1025 308 922 l 540 118 l 707 760 l 692 829 m 600 1379 l 699 1281 l 600 1183 l 501 1281 m 883 1379 l 982 1281 l 883 1183 l 783 1281 "},"Ẁ":{"ha":1439,"x_min":0,"x_max":0,"o":"m 692 829 b 618 1083 667 942 636 1026 l 875 1083 b 899 843 872 1025 881 922 l 1063 122 l 1243 715 b 1311 1083 1286 851 1307 1006 l 1407 1083 b 1294 772 1382 1028 1335 904 l 1096 124 b 1088 0 1085 88 1081 35 l 879 0 l 722 693 l 575 124 b 571 0 565 88 561 35 l 363 0 l 129 800 b 35 1083 90 942 57 1026 l 293 1083 b 332 843 294 1025 308 922 l 540 118 l 707 760 l 692 829 m 693 1408 l 864 1154 l 832 1154 l 531 1408 "},"X":{"ha":893,"x_min":0,"x_max":0,"o":"m 583 0 b 499 235 572 60 543 149 l 367 486 l 232 236 b 140 0 190 161 171 108 l 46 0 b 197 239 104 83 158 168 l 350 518 l 169 864 b 44 1083 126 947 85 1022 l 318 1083 b 404 849 329 1025 360 936 l 525 618 l 651 847 b 742 1083 692 922 711 975 l 836 1083 b 686 844 779 1000 725 915 l 543 583 l 733 219 b 857 0 776 136 836 28 l 583 0 "},"Y":{"ha":899,"x_min":0,"x_max":0,"o":"m 342 0 b 353 183 350 58 353 108 l 353 504 l 115 936 b 28 1083 86 988 53 1042 l 301 1083 b 378 869 308 1024 343 943 l 542 539 l 679 799 b 776 1083 738 914 764 1001 l 871 1083 b 717 801 826 1008 768 901 l 557 507 l 557 183 b 568 0 557 108 560 58 l 342 0 "},"Ý":{"ha":899,"x_min":0,"x_max":0,"o":"m 342 0 b 353 183 350 58 353 108 l 353 504 l 115 936 b 28 1083 86 988 53 1042 l 301 1083 b 378 869 308 1024 343 943 l 542 539 l 679 799 b 776 1083 738 914 764 1001 l 871 1083 b 717 801 826 1008 768 901 l 557 507 l 557 183 b 568 0 557 108 560 58 l 342 0 m 549 1408 l 710 1408 l 408 1154 l 376 1154 "},"Ŷ":{"ha":899,"x_min":0,"x_max":0,"o":"m 342 0 b 353 183 350 58 353 108 l 353 504 l 115 936 b 28 1083 86 988 53 1042 l 301 1083 b 378 869 308 1024 343 943 l 542 539 l 679 799 b 776 1083 738 914 764 1001 l 871 1083 b 717 801 826 1008 768 901 l 557 507 l 557 183 b 568 0 557 108 560 58 l 342 0 m 471 1401 l 529 1401 l 722 1161 l 693 1161 l 500 1299 l 307 1161 l 276 1161 "},"Ÿ":{"ha":899,"x_min":0,"x_max":0,"o":"m 342 0 b 353 183 350 58 353 108 l 353 504 l 115 936 b 28 1083 86 988 53 1042 l 301 1083 b 378 869 308 1024 343 943 l 542 539 l 679 799 b 776 1083 738 914 764 1001 l 871 1083 b 717 801 826 1008 768 901 l 557 507 l 557 183 b 568 0 557 108 560 58 l 342 0 m 360 1379 l 458 1281 l 360 1183 l 261 1281 m 643 1379 l 742 1281 l 643 1183 l 543 1281 "},"Ỳ":{"ha":899,"x_min":0,"x_max":0,"o":"m 342 0 b 353 183 350 58 353 108 l 353 504 l 115 936 b 28 1083 86 988 53 1042 l 301 1083 b 378 869 308 1024 343 943 l 542 539 l 679 799 b 776 1083 738 914 764 1001 l 871 1083 b 717 801 826 1008 768 901 l 557 507 l 557 183 b 568 0 557 108 560 58 l 342 0 m 453 1408 l 624 1154 l 592 1154 l 290 1408 "},"Ỹ":{"ha":899,"x_min":0,"x_max":0,"o":"m 342 0 b 353 183 350 58 353 108 l 353 504 l 115 936 b 28 1083 86 988 53 1042 l 301 1083 b 378 869 308 1024 343 943 l 542 539 l 679 799 b 776 1083 738 914 764 1001 l 871 1083 b 717 801 826 1008 768 901 l 557 507 l 557 183 b 568 0 557 108 560 58 l 342 0 m 310 1168 b 378 1404 253 1294 285 1404 b 626 1258 490 1404 536 1258 b 664 1400 682 1258 699 1324 l 689 1406 b 619 1168 746 1279 714 1168 b 371 1314 507 1168 463 1314 b 335 1172 317 1314 300 1250 l 310 1168 "},"Z":{"ha":896,"x_min":0,"x_max":0,"o":"m 39 47 l 594 1057 l 474 1057 b 101 994 343 1057 239 1046 l 65 1083 l 818 1083 l 818 1036 l 269 28 l 440 28 b 856 100 569 28 719 49 l 832 0 l 39 0 "},"Ź":{"ha":896,"x_min":0,"x_max":0,"o":"m 39 47 l 594 1057 l 474 1057 b 101 994 343 1057 239 1046 l 65 1083 l 818 1083 l 818 1036 l 269 28 l 440 28 b 856 100 569 28 719 49 l 832 0 l 39 0 m 497 1408 l 658 1408 l 357 1154 l 325 1154 "},"Ž":{"ha":896,"x_min":0,"x_max":0,"o":"m 39 47 l 594 1057 l 474 1057 b 101 994 343 1057 239 1046 l 65 1083 l 818 1083 l 818 1036 l 269 28 l 440 28 b 856 100 569 28 719 49 l 832 0 l 39 0 m 254 1401 l 447 1264 l 640 1401 l 669 1401 l 476 1161 l 418 1161 l 224 1401 "},"Ż":{"ha":896,"x_min":0,"x_max":0,"o":"m 39 47 l 594 1057 l 474 1057 b 101 994 343 1057 239 1046 l 65 1083 l 818 1083 l 818 1036 l 269 28 l 440 28 b 856 100 569 28 719 49 l 832 0 l 39 0 m 449 1392 l 557 1283 l 449 1175 l 339 1283 "},"a":{"ha":786,"x_min":0,"x_max":0,"o":"m 244 -24 b 38 167 135 -24 38 47 b 294 390 38 306 165 349 b 531 589 408 426 531 461 b 414 710 531 664 483 710 b 244 593 324 710 274 636 b 147 528 219 557 194 528 b 75 631 101 528 76 560 b 406 736 172 693 293 736 b 696 482 579 736 696 647 l 696 229 b 728 0 696 117 703 78 l 538 0 b 525 211 529 64 525 139 b 244 -24 472 46 351 -24 m 210 210 b 336 72 210 118 269 72 b 525 333 422 72 525 150 l 525 481 b 368 383 497 431 440 413 b 210 210 275 340 210 300 "},"á":{"ha":786,"x_min":0,"x_max":0,"o":"m 244 -24 b 38 167 135 -24 38 47 b 294 390 38 306 165 349 b 531 589 408 426 531 461 b 414 710 531 664 483 710 b 244 593 324 710 274 636 b 147 528 219 557 194 528 b 75 631 101 528 76 560 b 406 736 172 693 293 736 b 696 482 579 736 696 647 l 696 229 b 728 0 696 117 703 78 l 538 0 b 525 211 529 64 525 139 b 244 -24 472 46 351 -24 m 210 210 b 336 72 210 118 269 72 b 525 333 422 72 525 150 l 525 481 b 368 383 497 431 440 413 b 210 210 275 340 210 300 m 374 1039 l 538 1039 l 332 785 l 303 785 "},"ă":{"ha":786,"x_min":0,"x_max":0,"o":"m 244 -24 b 38 167 135 -24 38 47 b 294 390 38 306 165 349 b 531 589 408 426 531 461 b 414 710 531 664 483 710 b 244 593 324 710 274 636 b 147 528 219 557 194 528 b 75 631 101 528 76 560 b 406 736 172 693 293 736 b 696 482 579 736 696 647 l 696 229 b 728 0 696 117 703 78 l 538 0 b 525 211 529 64 525 139 b 244 -24 472 46 351 -24 m 210 210 b 336 72 210 118 269 72 b 525 333 422 72 525 150 l 525 481 b 368 383 497 431 440 413 b 210 210 275 340 210 300 m 260 1026 b 386 883 264 929 319 883 b 514 1026 454 883 510 929 l 542 1026 b 386 792 543 881 496 792 b 232 1026 278 792 231 881 "},"â":{"ha":786,"x_min":0,"x_max":0,"o":"m 244 -24 b 38 167 135 -24 38 47 b 294 390 38 306 165 349 b 531 589 408 426 531 461 b 414 710 531 664 483 710 b 244 593 324 710 274 636 b 147 528 219 557 194 528 b 75 631 101 528 76 560 b 406 736 172 693 293 736 b 696 482 579 736 696 647 l 696 229 b 728 0 696 117 703 78 l 538 0 b 525 211 529 64 525 139 b 244 -24 472 46 351 -24 m 358 1046 l 417 1046 l 575 783 l 549 783 l 388 933 l 226 783 l 200 783 m 210 210 b 336 72 210 118 269 72 b 525 333 422 72 525 150 l 525 481 b 368 383 497 431 440 413 b 210 210 275 340 210 300 "},"ä":{"ha":786,"x_min":0,"x_max":0,"o":"m 244 -24 b 38 167 135 -24 38 47 b 294 390 38 306 165 349 b 531 589 408 426 531 461 b 414 710 531 664 483 710 b 244 593 324 710 274 636 b 147 528 219 557 194 528 b 75 631 101 528 76 560 b 406 736 172 693 293 736 b 696 482 579 736 696 647 l 696 229 b 728 0 696 117 703 78 l 538 0 b 525 211 529 64 525 139 b 244 -24 472 46 351 -24 m 253 1011 l 351 913 l 253 815 l 154 913 m 210 210 b 336 72 210 118 269 72 b 525 333 422 72 525 150 l 525 481 b 368 383 497 431 440 413 b 210 210 275 340 210 300 m 522 1011 l 619 913 l 522 815 l 422 913 "},"à":{"ha":786,"x_min":0,"x_max":0,"o":"m 244 -24 b 38 167 135 -24 38 47 b 294 390 38 306 165 349 b 531 589 408 426 531 461 b 414 710 531 664 483 710 b 244 593 324 710 274 636 b 147 528 219 557 194 528 b 75 631 101 528 76 560 b 406 736 172 693 293 736 b 696 482 579 736 696 647 l 696 229 b 728 0 696 117 703 78 l 538 0 b 525 211 529 64 525 139 b 244 -24 472 46 351 -24 m 210 210 b 336 72 210 118 269 72 b 525 333 422 72 525 150 l 525 481 b 368 383 497 431 440 413 b 210 210 275 340 210 300 m 401 1039 l 472 785 l 442 785 l 238 1039 "},"ā":{"ha":786,"x_min":0,"x_max":0,"o":"m 244 -24 b 38 167 135 -24 38 47 b 294 390 38 306 165 349 b 531 589 408 426 531 461 b 414 710 531 664 483 710 b 244 593 324 710 274 636 b 147 528 219 557 194 528 b 75 631 101 528 76 560 b 406 736 172 693 293 736 b 696 482 579 736 696 647 l 696 229 b 728 0 696 117 703 78 l 538 0 b 525 211 529 64 525 139 b 244 -24 472 46 351 -24 m 168 938 b 606 938 350 911 425 911 l 606 851 b 168 851 425 879 350 879 m 210 210 b 336 72 210 118 269 72 b 525 333 422 72 525 150 l 525 481 b 368 383 497 431 440 413 b 210 210 275 340 210 300 "},"ą":{"ha":788,"x_min":0,"x_max":0,"o":"m 514 -325 b 372 -200 426 -325 372 -268 b 533 -10 372 -135 419 -61 b 525 211 531 56 525 136 b 244 -24 472 46 351 -24 b 38 167 135 -24 38 47 b 294 390 38 306 165 350 b 531 588 408 426 531 461 b 413 711 531 663 483 711 b 240 590 324 711 274 633 b 149 528 219 557 193 528 b 75 631 101 528 76 560 b 406 738 172 693 293 738 b 696 482 579 738 696 647 l 696 229 b 728 0 696 117 703 78 l 594 -11 b 472 -171 506 -51 472 -115 b 565 -278 472 -232 510 -278 b 629 -256 586 -278 608 -271 l 642 -271 b 514 -325 610 -307 564 -325 m 210 210 b 336 72 210 118 269 72 b 525 333 422 72 525 150 l 525 481 b 368 383 497 431 440 413 b 210 210 275 340 210 300 "},"å":{"ha":786,"x_min":0,"x_max":0,"o":"m 244 -24 b 38 167 135 -24 38 47 b 294 390 38 306 165 349 b 531 589 408 426 531 461 b 414 710 531 664 483 710 b 244 593 324 710 274 636 b 147 528 219 557 194 528 b 75 631 101 528 76 560 b 406 736 172 693 293 736 b 696 482 579 736 696 647 l 696 229 b 728 0 696 117 703 78 l 538 0 b 525 211 529 64 525 139 b 244 -24 472 46 351 -24 m 210 210 b 336 72 210 118 269 72 b 525 333 422 72 525 150 l 525 481 b 368 383 497 431 440 413 b 210 210 275 340 210 300 m 250 910 b 388 1046 250 985 311 1046 b 524 910 463 1046 524 985 b 388 774 524 835 463 774 b 250 910 311 774 250 835 m 285 910 b 388 806 285 854 331 806 b 489 910 443 806 489 854 b 388 1014 489 965 443 1014 b 285 910 331 1014 285 965 "},"ã":{"ha":786,"x_min":0,"x_max":0,"o":"m 244 -24 b 38 167 135 -24 38 47 b 294 390 38 306 165 349 b 531 589 408 426 531 461 b 414 710 531 664 483 710 b 244 593 324 710 274 636 b 147 528 219 557 194 528 b 75 631 101 528 76 560 b 406 736 172 693 293 736 b 696 482 579 736 696 647 l 696 229 b 728 0 696 117 703 78 l 538 0 b 525 211 529 64 525 139 b 244 -24 472 46 351 -24 m 210 210 b 336 72 210 118 269 72 b 525 333 422 72 525 150 l 525 481 b 368 383 497 431 440 413 b 210 210 275 340 210 300 m 215 800 b 283 1036 158 926 190 1036 b 497 890 389 1036 414 890 b 533 1032 551 890 568 954 l 558 1038 b 490 800 617 911 583 800 b 276 946 383 800 360 946 b 240 804 222 946 206 882 l 215 800 "},"æ":{"ha":1225,"x_min":0,"x_max":0,"o":"m 243 -24 b 38 167 133 -24 38 47 b 294 390 38 306 165 349 b 525 589 408 426 525 461 b 413 711 525 664 483 711 b 244 593 324 711 274 636 b 147 528 219 557 194 528 b 75 631 101 528 76 560 b 394 738 165 689 285 738 b 615 593 499 738 582 693 b 860 736 669 688 761 736 b 1168 432 1022 736 1163 617 l 685 432 b 926 67 685 258 760 67 b 1167 288 1028 67 1129 142 l 1188 283 b 847 -24 1139 85 1003 -24 b 539 238 701 -24 579 72 b 243 -24 494 68 374 -24 m 210 210 b 335 72 210 118 269 72 b 519 333 419 72 519 150 l 519 481 b 368 383 493 431 440 413 b 210 210 269 339 210 299 m 985 463 b 846 711 982 639 926 711 b 685 463 743 711 692 604 "},"ǽ":{"ha":1225,"x_min":0,"x_max":0,"o":"m 243 -24 b 38 167 133 -24 38 47 b 294 390 38 306 165 349 b 525 589 408 426 525 461 b 413 711 525 664 483 711 b 244 593 324 711 274 636 b 147 528 219 557 194 528 b 75 631 101 528 76 560 b 394 738 165 689 285 738 b 615 593 499 738 582 693 b 860 736 669 688 761 736 b 1168 432 1022 736 1163 617 l 685 432 b 926 67 685 258 760 67 b 1167 288 1028 67 1129 142 l 1188 283 b 847 -24 1139 85 1003 -24 b 539 238 701 -24 579 72 b 243 -24 494 68 374 -24 m 210 210 b 335 72 210 118 269 72 b 519 333 419 72 519 150 l 519 481 b 368 383 493 431 440 413 b 210 210 269 339 210 299 m 633 1039 l 797 1039 l 592 785 l 563 785 m 985 463 b 846 711 982 639 926 711 b 685 463 743 711 692 604 "},"b":{"ha":875,"x_min":0,"x_max":0,"o":"m 531 -24 b 271 176 397 -24 308 67 l 233 0 l 100 0 l 100 914 b 89 1097 100 988 97 1039 l 286 1097 b 274 914 276 1039 274 988 l 274 567 b 533 736 335 679 431 736 b 824 357 724 736 824 547 b 531 -24 824 167 724 -24 m 274 256 b 456 56 290 132 368 56 b 642 354 579 56 642 206 b 454 653 642 503 579 653 b 274 529 386 653 318 608 l 274 256 "},"c":{"ha":789,"x_min":0,"x_max":0,"o":"m 411 -22 b 46 358 189 -22 46 156 b 429 736 46 574 200 736 b 738 592 546 736 661 686 b 661 510 728 535 701 510 b 572 590 610 510 589 547 b 424 710 540 667 492 710 b 231 424 325 710 231 606 b 492 67 231 200 350 67 b 743 288 607 67 707 154 l 764 282 b 411 -22 718 99 582 -22 "},"ć":{"ha":789,"x_min":0,"x_max":0,"o":"m 411 -22 b 46 358 189 -22 46 156 b 429 736 46 574 200 736 b 738 592 546 736 661 686 b 661 510 728 535 701 510 b 572 590 610 510 589 547 b 424 710 540 667 492 710 b 231 424 325 710 231 606 b 492 67 231 200 350 67 b 743 288 607 67 707 154 l 764 282 b 411 -22 718 99 582 -22 m 397 1039 l 561 1039 l 356 785 l 326 785 "},"č":{"ha":789,"x_min":0,"x_max":0,"o":"m 411 -22 b 46 358 189 -22 46 156 b 429 736 46 574 200 736 b 738 592 546 736 661 686 b 661 510 728 535 701 510 b 572 590 610 510 589 547 b 424 710 540 667 492 710 b 231 424 325 710 231 606 b 492 67 231 200 350 67 b 743 288 607 67 707 154 l 764 282 b 411 -22 718 99 582 -22 m 250 1047 l 411 897 l 572 1047 l 599 1047 l 440 785 l 382 785 l 224 1047 "},"ç":{"ha":789,"x_min":0,"x_max":0,"o":"m 410 -22 l 354 -99 b 432 -81 379 -86 406 -81 b 578 -208 526 -81 578 -144 b 414 -342 578 -276 521 -342 b 247 -251 346 -342 281 -312 b 272 -231 253 -239 261 -231 b 297 -256 286 -231 292 -242 b 385 -314 315 -292 347 -314 b 472 -210 443 -314 472 -261 b 393 -115 472 -157 443 -115 b 319 -146 368 -115 342 -125 l 299 -129 l 375 -21 b 46 358 174 -3 46 167 b 429 736 46 574 200 736 b 738 592 546 736 661 686 b 661 510 728 535 701 510 b 572 590 610 510 589 547 b 424 710 540 667 492 710 b 231 424 325 710 231 606 b 492 67 231 200 350 67 b 743 288 607 67 707 154 l 764 282 b 411 -22 718 99 582 -22 "},"ĉ":{"ha":789,"x_min":0,"x_max":0,"o":"m 411 -22 b 46 358 189 -22 46 156 b 429 736 46 574 200 736 b 738 592 546 736 661 686 b 661 510 728 535 701 510 b 572 590 610 510 589 547 b 424 710 540 667 492 710 b 231 424 325 710 231 606 b 492 67 231 200 350 67 b 743 288 607 67 707 154 l 764 282 b 411 -22 718 99 582 -22 m 382 1046 l 440 1046 l 599 783 l 572 783 l 411 933 l 250 783 l 224 783 "},"ċ":{"ha":789,"x_min":0,"x_max":0,"o":"m 411 -22 b 46 358 189 -22 46 156 b 429 736 46 574 200 736 b 738 592 546 736 661 686 b 661 510 728 535 701 510 b 572 590 610 510 589 547 b 424 710 540 667 492 710 b 231 424 325 710 231 606 b 492 67 231 200 350 67 b 743 288 607 67 707 154 l 764 282 b 411 -22 718 99 582 -22 m 411 1029 l 522 919 l 411 810 l 300 919 "},"d":{"ha":890,"x_min":0,"x_max":0,"o":"m 342 -25 b 46 356 171 -25 46 133 b 338 739 46 561 158 739 b 594 569 438 739 533 681 l 594 914 b 583 1097 594 988 592 1039 l 781 1097 b 769 914 772 1039 769 988 l 769 229 b 801 0 769 106 779 71 l 604 0 b 594 164 599 64 596 106 b 342 -25 554 58 465 -25 m 228 351 b 415 53 228 169 313 53 b 594 251 499 53 578 129 l 594 532 b 415 656 551 610 483 656 b 228 351 300 656 228 521 "},"ď":{"ha":1010,"x_min":0,"x_max":0,"o":"m 342 -25 b 46 356 171 -25 46 133 b 338 739 46 561 158 739 b 594 569 438 739 533 681 l 594 914 b 583 1097 594 988 592 1039 l 781 1097 b 769 914 772 1039 769 988 l 769 229 b 801 0 769 106 779 71 l 604 0 b 594 164 599 64 596 106 b 342 -25 554 58 465 -25 m 228 351 b 415 53 228 169 313 53 b 594 251 499 53 578 129 l 594 532 b 415 656 551 610 483 656 b 228 351 300 656 228 521 m 888 1093 l 1032 1093 l 869 831 l 835 831 "},"đ":{"ha":876,"x_min":0,"x_max":0,"o":"m 349 915 b 601 904 433 908 517 904 l 601 914 b 590 1097 601 988 599 1039 l 788 1097 b 776 914 779 1039 776 988 l 776 907 l 896 915 l 896 868 b 776 875 856 871 817 874 l 776 229 b 808 0 776 106 786 71 l 611 0 b 601 164 606 64 603 106 b 349 -25 561 58 472 -25 b 53 356 178 -25 53 133 b 344 739 53 561 165 739 b 601 569 444 739 540 681 l 601 878 b 349 868 517 878 433 875 l 349 915 m 235 351 b 422 53 235 169 319 53 b 601 251 506 53 585 129 l 601 532 b 422 656 558 610 490 656 b 235 351 307 656 235 521 "},"ð":{"ha":853,"x_min":0,"x_max":0,"o":"m 399 -24 b 46 364 179 -24 46 144 b 328 736 46 568 161 736 b 600 542 460 736 554 631 b 451 922 585 681 536 819 b 215 788 369 878 285 831 l 192 828 b 433 943 251 853 340 894 b 168 1082 367 1015 279 1067 l 169 1111 b 532 996 318 1104 439 1061 b 731 1111 606 1036 676 1076 l 754 1069 b 558 978 708 1051 638 1018 b 794 478 719 851 794 658 b 399 -24 794 229 653 -24 m 226 328 b 400 6 226 96 304 6 b 607 432 535 6 607 219 b 606 478 607 447 607 463 b 411 647 582 538 518 647 b 226 328 304 647 226 531 "},"e":{"ha":800,"x_min":0,"x_max":0,"o":"m 410 -24 b 46 363 217 -24 46 135 b 413 736 46 590 219 736 b 744 432 588 736 739 618 l 226 432 l 226 431 b 489 67 226 244 324 67 b 743 289 607 67 707 154 l 764 285 b 410 -24 714 88 569 -24 m 561 461 b 408 710 557 626 503 710 b 228 461 306 710 235 614 "},"é":{"ha":800,"x_min":0,"x_max":0,"o":"m 410 -24 b 46 363 217 -24 46 135 b 413 736 46 590 219 736 b 744 432 588 736 739 618 l 226 432 l 226 431 b 489 67 226 244 324 67 b 743 289 607 67 707 154 l 764 285 b 410 -24 714 88 569 -24 m 561 461 b 408 710 557 626 503 710 b 228 461 306 710 235 614 m 394 1039 l 558 1039 l 353 785 l 324 785 "},"ĕ":{"ha":800,"x_min":0,"x_max":0,"o":"m 410 -24 b 46 363 217 -24 46 135 b 413 736 46 590 219 736 b 744 432 588 736 739 618 l 226 432 l 226 431 b 489 67 226 244 324 67 b 743 289 607 67 707 154 l 764 285 b 410 -24 714 88 569 -24 m 561 461 b 408 710 557 626 503 710 b 228 461 306 710 235 614 m 281 1026 b 407 883 285 929 340 883 b 535 1026 475 883 531 929 l 563 1026 b 407 792 564 881 517 792 b 253 1026 299 792 251 881 "},"ě":{"ha":800,"x_min":0,"x_max":0,"o":"m 410 -24 b 46 363 217 -24 46 135 b 413 736 46 590 219 736 b 744 432 588 736 739 618 l 226 432 l 226 431 b 489 67 226 244 324 67 b 743 289 607 67 707 154 l 764 285 b 410 -24 714 88 569 -24 m 247 1047 l 408 897 l 569 1047 l 596 1047 l 438 785 l 379 785 l 221 1047 m 561 461 b 408 710 557 626 503 710 b 228 461 306 710 235 614 "},"ê":{"ha":800,"x_min":0,"x_max":0,"o":"m 410 -24 b 46 363 217 -24 46 135 b 413 736 46 590 219 736 b 744 432 588 736 739 618 l 226 432 l 226 431 b 489 67 226 244 324 67 b 743 289 607 67 707 154 l 764 285 b 410 -24 714 88 569 -24 m 379 1046 l 438 1046 l 596 783 l 569 783 l 408 933 l 247 783 l 221 783 m 561 461 b 408 710 557 626 503 710 b 228 461 306 710 235 614 "},"ë":{"ha":800,"x_min":0,"x_max":0,"o":"m 410 -24 b 46 363 217 -24 46 135 b 413 736 46 590 219 736 b 744 432 588 736 739 618 l 226 432 l 226 431 b 489 67 226 244 324 67 b 743 289 607 67 707 154 l 764 285 b 410 -24 714 88 569 -24 m 274 1011 l 372 913 l 274 815 l 175 913 m 561 461 b 408 710 557 626 503 710 b 228 461 306 710 235 614 m 543 1011 l 640 913 l 543 815 l 443 913 "},"ė":{"ha":800,"x_min":0,"x_max":0,"o":"m 410 -24 b 46 363 217 -24 46 135 b 413 736 46 590 219 736 b 744 432 588 736 739 618 l 226 432 l 226 431 b 489 67 226 244 324 67 b 743 289 607 67 707 154 l 764 285 b 410 -24 714 88 569 -24 m 561 461 b 408 710 557 626 503 710 b 228 461 306 710 235 614 m 408 1029 l 519 919 l 408 810 l 297 919 "},"è":{"ha":800,"x_min":0,"x_max":0,"o":"m 410 -24 b 46 363 217 -24 46 135 b 413 736 46 590 219 736 b 744 432 588 736 739 618 l 226 432 l 226 431 b 489 67 226 244 324 67 b 743 289 607 67 707 154 l 764 285 b 410 -24 714 88 569 -24 m 561 461 b 408 710 557 626 503 710 b 228 461 306 710 235 614 m 422 1039 l 493 785 l 463 785 l 258 1039 "},"ē":{"ha":800,"x_min":0,"x_max":0,"o":"m 410 -24 b 46 363 217 -24 46 135 b 413 736 46 590 219 736 b 744 432 588 736 739 618 l 226 432 l 226 431 b 489 67 226 244 324 67 b 743 289 607 67 707 154 l 764 285 b 410 -24 714 88 569 -24 m 189 938 b 626 938 371 911 446 911 l 626 851 b 189 851 446 879 371 879 m 561 461 b 408 710 557 626 503 710 b 228 461 306 710 235 614 "},"ę":{"ha":800,"x_min":0,"x_max":0,"o":"m 453 -337 b 308 -211 367 -337 308 -281 b 474 -17 308 -131 385 -62 b 408 -24 456 -19 433 -24 b 46 363 215 -24 46 138 b 413 736 46 590 219 736 b 744 432 588 736 739 618 l 226 432 l 226 429 b 489 67 226 244 322 67 b 743 289 607 67 707 154 l 764 285 b 588 28 732 150 656 68 b 410 -183 497 -26 410 -96 b 503 -290 410 -247 449 -290 b 567 -268 525 -290 547 -282 l 579 -283 b 453 -337 547 -318 501 -337 m 561 461 b 408 710 557 626 497 710 b 228 461 310 710 238 604 "},"ẽ":{"ha":800,"x_min":0,"x_max":0,"o":"m 410 -24 b 46 363 217 -24 46 135 b 413 736 46 590 219 736 b 744 432 588 736 739 618 l 226 432 l 226 431 b 489 67 226 244 324 67 b 743 289 607 67 707 154 l 764 285 b 410 -24 714 88 569 -24 m 561 461 b 408 710 557 626 503 710 b 228 461 306 710 235 614 m 236 800 b 304 1036 179 926 211 1036 b 518 890 410 1036 435 890 b 554 1032 572 890 589 954 l 579 1038 b 511 800 638 911 604 800 b 297 946 404 800 381 946 b 261 804 243 946 226 882 l 236 800 "},"ə":{"ha":800,"x_min":0,"x_max":0,"o":"m 390 738 b 754 351 583 738 754 579 b 388 -22 754 124 581 -22 b 56 282 213 -22 61 96 l 574 282 l 574 283 b 311 647 574 469 476 647 b 57 425 193 647 93 560 l 36 429 b 390 738 86 626 231 738 m 239 253 b 392 4 243 88 297 4 b 572 253 494 4 565 100 l 239 253 "},"f":{"ha":493,"x_min":0,"x_max":0,"o":"m 108 0 b 119 183 117 58 119 110 l 119 682 l 19 682 l 19 714 l 119 714 l 119 804 b 404 1111 119 1010 236 1111 b 671 1036 478 1111 567 1086 b 582 940 660 982 635 940 b 489 990 542 940 513 963 b 356 1079 442 1038 400 1079 b 264 896 285 1079 251 1001 l 294 714 l 485 714 l 485 682 l 294 682 l 294 183 b 306 0 294 110 297 58 l 108 0 "},"g":{"ha":863,"x_min":0,"x_max":0,"o":"m 375 -344 b 54 -168 204 -344 54 -285 b 85 -76 54 -137 64 -107 b 22 44 44 -49 22 -4 b 182 256 22 119 74 204 b 108 443 135 307 108 372 b 443 736 108 606 247 736 b 549 722 481 736 515 732 b 817 907 574 824 675 903 b 828 858 824 890 828 874 b 747 782 828 814 801 782 b 654 782 713 782 689 788 b 569 715 615 772 586 751 b 776 443 694 672 776 567 b 443 150 776 282 636 150 b 200 238 344 150 260 183 b 110 113 139 206 110 157 b 236 14 110 60 153 14 b 647 110 353 14 497 110 b 856 -57 785 110 856 39 b 375 -344 856 -240 599 -344 m 86 -156 b 322 -296 86 -244 189 -296 b 650 -106 479 -296 650 -222 b 549 -19 650 -56 618 -19 b 197 -108 444 -19 318 -108 b 106 -89 161 -108 131 -101 b 86 -156 93 -111 86 -133 m 278 444 b 443 179 278 292 333 179 b 607 443 550 179 607 292 b 443 708 607 596 550 708 b 278 444 333 708 278 596 "},"ğ":{"ha":863,"x_min":0,"x_max":0,"o":"m 375 -344 b 54 -168 204 -344 54 -285 b 85 -76 54 -137 64 -107 b 22 44 44 -49 22 -4 b 182 256 22 119 74 204 b 108 443 135 307 108 372 b 443 736 108 606 247 736 b 549 722 481 736 515 732 b 817 907 574 824 675 903 b 828 858 824 890 828 874 b 747 782 828 814 801 782 b 654 782 713 782 689 788 b 569 715 615 772 586 751 b 776 443 694 672 776 567 b 443 150 776 282 636 150 b 200 238 344 150 260 183 b 110 113 139 206 110 157 b 236 14 110 60 153 14 b 647 110 353 14 497 110 b 856 -57 785 110 856 39 b 375 -344 856 -240 599 -344 m 86 -156 b 322 -296 86 -244 189 -296 b 650 -106 479 -296 650 -222 b 549 -19 650 -56 618 -19 b 197 -108 444 -19 318 -108 b 106 -89 161 -108 131 -101 b 86 -156 93 -111 86 -133 m 278 444 b 443 179 278 292 333 179 b 607 443 550 179 607 292 b 443 708 607 596 550 708 b 278 444 333 708 278 596 m 317 1026 b 443 883 321 929 376 883 b 571 1026 511 883 567 929 l 599 1026 b 443 792 600 881 553 792 b 289 1026 335 792 288 881 "},"ǧ":{"ha":863,"x_min":0,"x_max":0,"o":"m 375 -344 b 54 -168 204 -344 54 -285 b 85 -76 54 -137 64 -107 b 22 44 44 -49 22 -4 b 182 256 22 119 74 204 b 108 443 135 307 108 372 b 443 736 108 606 247 736 b 549 722 481 736 515 732 b 817 907 574 824 675 903 b 828 858 824 890 828 874 b 747 782 828 814 801 782 b 654 782 713 782 689 788 b 569 715 615 772 586 751 b 776 443 694 672 776 567 b 443 150 776 282 636 150 b 200 238 344 150 260 183 b 110 113 139 206 110 157 b 236 14 110 60 153 14 b 647 110 353 14 497 110 b 856 -57 785 110 856 39 b 375 -344 856 -240 599 -344 m 86 -156 b 322 -296 86 -244 189 -296 b 650 -106 479 -296 650 -222 b 549 -19 650 -56 618 -19 b 197 -108 444 -19 318 -108 b 106 -89 161 -108 131 -101 b 86 -156 93 -111 86 -133 m 282 1047 l 443 897 l 604 1047 l 631 1047 l 472 785 l 414 785 l 256 1047 m 278 444 b 443 179 278 292 333 179 b 607 443 550 179 607 292 b 443 708 607 596 550 708 b 278 444 333 708 278 596 "},"ĝ":{"ha":863,"x_min":0,"x_max":0,"o":"m 375 -344 b 54 -168 204 -344 54 -285 b 85 -76 54 -137 64 -107 b 22 44 44 -49 22 -4 b 182 256 22 119 74 204 b 108 443 135 307 108 372 b 443 736 108 606 247 736 b 549 722 481 736 515 732 b 586 800 556 750 568 776 l 443 933 l 282 783 l 256 783 l 414 1046 l 472 1046 l 606 824 b 817 907 654 872 728 904 b 828 858 824 890 828 874 b 747 782 828 814 801 782 b 654 782 713 782 689 788 b 569 715 615 772 586 751 b 776 443 694 672 776 567 b 443 150 776 282 636 150 b 200 238 344 150 260 183 b 110 113 139 206 110 157 b 236 14 110 60 153 14 b 647 110 353 14 497 110 b 856 -57 785 110 856 39 b 375 -344 856 -240 599 -344 m 86 -156 b 322 -296 86 -244 189 -296 b 650 -106 479 -296 650 -222 b 549 -19 650 -56 618 -19 b 197 -108 444 -19 318 -108 b 106 -89 161 -108 131 -101 b 86 -156 93 -111 86 -133 m 278 444 b 443 179 278 292 333 179 b 607 443 550 179 607 292 b 443 708 607 596 550 708 b 278 444 333 708 278 596 "},"ģ":{"ha":863,"x_min":0,"x_max":0,"o":"m 375 -344 b 54 -168 204 -344 54 -285 b 85 -76 54 -137 64 -107 b 22 44 44 -49 22 -4 b 182 256 22 119 74 204 b 108 443 135 307 108 372 b 443 736 108 606 247 736 b 549 722 481 736 515 732 b 817 907 574 824 675 903 b 828 858 824 890 828 874 b 747 782 828 814 801 782 b 654 782 713 782 689 788 b 569 715 615 772 586 751 b 776 443 694 672 776 567 b 443 150 776 282 636 150 b 200 238 344 150 260 183 b 110 113 139 206 110 157 b 236 14 110 60 153 14 b 647 110 353 14 497 110 b 856 -57 785 110 856 39 b 375 -344 856 -240 599 -344 m 86 -156 b 322 -296 86 -244 189 -296 b 650 -106 479 -296 650 -222 b 549 -19 650 -56 618 -19 b 197 -108 444 -19 318 -108 b 106 -89 161 -108 131 -101 b 86 -156 93 -111 86 -133 m 278 444 b 443 179 278 292 333 179 b 607 443 550 179 607 292 b 443 708 607 596 550 708 b 278 444 333 708 278 596 m 343 860 b 504 1092 368 960 433 1044 l 522 1074 b 453 968 488 1042 464 1007 l 542 908 l 467 786 l 343 860 "},"ġ":{"ha":863,"x_min":0,"x_max":0,"o":"m 375 -344 b 54 -168 204 -344 54 -285 b 85 -76 54 -137 64 -107 b 22 44 44 -49 22 -4 b 182 256 22 119 74 204 b 108 443 135 307 108 372 b 443 736 108 606 247 736 b 549 722 481 736 515 732 b 817 907 574 824 675 903 b 828 858 824 890 828 874 b 747 782 828 814 801 782 b 654 782 713 782 689 788 b 569 715 615 772 586 751 b 776 443 694 672 776 567 b 443 150 776 282 636 150 b 200 238 344 150 260 183 b 110 113 139 206 110 157 b 236 14 110 60 153 14 b 647 110 353 14 497 110 b 856 -57 785 110 856 39 b 375 -344 856 -240 599 -344 m 86 -156 b 322 -296 86 -244 189 -296 b 650 -106 479 -296 650 -222 b 549 -19 650 -56 618 -19 b 197 -108 444 -19 318 -108 b 106 -89 161 -108 131 -101 b 86 -156 93 -111 86 -133 m 278 444 b 443 179 278 292 333 179 b 607 443 550 179 607 292 b 443 708 607 596 550 708 b 278 444 333 708 278 596 m 443 1029 l 554 919 l 443 810 l 332 919 "},"h":{"ha":833,"x_min":0,"x_max":0,"o":"m 560 0 b 571 183 568 58 571 110 l 571 501 b 456 658 571 607 529 658 b 274 532 388 658 318 610 l 274 183 b 285 0 274 110 276 58 l 89 0 b 100 183 97 58 100 110 l 100 914 b 89 1097 100 988 97 1039 l 285 1097 b 274 914 276 1039 274 988 l 274 572 b 547 736 335 671 440 736 b 744 501 669 736 744 653 l 744 183 b 756 0 744 110 747 58 l 560 0 "},"ħ":{"ha":840,"x_min":0,"x_max":0,"o":"m -15 915 b 107 908 25 913 67 910 l 107 914 b 96 1097 107 988 104 1039 l 292 1097 b 281 914 283 1039 281 988 l 281 904 b 531 915 364 904 449 908 l 531 868 b 281 879 447 875 365 879 l 281 572 b 554 736 342 671 447 736 b 751 501 676 736 751 653 l 751 183 b 763 0 751 110 754 58 l 567 0 b 578 183 575 58 578 110 l 578 501 b 463 658 578 607 536 658 b 281 532 394 658 325 610 l 281 183 b 292 0 281 110 283 58 l 96 0 b 107 183 104 58 107 110 l 107 875 b -15 868 67 874 25 871 l -15 915 "},"ĥ":{"ha":833,"x_min":0,"x_max":0,"o":"m 560 0 b 571 183 568 58 571 110 l 571 501 b 456 658 571 607 529 658 b 274 532 388 658 318 610 l 274 183 b 285 0 274 110 276 58 l 89 0 b 100 183 97 58 100 110 l 100 914 b 89 1097 100 988 97 1039 l 285 1097 b 274 914 276 1039 274 988 l 274 572 b 547 736 335 671 440 736 b 744 501 669 736 744 653 l 744 183 b 756 0 744 110 747 58 l 560 0 m 165 1404 l 224 1404 l 369 1164 l 339 1164 l 194 1296 l 50 1164 l 19 1164 "},"i":{"ha":378,"x_min":0,"x_max":0,"o":"m 90 0 b 101 183 99 58 101 110 l 101 531 b 90 714 101 604 99 656 l 288 714 b 276 531 279 656 276 604 l 276 183 b 288 0 276 110 279 58 l 90 0 m 189 1029 l 301 919 l 189 810 l 76 919 "},"ı":{"ha":374,"x_min":0,"x_max":0,"o":"m 89 0 b 100 183 97 58 100 110 l 100 531 b 89 714 100 604 97 656 l 285 714 b 274 531 276 656 274 604 l 274 183 b 285 0 274 110 276 58 l 89 0 "},"í":{"ha":374,"x_min":0,"x_max":0,"o":"m 89 0 b 100 183 97 58 100 110 l 100 531 b 89 714 100 604 97 656 l 285 714 b 274 531 276 656 274 604 l 274 183 b 285 0 274 110 276 58 l 89 0 m 156 1039 l 313 1039 l 149 785 l 118 785 "},"ĭ":{"ha":374,"x_min":0,"x_max":0,"o":"m 89 0 b 100 183 97 58 100 110 l 100 531 b 89 714 100 604 97 656 l 285 714 b 274 531 276 656 274 604 l 274 183 b 285 0 274 110 276 58 l 89 0 m 78 1026 b 186 883 82 938 122 883 b 297 1026 251 883 293 938 l 325 1026 b 186 792 325 889 293 792 b 50 1026 81 792 49 889 "},"î":{"ha":374,"x_min":0,"x_max":0,"o":"m 89 0 b 100 183 97 58 100 110 l 100 531 b 89 714 100 604 97 656 l 285 714 b 274 531 276 656 274 604 l 274 183 b 285 0 274 110 276 58 l 89 0 m 158 1046 l 217 1046 l 344 783 l 317 783 l 188 929 l 57 783 l 31 783 "},"ï":{"ha":374,"x_min":0,"x_max":0,"o":"m 89 0 b 100 183 97 58 100 110 l 100 531 b 89 714 100 604 97 656 l 285 714 b 274 531 276 656 274 604 l 274 183 b 285 0 274 110 276 58 l 89 0 m 74 1011 l 169 913 l 74 815 l -25 913 m 303 1011 l 401 913 l 303 815 l 208 913 "},"ì":{"ha":374,"x_min":0,"x_max":0,"o":"m 89 0 b 100 183 97 58 100 110 l 100 531 b 89 714 100 604 97 656 l 285 714 b 274 531 276 656 274 604 l 274 183 b 285 0 274 110 276 58 l 89 0 m 218 1039 l 254 785 l 224 785 l 61 1039 "},"ī":{"ha":374,"x_min":0,"x_max":0,"o":"m 89 0 b 100 183 97 58 100 110 l 100 531 b 89 714 100 604 97 656 l 285 714 b 274 531 276 656 274 604 l 274 183 b 285 0 274 110 276 58 l 89 0 m 17 936 b 360 936 171 910 204 910 l 360 853 b 17 853 204 881 171 881 "},"į":{"ha":371,"x_min":0,"x_max":0,"o":"m 174 -326 b 21 -190 79 -326 21 -264 b 182 0 21 -122 75 -47 l 88 0 b 99 183 96 58 99 113 l 99 531 b 88 714 99 604 96 656 l 282 714 b 271 531 274 656 271 604 l 271 183 b 282 0 271 113 274 58 l 236 0 b 119 -167 156 -40 119 -108 b 226 -278 119 -228 158 -278 b 293 -256 249 -278 272 -271 l 304 -271 b 174 -326 272 -307 226 -326 m 183 1028 l 296 918 l 183 808 l 71 918 "},"ĩ":{"ha":374,"x_min":0,"x_max":0,"o":"m 89 0 b 100 183 97 58 100 110 l 100 531 b 89 714 100 604 97 656 l 285 714 b 274 531 276 656 274 604 l 274 183 b 285 0 274 110 276 58 l 89 0 m 36 800 b 96 1036 -19 926 7 1036 b 283 889 197 1036 206 889 b 314 1032 338 889 346 958 l 338 1038 b 276 800 394 911 367 800 b 89 947 175 800 168 947 b 60 804 36 947 28 879 l 36 800 "},"ĳ":{"ha":756,"x_min":0,"x_max":0,"o":"m 90 0 b 101 183 99 58 101 110 l 101 531 b 90 714 101 604 99 656 l 288 714 b 276 531 279 656 276 604 l 276 183 b 288 0 276 110 279 58 l 90 0 m 189 1029 l 301 919 l 189 810 l 76 919 m 410 -318 b 479 -79 458 -274 479 -243 l 479 531 b 468 714 479 604 476 656 l 667 714 b 656 531 658 656 656 604 l 656 -79 b 419 -337 656 -208 556 -294 l 410 -318 m 565 1029 l 678 919 l 565 810 l 454 919 "},"j":{"ha":376,"x_min":0,"x_max":0,"o":"m 32 -318 b 101 -79 81 -274 101 -243 l 101 531 b 90 714 101 604 99 656 l 289 714 b 278 531 281 656 278 604 l 278 -79 b 42 -337 278 -208 178 -294 l 32 -318 m 188 1029 l 300 919 l 188 810 l 75 919 "},"ȷ":{"ha":374,"x_min":0,"x_max":0,"o":"m 32 -318 b 100 -79 79 -274 100 -243 l 100 531 b 89 714 100 604 97 656 l 286 714 b 275 531 278 656 275 604 l 275 -79 b 42 -337 275 -208 176 -294 l 32 -318 "},"ĵ":{"ha":374,"x_min":0,"x_max":0,"o":"m 32 -318 b 100 -79 79 -274 100 -243 l 100 531 b 89 714 100 604 97 656 l 286 714 b 275 531 278 656 275 604 l 275 -79 b 42 -337 275 -208 176 -294 l 32 -318 m 157 1046 l 215 1046 l 343 783 l 315 783 l 186 929 l 56 783 l 29 783 "},"k":{"ha":825,"x_min":0,"x_max":0,"o":"m 707 -7 b 474 174 575 -4 531 60 b 350 331 432 263 415 321 l 356 349 b 578 554 501 372 578 471 b 478 656 578 615 542 656 b 274 474 404 656 310 600 l 274 183 b 285 0 274 108 276 58 l 89 0 b 100 183 97 58 100 108 l 100 914 b 89 1097 100 989 97 1039 l 285 1097 b 274 914 276 1039 274 989 l 274 521 b 576 738 344 669 471 738 b 754 586 688 738 754 667 b 428 342 754 485 654 367 b 647 218 543 332 600 297 b 807 21 714 108 724 31 l 807 0 b 707 -7 746 -4 725 -7 "},"ķ":{"ha":825,"x_min":0,"x_max":0,"o":"m 707 -7 b 474 174 575 -4 531 60 b 350 331 432 263 415 321 l 356 349 b 578 554 501 372 578 471 b 478 656 578 615 542 656 b 274 474 404 656 310 600 l 274 183 b 285 0 274 108 276 58 l 89 0 b 100 183 97 58 100 108 l 100 914 b 89 1097 100 989 97 1039 l 285 1097 b 274 914 276 1039 274 989 l 274 521 b 576 738 344 669 471 738 b 754 586 688 738 754 667 b 428 342 754 485 654 367 b 647 218 543 332 600 297 b 807 21 714 108 724 31 l 807 0 b 707 -7 746 -4 725 -7 m 397 -54 l 522 -128 b 361 -360 497 -228 432 -312 l 342 -342 b 413 -236 378 -310 400 -275 l 324 -176 "},"l":{"ha":374,"x_min":0,"x_max":0,"o":"m 89 0 b 100 183 97 58 100 110 l 100 914 b 89 1097 100 988 97 1039 l 285 1097 b 274 914 276 1039 274 988 l 274 183 b 285 0 274 110 276 58 l 89 0 "},"ĺ":{"ha":374,"x_min":0,"x_max":0,"o":"m 89 0 b 100 183 97 58 100 110 l 100 914 b 89 1097 100 988 97 1039 l 285 1097 b 274 914 276 1039 274 988 l 274 183 b 285 0 274 110 276 58 l 89 0 m 157 1403 l 314 1403 l 150 1149 l 119 1149 "},"ľ":{"ha":507,"x_min":0,"x_max":0,"o":"m 89 0 b 100 183 97 58 100 110 l 100 914 b 89 1097 100 988 97 1039 l 285 1097 b 274 914 276 1039 274 988 l 274 183 b 285 0 274 110 276 58 l 89 0 m 393 1093 l 538 1093 l 375 831 l 340 831 "},"ļ":{"ha":374,"x_min":0,"x_max":0,"o":"m 89 0 b 100 183 97 58 100 110 l 100 914 b 89 1097 100 988 97 1039 l 285 1097 b 274 914 276 1039 274 988 l 274 183 b 285 0 274 110 276 58 l 89 0 m 163 -54 l 288 -128 b 126 -360 263 -228 197 -312 l 107 -342 b 178 -236 143 -310 165 -275 l 89 -176 "},"ŀ":{"ha":569,"x_min":0,"x_max":0,"o":"m 89 0 b 100 183 97 58 100 110 l 100 914 b 89 1097 100 988 97 1039 l 285 1097 b 274 914 276 1039 274 988 l 274 183 b 285 0 274 110 276 58 l 89 0 m 471 685 l 586 569 l 471 454 l 354 569 "},"ł":{"ha":443,"x_min":0,"x_max":0,"o":"m 8 318 b 140 461 46 357 93 407 l 140 914 b 129 1097 140 988 138 1039 l 325 1097 b 314 914 317 1039 314 988 l 314 671 b 408 800 351 718 383 763 l 446 771 b 314 626 408 733 363 682 l 314 183 b 325 0 314 110 317 58 l 129 0 b 140 183 138 58 140 110 l 140 415 b 46 289 104 369 72 325 l 8 318 "},"m":{"ha":1276,"x_min":0,"x_max":0,"o":"m 1003 0 b 1014 183 1011 58 1014 110 l 1014 501 b 901 658 1014 603 972 658 b 729 528 836 658 772 608 b 731 501 731 519 731 511 l 731 183 b 743 0 731 110 733 58 l 546 0 b 557 183 554 58 557 110 l 557 501 b 446 658 557 603 517 658 b 274 529 379 658 317 608 l 274 183 b 285 0 274 110 276 58 l 89 0 b 100 183 97 58 100 110 l 100 531 b 89 714 100 604 97 656 l 285 714 b 274 572 278 667 275 625 b 536 736 333 671 433 736 b 726 563 639 736 707 672 b 992 736 783 667 886 736 b 1188 501 1113 736 1188 649 l 1188 183 b 1199 0 1188 110 1190 58 l 1003 0 "},"n":{"ha":833,"x_min":0,"x_max":0,"o":"m 560 0 b 571 183 568 58 571 110 l 571 501 b 456 658 571 607 529 658 b 274 532 388 658 318 610 l 274 531 l 274 183 b 285 0 274 110 276 58 l 89 0 b 100 183 97 58 100 110 l 100 531 b 89 714 100 604 97 656 l 285 714 b 274 574 278 668 275 626 b 547 736 335 671 440 736 b 744 501 669 736 744 653 l 744 183 b 756 0 744 110 747 58 l 560 0 "},"ń":{"ha":833,"x_min":0,"x_max":0,"o":"m 560 0 b 571 183 568 58 571 110 l 571 501 b 456 658 571 607 529 658 b 274 532 388 658 318 610 l 274 531 l 274 183 b 285 0 274 110 276 58 l 89 0 b 100 183 97 58 100 110 l 100 531 b 89 714 100 604 97 656 l 285 714 b 274 574 278 668 275 626 b 547 736 335 671 440 736 b 744 501 669 736 744 653 l 744 183 b 756 0 744 110 747 58 l 560 0 m 433 1039 l 597 1039 l 392 785 l 363 785 "},"ň":{"ha":833,"x_min":0,"x_max":0,"o":"m 560 0 b 571 183 568 58 571 110 l 571 501 b 456 658 571 607 529 658 b 274 532 388 658 318 610 l 274 531 l 274 183 b 285 0 274 110 276 58 l 89 0 b 100 183 97 58 100 110 l 100 531 b 89 714 100 604 97 656 l 285 714 b 274 574 278 668 275 626 b 547 736 335 671 440 736 b 744 501 669 736 744 653 l 744 183 b 756 0 744 110 747 58 l 560 0 m 286 1047 l 447 897 l 608 1047 l 635 1047 l 476 785 l 418 785 l 260 1047 "},"ņ":{"ha":833,"x_min":0,"x_max":0,"o":"m 560 0 b 571 183 568 58 571 110 l 571 501 b 456 658 571 607 529 658 b 274 532 388 658 318 610 l 274 531 l 274 183 b 285 0 274 110 276 58 l 89 0 b 100 183 97 58 100 110 l 100 531 b 89 714 100 604 97 656 l 285 714 b 274 574 278 668 275 626 b 547 736 335 671 440 736 b 744 501 669 736 744 653 l 744 183 b 756 0 744 110 747 58 l 560 0 m 407 -54 l 532 -128 b 371 -360 507 -228 442 -312 l 351 -342 b 422 -236 388 -310 410 -275 l 333 -176 "},"ñ":{"ha":833,"x_min":0,"x_max":0,"o":"m 560 0 b 571 183 568 58 571 110 l 571 501 b 456 658 571 607 529 658 b 274 532 388 658 318 610 l 274 531 l 274 183 b 285 0 274 110 276 58 l 89 0 b 100 183 97 58 100 110 l 100 531 b 89 714 100 604 97 656 l 285 714 b 274 574 278 668 275 626 b 547 736 335 671 440 736 b 744 501 669 736 744 653 l 744 183 b 756 0 744 110 747 58 l 560 0 m 275 800 b 343 1036 218 926 250 1036 b 557 890 449 1036 474 890 b 593 1032 611 890 628 954 l 618 1038 b 550 800 676 911 643 800 b 336 946 443 800 419 946 b 300 804 282 946 265 882 l 275 800 "},"ŋ":{"ha":828,"x_min":0,"x_max":0,"o":"m 442 -318 b 567 29 543 -256 567 -169 l 567 528 b 456 661 567 614 525 661 b 274 542 389 661 318 610 l 274 531 l 274 183 b 285 0 274 110 276 58 l 89 0 b 100 183 97 58 100 110 l 100 531 b 89 714 100 604 97 656 l 285 714 b 274 576 278 668 275 628 b 550 736 347 679 446 736 b 742 521 669 736 742 661 l 742 29 b 450 -337 742 -167 646 -292 l 442 -318 "},"o":{"ha":872,"x_min":0,"x_max":0,"o":"m 436 -22 b 46 358 232 -22 46 115 b 436 736 46 600 232 736 b 828 358 640 736 828 600 b 436 -22 828 115 640 -22 m 239 358 b 436 6 239 118 308 6 b 633 358 563 6 635 118 b 436 710 633 599 564 710 b 239 358 308 710 238 599 "},"ó":{"ha":872,"x_min":0,"x_max":0,"o":"m 436 -22 b 46 358 232 -22 46 115 b 436 736 46 600 232 736 b 828 358 640 736 828 600 b 436 -22 828 115 640 -22 m 239 358 b 436 6 239 118 308 6 b 633 358 563 6 635 118 b 436 710 633 599 564 710 b 239 358 308 710 238 599 m 421 1039 l 585 1039 l 379 785 l 350 785 "},"ŏ":{"ha":872,"x_min":0,"x_max":0,"o":"m 436 -22 b 46 358 232 -22 46 115 b 436 736 46 600 232 736 b 828 358 640 736 828 600 b 436 -22 828 115 640 -22 m 239 358 b 436 6 239 118 308 6 b 633 358 563 6 635 118 b 436 710 633 599 564 710 b 239 358 308 710 238 599 m 308 1026 b 435 883 313 929 368 883 b 563 1026 503 883 558 929 l 590 1026 b 435 792 592 881 544 792 b 281 1026 326 792 279 881 "},"ô":{"ha":872,"x_min":0,"x_max":0,"o":"m 436 -22 b 46 358 232 -22 46 115 b 436 736 46 600 232 736 b 828 358 640 736 828 600 b 436 -22 828 115 640 -22 m 239 358 b 436 6 239 118 308 6 b 633 358 563 6 635 118 b 436 710 633 599 564 710 b 239 358 308 710 238 599 m 406 1046 l 464 1046 l 622 783 l 596 783 l 435 933 l 274 783 l 247 783 "},"ö":{"ha":872,"x_min":0,"x_max":0,"o":"m 436 -22 b 46 358 232 -22 46 115 b 436 736 46 600 232 736 b 828 358 640 736 828 600 b 436 -22 828 115 640 -22 m 301 1011 l 400 913 l 301 815 l 203 913 m 239 358 b 436 6 239 118 308 6 b 633 358 563 6 635 118 b 436 710 633 599 564 710 b 239 358 308 710 238 599 m 571 1011 l 668 913 l 571 815 l 471 913 "},"ò":{"ha":872,"x_min":0,"x_max":0,"o":"m 436 -22 b 46 358 232 -22 46 115 b 436 736 46 600 232 736 b 828 358 640 736 828 600 b 436 -22 828 115 640 -22 m 239 358 b 436 6 239 118 308 6 b 633 358 563 6 635 118 b 436 710 633 599 564 710 b 239 358 308 710 238 599 m 450 1039 l 521 785 l 490 785 l 286 1039 "},"ő":{"ha":872,"x_min":0,"x_max":0,"o":"m 436 -22 b 46 358 232 -22 46 115 b 436 736 46 600 232 736 b 828 358 640 736 828 600 b 436 -22 828 115 640 -22 m 239 358 b 436 6 239 118 308 6 b 633 358 563 6 635 118 b 436 710 633 599 564 710 b 239 358 308 710 238 599 m 386 1046 l 510 1046 l 349 785 l 319 785 m 571 1046 l 700 1046 l 521 785 l 492 785 "},"ō":{"ha":872,"x_min":0,"x_max":0,"o":"m 436 -22 b 46 358 232 -22 46 115 b 436 736 46 600 232 736 b 828 358 640 736 828 600 b 436 -22 828 115 640 -22 m 217 938 b 654 938 399 911 474 911 l 654 851 b 217 851 474 879 399 879 m 239 358 b 436 6 239 118 308 6 b 633 358 563 6 635 118 b 436 710 633 599 564 710 b 239 358 308 710 238 599 "},"ø":{"ha":872,"x_min":0,"x_max":0,"o":"m 144 -64 b 214 39 167 -32 190 3 b 46 358 115 101 46 211 b 436 736 46 600 232 736 b 632 690 506 736 572 721 b 697 801 656 731 678 767 l 736 776 l 664 671 b 828 358 761 608 828 503 b 436 -22 828 115 640 -22 b 249 19 369 -22 306 -8 b 185 -89 225 -19 204 -56 l 144 -64 m 239 358 b 274 126 239 260 250 183 b 586 617 375 281 490 461 b 436 710 553 679 503 710 b 239 358 308 710 238 599 m 290 90 b 436 6 324 33 374 6 b 633 358 563 6 635 118 b 603 579 633 451 624 524 b 290 90 501 425 386 244 "},"ǿ":{"ha":872,"x_min":0,"x_max":0,"o":"m 144 -64 b 214 39 167 -32 190 3 b 46 358 115 101 46 211 b 436 736 46 600 232 736 b 632 690 506 736 572 721 b 697 801 656 731 678 767 l 736 776 l 664 671 b 828 358 761 608 828 503 b 436 -22 828 115 640 -22 b 249 19 369 -22 306 -8 b 185 -89 225 -19 204 -56 l 144 -64 m 239 358 b 274 126 239 260 250 183 b 586 617 375 281 490 461 b 436 710 553 679 503 710 b 239 358 308 710 238 599 m 290 90 b 436 6 324 33 374 6 b 633 358 563 6 635 118 b 603 579 633 451 624 524 b 290 90 501 425 386 244 m 422 1039 l 586 1039 l 381 785 l 351 785 "},"õ":{"ha":872,"x_min":0,"x_max":0,"o":"m 436 -22 b 46 358 232 -22 46 115 b 436 736 46 600 232 736 b 828 358 640 736 828 600 b 436 -22 828 115 640 -22 m 239 358 b 436 6 239 118 308 6 b 633 358 563 6 635 118 b 436 710 633 599 564 710 b 239 358 308 710 238 599 m 264 800 b 332 1036 207 926 239 1036 b 546 890 438 1036 463 890 b 582 1032 600 890 617 954 l 607 1038 b 539 800 665 911 632 800 b 325 946 432 800 408 946 b 289 804 271 946 254 882 l 264 800 "},"œ":{"ha":1325,"x_min":0,"x_max":0,"o":"m 406 -24 b 46 358 213 -24 46 128 b 407 736 46 586 213 736 b 696 565 528 736 635 674 b 968 736 757 672 858 736 b 1268 432 1128 736 1264 613 l 785 432 l 785 428 b 1028 67 785 224 879 67 b 1265 289 1139 67 1231 154 l 1286 285 b 969 -24 1236 78 1108 -24 b 696 151 854 -24 749 49 b 406 -24 635 40 528 -24 m 232 358 b 413 6 232 124 296 6 b 593 358 529 6 593 125 b 413 708 593 592 531 708 b 232 358 296 708 232 592 m 1090 461 b 951 708 1088 618 1035 708 b 786 461 861 708 794 606 "},"p":{"ha":869,"x_min":0,"x_max":0,"o":"m 526 -24 b 272 160 400 -24 314 57 l 272 -143 b 283 -326 272 -217 275 -268 l 88 -326 b 99 -143 96 -268 99 -217 l 99 531 b 88 714 99 604 96 656 l 283 714 b 272 572 276 668 274 625 b 529 736 335 681 428 736 b 819 357 719 736 819 547 b 526 -24 819 167 719 -24 m 272 238 b 451 56 293 124 368 56 b 638 354 575 56 638 206 b 449 653 638 503 575 653 b 272 533 382 653 317 610 l 272 531 l 272 238 "},"þ":{"ha":860,"x_min":0,"x_max":0,"o":"m 88 -326 b 99 -143 96 -268 99 -217 l 99 914 b 88 1097 99 988 96 1039 l 283 1097 b 272 914 275 1039 272 988 l 272 581 b 524 739 333 683 426 739 b 810 360 697 739 810 564 b 511 -26 810 136 682 -26 b 272 136 415 -26 322 28 l 272 -143 b 283 -326 272 -217 275 -268 l 88 -326 m 272 196 b 440 49 303 100 369 49 b 621 346 536 49 621 140 b 439 656 621 538 550 656 b 272 542 375 656 314 614 l 272 196 "},"q":{"ha":867,"x_min":0,"x_max":0,"o":"m 338 -24 b 46 356 144 -24 46 167 b 335 736 46 546 146 736 b 597 561 439 736 536 678 l 656 714 l 769 714 l 769 -143 b 781 -326 769 -217 772 -268 l 583 -326 b 594 -143 592 -268 594 -217 l 594 165 b 338 -24 554 60 465 -24 m 228 354 b 414 56 228 206 290 56 b 594 254 500 56 578 131 l 594 529 b 415 653 551 608 483 653 b 228 354 290 653 228 503 "},"r":{"ha":603,"x_min":0,"x_max":0,"o":"m 89 0 b 100 183 97 58 100 110 l 100 531 b 89 714 100 604 97 656 l 285 714 b 274 531 276 656 274 604 l 274 493 b 575 733 331 668 432 733 b 589 681 583 715 589 697 b 499 593 589 635 556 593 b 274 446 413 593 317 579 l 274 183 b 285 0 274 110 276 58 l 89 0 "},"ŕ":{"ha":603,"x_min":0,"x_max":0,"o":"m 89 0 b 100 183 97 58 100 110 l 100 531 b 89 714 100 604 97 656 l 285 714 b 274 531 276 656 274 604 l 274 493 b 575 733 331 668 432 733 b 589 681 583 715 589 697 b 499 593 589 635 556 593 b 274 446 413 593 317 579 l 274 183 b 285 0 274 110 276 58 l 89 0 m 294 1039 l 458 1039 l 253 785 l 224 785 "},"ř":{"ha":603,"x_min":0,"x_max":0,"o":"m 89 0 b 100 183 97 58 100 110 l 100 531 b 89 714 100 604 97 656 l 285 714 b 274 531 276 656 274 604 l 274 493 b 575 733 331 668 432 733 b 589 681 583 715 589 697 b 499 593 589 635 556 593 b 274 446 413 593 317 579 l 274 183 b 285 0 274 110 276 58 l 89 0 m 147 1047 l 308 897 l 469 1047 l 496 1047 l 338 785 l 279 785 l 121 1047 "},"ŗ":{"ha":603,"x_min":0,"x_max":0,"o":"m 89 0 b 100 183 97 58 100 110 l 100 531 b 89 714 100 604 97 656 l 285 714 b 274 531 276 656 274 604 l 274 493 b 575 733 331 668 432 733 b 589 681 583 715 589 697 b 499 593 589 635 556 593 b 274 446 413 593 317 579 l 274 183 b 285 0 274 110 276 58 l 89 0 m 163 -54 l 288 -128 b 126 -360 263 -228 197 -312 l 107 -342 b 178 -236 143 -310 165 -275 l 89 -176 "},"s":{"ha":713,"x_min":0,"x_max":0,"o":"m 374 -24 b 31 201 226 -24 72 44 b 103 250 49 235 74 250 b 190 186 139 250 172 226 b 392 6 229 57 307 6 b 529 114 468 6 529 46 b 75 546 529 296 75 300 b 338 736 75 665 182 736 b 657 615 453 736 574 693 b 585 532 656 568 631 532 b 496 593 543 532 517 561 b 326 708 457 657 406 708 b 203 611 256 708 203 671 b 672 186 203 436 672 431 b 374 -24 672 50 526 -24 "},"ś":{"ha":713,"x_min":0,"x_max":0,"o":"m 374 -24 b 31 201 226 -24 72 44 b 103 250 49 235 74 250 b 190 186 139 250 172 226 b 392 6 229 57 307 6 b 529 114 468 6 529 46 b 75 546 529 296 75 300 b 338 736 75 665 182 736 b 657 615 453 736 574 693 b 585 532 656 568 631 532 b 496 593 543 532 517 561 b 326 708 457 657 406 708 b 203 611 256 708 203 671 b 672 186 203 436 672 431 b 374 -24 672 50 526 -24 m 339 1038 l 503 1038 l 297 783 l 268 783 "},"š":{"ha":713,"x_min":0,"x_max":0,"o":"m 374 -24 b 31 201 226 -24 72 44 b 103 250 49 235 74 250 b 190 186 139 250 172 226 b 392 6 229 57 307 6 b 529 114 468 6 529 46 b 75 546 529 296 75 300 b 338 736 75 665 182 736 b 657 615 453 736 574 693 b 585 532 656 568 631 532 b 496 593 543 532 517 561 b 326 708 457 657 406 708 b 203 611 256 708 203 671 b 672 186 203 436 672 431 b 374 -24 672 50 526 -24 m 192 1046 l 353 896 l 514 1046 l 540 1046 l 382 783 l 324 783 l 165 1046 "},"ş":{"ha":713,"x_min":0,"x_max":0,"o":"m 367 -24 l 308 -104 b 386 -86 333 -92 360 -86 b 532 -214 481 -86 532 -150 b 368 -347 532 -282 475 -347 b 201 -257 300 -347 235 -318 b 226 -236 207 -244 215 -236 b 251 -261 240 -236 246 -247 b 339 -319 269 -297 301 -319 b 426 -215 397 -319 426 -267 b 347 -121 426 -162 397 -121 b 274 -151 322 -121 296 -131 l 253 -135 l 333 -22 b 31 201 199 -10 68 58 b 103 250 49 235 74 250 b 190 186 139 250 172 226 b 392 6 229 57 307 6 b 529 114 468 6 529 46 b 75 546 529 296 75 300 b 338 736 75 665 182 736 b 657 615 453 736 574 693 b 585 532 656 568 631 532 b 496 593 543 532 517 561 b 326 708 457 657 406 708 b 203 611 256 708 203 671 b 672 186 203 436 672 431 b 374 -24 672 50 526 -24 "},"ŝ":{"ha":713,"x_min":0,"x_max":0,"o":"m 374 -24 b 31 201 226 -24 72 44 b 103 250 49 235 74 250 b 190 186 139 250 172 226 b 392 6 229 57 307 6 b 529 114 468 6 529 46 b 75 546 529 296 75 300 b 338 736 75 665 182 736 b 657 615 453 736 574 693 b 585 532 656 568 631 532 b 496 593 543 532 517 561 b 326 708 457 657 406 708 b 203 611 256 708 203 671 b 672 186 203 436 672 431 b 374 -24 672 50 526 -24 m 324 1044 l 382 1044 l 540 782 l 514 782 l 353 932 l 192 782 l 165 782 "},"ș":{"ha":713,"x_min":0,"x_max":0,"o":"m 374 -24 b 31 201 226 -24 72 44 b 103 250 49 235 74 250 b 190 186 139 250 172 226 b 392 6 229 57 307 6 b 529 114 468 6 529 46 b 75 546 529 296 75 300 b 338 736 75 665 182 736 b 657 615 453 736 574 693 b 585 532 656 568 631 532 b 496 593 543 532 517 561 b 326 708 457 657 406 708 b 203 611 256 708 203 671 b 672 186 203 436 672 431 b 374 -24 672 50 526 -24 m 342 -60 l 467 -133 b 306 -365 442 -233 376 -318 l 286 -347 b 357 -242 322 -315 344 -281 l 268 -182 "},"ß":{"ha":975,"x_min":0,"x_max":0,"o":"m 624 -24 b 339 221 486 -24 372 57 b 410 261 354 247 381 261 b 481 182 447 261 469 238 b 632 6 500 57 564 6 b 782 197 711 6 782 74 b 431 576 782 358 661 525 l 431 615 b 631 882 547 650 631 758 b 458 1085 631 1013 544 1085 b 274 839 368 1085 274 1007 l 274 183 b 285 0 274 108 276 57 l 89 0 b 100 183 97 57 100 108 l 100 699 b 481 1115 100 994 297 1115 b 792 876 640 1115 792 1024 b 544 635 792 769 713 671 b 938 272 813 578 938 432 b 624 -24 938 99 792 -24 "},"t":{"ha":600,"x_min":0,"x_max":0,"o":"m 321 -24 b 121 203 196 -24 121 63 l 121 682 l 11 682 l 11 714 l 28 714 b 158 999 151 714 158 806 l 333 999 b 135 714 333 874 292 751 l 531 714 l 531 682 l 294 682 l 294 221 b 397 67 294 125 333 67 b 546 293 476 67 528 146 l 568 293 b 321 -24 544 86 460 -24 "},"ŧ":{"ha":619,"x_min":0,"x_max":0,"o":"m 332 -24 b 132 203 207 -24 132 63 l 132 446 b 11 439 93 444 53 442 l 11 488 b 132 479 53 483 93 481 l 132 682 l 22 682 l 22 714 l 39 714 b 169 999 163 714 169 806 l 344 999 b 146 714 344 874 303 751 l 542 714 l 542 682 l 306 682 l 306 475 b 531 488 379 476 453 481 l 531 439 b 306 450 451 444 378 449 l 306 221 b 408 67 306 125 344 67 b 557 293 488 67 539 146 l 579 293 b 332 -24 556 86 471 -24 "},"ť":{"ha":640,"x_min":0,"x_max":0,"o":"m 321 -24 b 121 203 196 -24 121 63 l 121 682 l 11 682 l 11 714 l 28 714 b 158 999 151 714 158 806 l 333 999 b 135 714 333 874 292 751 l 531 714 l 531 682 l 294 682 l 294 221 b 397 67 294 125 333 67 b 546 293 476 67 528 146 l 568 293 b 321 -24 544 86 460 -24 m 454 1099 l 599 1099 l 436 836 l 401 836 "},"ţ":{"ha":600,"x_min":0,"x_max":0,"o":"m 307 -24 l 251 -99 b 329 -81 276 -86 303 -81 b 475 -208 424 -81 475 -144 b 311 -342 475 -276 418 -342 b 144 -251 243 -342 178 -312 b 169 -231 150 -239 158 -231 b 194 -256 183 -231 189 -242 b 282 -314 213 -292 244 -314 b 369 -210 340 -314 369 -261 b 290 -115 369 -157 340 -115 b 217 -146 265 -115 239 -125 l 196 -129 l 274 -19 b 121 203 178 0 121 81 l 121 682 l 11 682 l 11 714 l 28 714 b 158 999 151 714 158 806 l 333 999 b 135 714 333 874 292 751 l 531 714 l 531 682 l 294 682 l 294 221 b 397 67 294 125 333 67 b 546 293 476 67 528 146 l 568 293 b 321 -24 544 86 460 -24 "},"ț":{"ha":600,"x_min":0,"x_max":0,"o":"m 321 -24 b 121 203 196 -24 121 63 l 121 682 l 11 682 l 11 714 l 28 714 b 158 999 151 714 158 806 l 333 999 b 135 714 333 874 292 751 l 531 714 l 531 682 l 294 682 l 294 221 b 397 67 294 125 333 67 b 546 293 476 67 528 146 l 568 293 b 321 -24 544 86 460 -24 m 286 -54 l 411 -128 b 250 -360 386 -228 321 -312 l 231 -342 b 301 -236 267 -310 289 -275 l 213 -176 "},"u":{"ha":832,"x_min":0,"x_max":0,"o":"m 286 -22 b 89 214 164 -22 89 61 l 89 531 b 78 714 89 604 86 656 l 275 714 b 264 531 267 656 264 604 l 264 213 b 378 56 264 108 304 56 b 558 181 446 56 514 104 l 558 183 l 558 531 b 547 714 558 604 556 656 l 743 714 b 732 531 735 656 732 604 l 732 183 b 743 0 732 110 735 58 l 547 0 b 558 138 554 46 557 88 b 286 -22 497 42 393 -22 "},"ú":{"ha":832,"x_min":0,"x_max":0,"o":"m 286 -22 b 89 214 164 -22 89 61 l 89 531 b 78 714 89 604 86 656 l 275 714 b 264 531 267 656 264 604 l 264 213 b 378 56 264 108 304 56 b 558 181 446 56 514 104 l 558 183 l 558 531 b 547 714 558 604 556 656 l 743 714 b 732 531 735 656 732 604 l 732 183 b 743 0 732 110 735 58 l 547 0 b 558 138 554 46 557 88 b 286 -22 497 42 393 -22 m 404 1039 l 568 1039 l 363 785 l 333 785 "},"ŭ":{"ha":832,"x_min":0,"x_max":0,"o":"m 286 -22 b 89 214 164 -22 89 61 l 89 531 b 78 714 89 604 86 656 l 275 714 b 264 531 267 656 264 604 l 264 213 b 378 56 264 108 304 56 b 558 181 446 56 514 104 l 558 183 l 558 531 b 547 714 558 604 556 656 l 743 714 b 732 531 735 656 732 604 l 732 183 b 743 0 732 110 735 58 l 547 0 b 558 138 554 46 557 88 b 286 -22 497 42 393 -22 m 292 1026 b 418 883 296 929 351 883 b 546 1026 486 883 542 929 l 574 1026 b 418 792 575 881 528 792 b 264 1026 310 792 263 881 "},"û":{"ha":832,"x_min":0,"x_max":0,"o":"m 286 -22 b 89 214 164 -22 89 61 l 89 531 b 78 714 89 604 86 656 l 275 714 b 264 531 267 656 264 604 l 264 213 b 378 56 264 108 304 56 b 558 181 446 56 514 104 l 558 183 l 558 531 b 547 714 558 604 556 656 l 743 714 b 732 531 735 656 732 604 l 732 183 b 743 0 732 110 735 58 l 547 0 b 558 138 554 46 557 88 b 286 -22 497 42 393 -22 m 389 1046 l 447 1046 l 606 783 l 579 783 l 418 933 l 257 783 l 231 783 "},"ü":{"ha":832,"x_min":0,"x_max":0,"o":"m 286 -22 b 89 214 164 -22 89 61 l 89 531 b 78 714 89 604 86 656 l 275 714 b 264 531 267 656 264 604 l 264 213 b 378 56 264 108 304 56 b 558 181 446 56 514 104 l 558 183 l 558 531 b 547 714 558 604 556 656 l 743 714 b 732 531 735 656 732 604 l 732 183 b 743 0 732 110 735 58 l 547 0 b 558 138 554 46 557 88 b 286 -22 497 42 393 -22 m 285 1011 l 383 913 l 285 815 l 186 913 m 554 1011 l 651 913 l 554 815 l 454 913 "},"ù":{"ha":832,"x_min":0,"x_max":0,"o":"m 286 -22 b 89 214 164 -22 89 61 l 89 531 b 78 714 89 604 86 656 l 275 714 b 264 531 267 656 264 604 l 264 213 b 378 56 264 108 304 56 b 558 181 446 56 514 104 l 558 183 l 558 531 b 547 714 558 604 556 656 l 743 714 b 732 531 735 656 732 604 l 732 183 b 743 0 732 110 735 58 l 547 0 b 558 138 554 46 557 88 b 286 -22 497 42 393 -22 m 433 1039 l 504 785 l 474 785 l 269 1039 "},"ű":{"ha":832,"x_min":0,"x_max":0,"o":"m 286 -22 b 89 214 164 -22 89 61 l 89 531 b 78 714 89 604 86 656 l 275 714 b 264 531 267 656 264 604 l 264 213 b 378 56 264 108 304 56 b 558 181 446 56 514 104 l 558 183 l 558 531 b 547 714 558 604 556 656 l 743 714 b 732 531 735 656 732 604 l 732 183 b 743 0 732 110 735 58 l 547 0 b 558 138 554 46 557 88 b 286 -22 497 42 393 -22 m 369 1046 l 493 1046 l 332 785 l 303 785 m 554 1046 l 683 1046 l 504 785 l 475 785 "},"ū":{"ha":832,"x_min":0,"x_max":0,"o":"m 286 -22 b 89 214 164 -22 89 61 l 89 531 b 78 714 89 604 86 656 l 275 714 b 264 531 267 656 264 604 l 264 213 b 378 56 264 108 304 56 b 558 181 446 56 514 104 l 558 183 l 558 531 b 547 714 558 604 556 656 l 743 714 b 732 531 735 656 732 604 l 732 183 b 743 0 732 110 735 58 l 547 0 b 558 138 554 46 557 88 b 286 -22 497 42 393 -22 m 200 938 b 638 938 382 911 457 911 l 638 851 b 200 851 457 879 382 879 "},"ų":{"ha":829,"x_min":0,"x_max":0,"o":"m 540 -325 b 400 -201 451 -325 400 -269 b 560 -7 400 -136 449 -60 b 554 133 558 29 556 78 b 286 -22 493 39 390 -22 b 89 214 164 -22 89 61 l 89 531 b 78 714 89 604 86 656 l 275 714 b 264 531 267 656 264 604 l 264 213 b 378 56 264 108 304 56 b 554 174 444 56 510 101 l 554 183 l 554 531 b 543 714 554 604 551 656 l 739 714 b 728 531 731 656 728 604 l 728 183 b 739 0 728 110 731 58 l 611 -11 b 500 -174 535 -49 500 -115 b 593 -278 500 -235 535 -278 b 658 -256 614 -278 636 -271 l 669 -271 b 540 -325 638 -307 593 -325 "},"ů":{"ha":832,"x_min":0,"x_max":0,"o":"m 286 -22 b 89 214 164 -22 89 61 l 89 531 b 78 714 89 604 86 656 l 275 714 b 264 531 267 656 264 604 l 264 213 b 378 56 264 108 304 56 b 558 181 446 56 514 104 l 558 183 l 558 531 b 547 714 558 604 556 656 l 743 714 b 732 531 735 656 732 604 l 732 183 b 743 0 732 110 735 58 l 547 0 b 558 138 554 46 557 88 b 286 -22 497 42 393 -22 m 282 910 b 419 1046 282 985 343 1046 b 556 910 494 1046 556 985 b 419 774 556 835 494 774 b 282 910 343 774 282 835 m 317 910 b 419 806 317 854 363 806 b 521 910 475 806 521 854 b 419 1014 521 965 475 1014 b 317 910 363 1014 317 965 "},"ũ":{"ha":832,"x_min":0,"x_max":0,"o":"m 286 -22 b 89 214 164 -22 89 61 l 89 531 b 78 714 89 604 86 656 l 275 714 b 264 531 267 656 264 604 l 264 213 b 378 56 264 108 304 56 b 558 181 446 56 514 104 l 558 183 l 558 531 b 547 714 558 604 556 656 l 743 714 b 732 531 735 656 732 604 l 732 183 b 743 0 732 110 735 58 l 547 0 b 558 138 554 46 557 88 b 286 -22 497 42 393 -22 m 247 800 b 315 1036 190 926 222 1036 b 529 890 421 1036 446 890 b 565 1032 583 890 600 954 l 590 1038 b 522 800 649 911 615 800 b 308 946 415 800 392 946 b 272 804 254 946 238 882 l 247 800 "},"v":{"ha":676,"x_min":0,"x_max":0,"o":"m 97 508 b 15 714 68 596 39 667 l 247 714 b 293 461 244 622 264 551 l 418 103 l 524 365 b 561 510 547 422 561 472 b 503 667 561 583 503 601 b 572 732 503 710 535 732 b 643 704 597 732 622 724 b 639 629 643 683 643 657 b 589 444 635 578 621 524 l 499 215 b 436 0 458 125 436 63 l 271 0 l 97 508 "},"w":{"ha":1067,"x_min":0,"x_max":0,"o":"m 525 508 b 460 714 503 596 478 663 l 689 714 b 717 461 679 622 694 549 l 817 103 l 915 365 b 953 510 938 422 953 471 b 896 667 953 583 896 601 b 964 732 896 710 928 732 b 1035 704 989 732 1014 724 b 1031 629 1035 683 1035 657 b 981 444 1026 578 1011 526 l 896 215 b 832 0 857 125 832 63 l 663 0 l 544 436 l 465 192 b 431 0 440 111 425 51 l 261 0 l 96 508 b 15 714 68 596 36 663 l 249 714 b 292 461 243 622 264 549 l 410 114 l 529 492 l 525 508 "},"ẃ":{"ha":1067,"x_min":0,"x_max":0,"o":"m 525 508 b 460 714 503 596 478 663 l 689 714 b 717 461 679 622 694 549 l 817 103 l 915 365 b 953 510 938 422 953 471 b 896 667 953 583 896 601 b 964 732 896 710 928 732 b 1035 704 989 732 1014 724 b 1031 629 1035 683 1035 657 b 981 444 1026 578 1011 526 l 896 215 b 832 0 857 125 832 63 l 663 0 l 544 436 l 465 192 b 431 0 440 111 425 51 l 261 0 l 96 508 b 15 714 68 596 36 663 l 249 714 b 292 461 243 622 264 549 l 410 114 l 529 492 l 525 508 m 564 1039 l 728 1039 l 522 785 l 493 785 "},"ŵ":{"ha":1067,"x_min":0,"x_max":0,"o":"m 525 508 b 460 714 503 596 478 663 l 689 714 b 717 461 679 622 694 549 l 817 103 l 915 365 b 953 510 938 422 953 471 b 896 667 953 583 896 601 b 964 732 896 710 928 732 b 1035 704 989 732 1014 724 b 1031 629 1035 683 1035 657 b 981 444 1026 578 1011 526 l 896 215 b 832 0 857 125 832 63 l 663 0 l 544 436 l 465 192 b 431 0 440 111 425 51 l 261 0 l 96 508 b 15 714 68 596 36 663 l 249 714 b 292 461 243 622 264 549 l 410 114 l 529 492 l 525 508 m 549 1046 l 607 1046 l 765 783 l 739 783 l 578 933 l 417 783 l 390 783 "},"ẅ":{"ha":1067,"x_min":0,"x_max":0,"o":"m 525 508 b 460 714 503 596 478 663 l 689 714 b 717 461 679 622 694 549 l 817 103 l 915 365 b 953 510 938 422 953 471 b 896 667 953 583 896 601 b 964 732 896 710 928 732 b 1035 704 989 732 1014 724 b 1031 629 1035 683 1035 657 b 981 444 1026 578 1011 526 l 896 215 b 832 0 857 125 832 63 l 663 0 l 544 436 l 465 192 b 431 0 440 111 425 51 l 261 0 l 96 508 b 15 714 68 596 36 663 l 249 714 b 292 461 243 622 264 549 l 410 114 l 529 492 l 525 508 m 444 1011 l 543 913 l 444 815 l 346 913 m 714 1011 l 811 913 l 714 815 l 614 913 "},"ẁ":{"ha":1067,"x_min":0,"x_max":0,"o":"m 525 508 b 460 714 503 596 478 663 l 689 714 b 717 461 679 622 694 549 l 817 103 l 915 365 b 953 510 938 422 953 471 b 896 667 953 583 896 601 b 964 732 896 710 928 732 b 1035 704 989 732 1014 724 b 1031 629 1035 683 1035 657 b 981 444 1026 578 1011 526 l 896 215 b 832 0 857 125 832 63 l 663 0 l 544 436 l 465 192 b 431 0 440 111 425 51 l 261 0 l 96 508 b 15 714 68 596 36 663 l 249 714 b 292 461 243 622 264 549 l 410 114 l 529 492 l 525 508 m 593 1039 l 664 785 l 633 785 l 429 1039 "},"x":{"ha":717,"x_min":0,"x_max":0,"o":"m 461 0 b 375 175 451 51 417 113 l 292 301 l 224 211 b 164 0 171 139 169 57 l 18 0 b 196 222 38 21 113 110 l 275 326 l 139 535 b 14 714 76 629 49 669 l 254 714 b 346 529 264 663 297 604 l 440 385 l 457 401 b 549 543 515 457 549 499 b 510 664 549 590 510 615 b 579 732 510 710 542 732 b 649 704 604 732 629 724 b 640 625 650 676 647 650 b 475 388 619 531 546 447 l 453 365 l 576 179 b 701 0 635 90 665 44 l 461 0 "},"y":{"ha":675,"x_min":0,"x_max":0,"o":"m 99 -343 b -100 -269 18 -343 -47 -311 b -17 -182 -90 -210 -60 -182 b 169 -281 65 -182 78 -281 b 342 -89 238 -281 288 -231 l 378 0 l 267 0 l 94 508 b 14 714 67 596 36 667 l 246 714 b 292 461 242 625 268 536 l 418 101 l 521 365 b 560 511 546 426 560 474 b 501 665 560 582 501 604 b 571 732 501 708 532 732 b 642 704 596 732 621 724 b 639 635 643 665 642 653 b 586 444 635 575 619 531 l 364 -110 b 99 -343 296 -281 225 -343 "},"ý":{"ha":675,"x_min":0,"x_max":0,"o":"m 99 -343 b -100 -269 18 -343 -47 -311 b -17 -182 -90 -210 -60 -182 b 169 -281 65 -182 78 -281 b 342 -89 238 -281 288 -231 l 378 0 l 267 0 l 94 508 b 14 714 67 596 36 667 l 246 714 b 292 461 242 625 268 536 l 418 101 l 521 365 b 560 511 546 426 560 474 b 501 665 560 582 501 604 b 571 732 501 708 532 732 b 642 704 596 732 621 724 b 639 635 643 665 642 653 b 586 444 635 575 619 531 l 364 -110 b 99 -343 296 -281 225 -343 m 342 1039 l 506 1039 l 300 785 l 271 785 "},"ŷ":{"ha":675,"x_min":0,"x_max":0,"o":"m 99 -343 b -100 -269 18 -343 -47 -311 b -17 -182 -90 -210 -60 -182 b 169 -281 65 -182 78 -281 b 342 -89 238 -281 288 -231 l 378 0 l 267 0 l 94 508 b 14 714 67 596 36 667 l 246 714 b 292 461 242 625 268 536 l 418 101 l 521 365 b 560 511 546 426 560 474 b 501 665 560 582 501 604 b 571 732 501 708 532 732 b 642 704 596 732 621 724 b 639 635 643 665 642 653 b 586 444 635 575 619 531 l 364 -110 b 99 -343 296 -281 225 -343 m 326 1046 l 385 1046 l 543 783 l 517 783 l 356 933 l 194 783 l 168 783 "},"ÿ":{"ha":675,"x_min":0,"x_max":0,"o":"m 99 -343 b -100 -269 18 -343 -47 -311 b -17 -182 -90 -210 -60 -182 b 169 -281 65 -182 78 -281 b 342 -89 238 -281 288 -231 l 378 0 l 267 0 l 94 508 b 14 714 67 596 36 667 l 246 714 b 292 461 242 625 268 536 l 418 101 l 521 365 b 560 511 546 426 560 474 b 501 665 560 582 501 604 b 571 732 501 708 532 732 b 642 704 596 732 621 724 b 639 635 643 665 642 653 b 586 444 635 575 619 531 l 364 -110 b 99 -343 296 -281 225 -343 m 221 1011 l 319 913 l 221 815 l 122 913 m 490 1011 l 588 913 l 490 815 l 390 913 "},"ỳ":{"ha":675,"x_min":0,"x_max":0,"o":"m 99 -343 b -100 -269 18 -343 -47 -311 b -17 -182 -90 -210 -60 -182 b 169 -281 65 -182 78 -281 b 342 -89 238 -281 288 -231 l 378 0 l 267 0 l 94 508 b 14 714 67 596 36 667 l 246 714 b 292 461 242 625 268 536 l 418 101 l 521 365 b 560 511 546 426 560 474 b 501 665 560 582 501 604 b 571 732 501 708 532 732 b 642 704 596 732 621 724 b 639 635 643 665 642 653 b 586 444 635 575 619 531 l 364 -110 b 99 -343 296 -281 225 -343 m 369 1039 l 440 785 l 410 785 l 206 1039 "},"ỹ":{"ha":675,"x_min":0,"x_max":0,"o":"m 99 -343 b -100 -269 18 -343 -47 -311 b -17 -182 -90 -210 -60 -182 b 169 -281 65 -182 78 -281 b 342 -89 238 -281 288 -231 l 378 0 l 267 0 l 94 508 b 14 714 67 596 36 667 l 246 714 b 292 461 242 625 268 536 l 418 101 l 521 365 b 560 511 546 426 560 474 b 501 665 560 582 501 604 b 571 732 501 708 532 732 b 642 704 596 732 621 724 b 639 635 643 665 642 653 b 586 444 635 575 619 531 l 364 -110 b 99 -343 296 -281 225 -343 m 183 800 b 251 1036 126 926 158 1036 b 465 890 357 1036 382 890 b 501 1032 519 890 536 954 l 526 1038 b 458 800 585 911 551 800 b 244 946 351 800 328 946 b 208 804 190 946 174 882 l 183 800 "},"z":{"ha":707,"x_min":0,"x_max":0,"o":"m 21 28 l 444 688 l 425 688 b 90 628 328 688 210 669 l 36 714 l 653 714 l 653 686 l 243 26 l 314 26 b 686 118 439 26 586 61 l 640 0 l 21 0 "},"ź":{"ha":707,"x_min":0,"x_max":0,"o":"m 21 28 l 444 688 l 425 688 b 90 628 328 688 210 669 l 36 714 l 653 714 l 653 686 l 243 26 l 314 26 b 686 118 439 26 586 61 l 640 0 l 21 0 m 367 1029 l 531 1029 l 325 775 l 296 775 "},"ž":{"ha":707,"x_min":0,"x_max":0,"o":"m 21 28 l 444 688 l 425 688 b 90 628 328 688 210 669 l 36 714 l 653 714 l 653 686 l 243 26 l 314 26 b 686 118 439 26 586 61 l 640 0 l 21 0 m 219 1038 l 381 888 l 542 1038 l 568 1038 l 410 775 l 351 775 l 193 1038 "},"ż":{"ha":707,"x_min":0,"x_max":0,"o":"m 21 28 l 444 688 l 425 688 b 90 628 328 688 210 669 l 36 714 l 653 714 l 653 686 l 243 26 l 314 26 b 686 118 439 26 586 61 l 640 0 l 21 0 m 381 1019 l 492 910 l 381 800 l 269 910 "},"ﬁ":{"ha":831,"x_min":0,"x_max":0,"o":"m 108 0 b 119 183 117 58 119 110 l 119 682 l 19 682 l 19 714 l 119 714 l 119 804 b 433 1111 119 1010 251 1111 b 725 1036 522 1111 624 1081 b 629 928 714 982 692 928 b 533 989 583 928 554 957 b 392 1079 482 1050 440 1079 b 281 861 304 1079 265 990 l 294 714 l 735 714 b 724 531 726 656 724 604 l 724 183 b 735 0 724 110 726 58 l 538 0 b 549 183 546 58 549 110 l 549 682 l 294 682 l 294 183 b 306 0 294 110 297 58 l 108 0 "},"ﬂ":{"ha":824,"x_min":0,"x_max":0,"o":"m 108 0 b 119 183 117 58 119 110 l 119 682 l 19 682 l 19 714 l 119 714 l 119 793 b 443 1111 119 1003 274 1111 b 724 1011 539 1111 642 1078 l 724 183 b 735 0 724 110 726 58 l 538 0 b 549 183 546 58 549 110 l 549 929 b 379 1074 497 1024 436 1074 b 272 847 301 1074 250 996 l 294 714 l 464 714 l 464 682 l 294 682 l 294 183 b 306 0 294 110 297 58 l 108 0 "},"ª":{"ha":681,"x_min":0,"x_max":0,"o":"m 221 471 b 53 622 133 471 53 531 b 258 808 53 728 158 772 b 450 978 367 849 450 883 b 356 1076 450 1040 410 1076 b 218 975 285 1076 244 1010 b 140 922 197 939 171 922 b 79 1011 96 922 71 956 b 350 1099 158 1061 258 1099 b 589 890 490 1099 589 1025 l 589 649 b 601 490 589 589 593 542 l 450 490 b 446 660 447 538 447 606 b 221 471 407 531 308 471 m 54 408 b 335 396 149 401 232 396 b 614 408 438 396 521 401 l 614 351 b 335 365 521 360 438 365 b 54 351 232 365 149 360 m 194 657 b 289 547 194 586 233 547 b 444 761 363 547 444 618 l 444 890 b 310 799 419 847 371 829 b 194 657 244 768 194 732 "},"º":{"ha":722,"x_min":0,"x_max":0,"o":"m 361 478 b 49 789 197 478 49 589 b 361 1099 49 986 197 1099 b 674 789 524 1099 674 986 b 361 478 674 589 524 478 m 81 408 b 363 396 176 401 258 396 b 642 408 465 396 547 401 l 642 351 b 363 365 547 360 465 365 b 81 351 258 365 176 360 m 208 789 b 361 503 208 599 263 503 b 514 789 460 503 514 599 b 361 1075 514 979 460 1075 b 208 789 263 1075 208 978 "},"⁄":{"ha":194,"x_min":0,"x_max":0,"o":"m -278 -200 b 426 1131 -69 163 246 757 l 472 1114 b -232 -215 265 751 -50 158 l -278 -200 "},"½":{"ha":1008,"x_min":0,"x_max":0,"o":"m 136 500 b 143 638 142 547 143 588 l 143 1006 b 36 911 122 964 74 928 l 33 956 b 160 1083 83 964 142 1010 l 268 1083 l 268 638 b 275 500 268 588 268 547 l 136 500 m 53 -200 b 757 1131 261 163 576 757 l 803 1114 b 99 -215 596 751 281 158 l 53 -200 m 561 433 b 761 596 561 531 649 596 b 983 425 860 596 983 543 b 601 69 983 224 647 201 l 749 69 b 986 101 847 69 942 83 l 974 0 l 564 0 l 564 18 b 851 439 564 218 851 232 b 733 571 851 533 792 571 b 628 479 667 571 628 528 b 671 399 628 449 644 421 b 693 357 683 388 693 375 b 631 303 693 329 671 311 b 561 433 583 342 561 386 "},"¼":{"ha":1008,"x_min":0,"x_max":0,"o":"m 100 500 b 107 638 106 547 107 588 l 107 1006 b 0 911 86 964 38 928 l -3 956 b 124 1083 47 964 106 1010 l 232 1083 l 232 638 b 239 500 232 588 232 547 l 100 500 m 33 -200 b 738 1131 242 163 557 757 l 783 1114 b 79 -215 576 751 261 158 l 33 -200 m 503 158 b 786 583 604 300 703 440 l 910 583 b 900 408 900 514 900 467 l 900 221 b 996 244 936 226 968 235 l 976 143 l 900 143 l 900 136 b 907 0 900 88 901 49 l 782 0 b 789 136 789 49 789 88 l 789 143 l 503 143 m 572 218 b 771 213 624 215 693 213 l 789 213 l 789 547 b 572 218 722 433 653 329 "},"¾":{"ha":1199,"x_min":0,"x_max":0,"o":"m 254 483 b 19 697 117 483 28 560 l 42 697 b 207 532 53 589 121 532 b 344 668 290 532 344 594 b 200 800 344 746 285 800 b 161 797 188 800 172 800 l 160 819 l 183 825 b 335 985 285 844 335 918 b 250 1074 335 1038 297 1074 b 143 982 206 1074 167 1035 b 88 936 131 954 114 936 b 32 981 57 936 42 957 b 250 1096 82 1058 165 1096 b 433 965 343 1096 433 1051 b 269 825 433 903 381 851 b 478 663 382 825 478 764 b 254 483 478 565 394 483 m 224 -200 b 928 1131 432 163 747 757 l 974 1114 b 269 -215 767 751 451 158 l 224 -200 m 693 158 b 976 583 794 300 893 440 l 1100 583 b 1090 408 1090 514 1090 467 l 1090 221 b 1186 244 1126 226 1158 235 l 1167 143 l 1090 143 l 1090 136 b 1097 0 1090 88 1092 49 l 972 0 b 979 136 979 49 979 88 l 979 143 l 693 143 m 763 218 b 961 213 814 215 883 213 l 979 213 l 979 547 b 763 218 913 433 843 329 "},"⅛":{"ha":1026,"x_min":0,"x_max":0,"o":"m 100 500 b 107 638 106 547 107 588 l 107 1006 b 0 911 86 964 38 928 l -3 956 b 124 1083 47 964 106 1010 l 232 1083 l 232 638 b 239 500 232 588 232 547 l 100 500 m 33 -200 b 738 1131 242 163 557 757 l 783 1114 b 79 -215 576 751 261 158 l 33 -200 m 529 156 b 656 311 529 224 581 278 b 574 443 608 342 574 381 b 763 596 574 544 665 596 b 958 454 864 596 958 538 b 856 331 958 400 918 356 b 1000 160 931 296 1000 253 b 764 -17 1000 39 882 -17 b 529 156 628 -17 529 60 m 622 150 b 763 6 622 63 682 6 b 893 121 839 6 893 56 b 690 292 893 215 782 244 b 622 150 653 260 622 211 m 664 485 b 818 347 664 413 739 381 b 874 458 849 374 874 413 b 765 574 874 524 831 574 b 664 485 710 574 664 539 "},"⅜":{"ha":1217,"x_min":0,"x_max":0,"o":"m 254 483 b 19 697 117 483 28 560 l 42 697 b 207 532 53 589 121 532 b 344 668 290 532 344 594 b 200 800 344 746 285 800 b 161 797 188 800 172 800 l 160 819 l 183 825 b 335 985 285 844 335 918 b 250 1074 335 1038 297 1074 b 143 982 206 1074 167 1035 b 88 936 131 954 114 936 b 32 981 57 936 42 957 b 250 1096 82 1058 165 1096 b 433 965 343 1096 433 1051 b 269 825 433 903 381 851 b 478 663 382 825 478 764 b 254 483 478 565 394 483 m 224 -200 b 928 1131 432 163 747 757 l 974 1114 b 269 -215 767 751 451 158 l 224 -200 m 719 156 b 846 311 719 224 771 278 b 764 443 799 342 764 381 b 953 596 764 544 856 596 b 1149 454 1054 596 1149 538 b 1046 331 1149 400 1108 356 b 1190 160 1121 296 1190 253 b 954 -17 1190 39 1072 -17 b 719 156 818 -17 719 60 m 813 150 b 953 6 813 63 872 6 b 1083 121 1029 6 1083 56 b 881 292 1083 215 972 244 b 813 150 843 260 813 211 m 854 485 b 1008 347 854 413 929 381 b 1064 458 1039 374 1064 413 b 956 574 1064 524 1021 574 b 854 485 900 574 854 539 "},"⅝":{"ha":1185,"x_min":0,"x_max":0,"o":"m 243 483 b 11 710 128 483 21 550 l 33 710 b 201 532 46 585 125 532 b 344 685 283 532 344 593 b 194 842 344 786 275 842 b 63 789 151 842 103 825 l 42 799 l 96 1083 l 446 1083 l 408 990 b 203 1021 344 1011 275 1021 l 107 1021 l 68 821 b 247 883 119 864 185 883 b 474 688 382 883 474 800 b 243 483 474 582 392 483 m 207 -200 b 911 1131 415 163 731 757 l 957 1114 b 253 -215 750 751 435 158 l 207 -200 m 704 156 b 831 311 704 224 756 278 b 749 443 783 342 749 381 b 938 596 749 544 840 596 b 1133 454 1039 596 1133 538 b 1031 331 1133 400 1093 356 b 1175 160 1106 296 1175 253 b 939 -17 1175 39 1057 -17 b 704 156 803 -17 704 60 m 797 150 b 938 6 797 63 857 6 b 1068 121 1014 6 1068 56 b 865 292 1068 215 957 244 b 797 150 828 260 797 211 m 839 485 b 993 347 839 413 914 381 b 1049 458 1024 374 1049 413 b 940 574 1049 524 1006 574 b 839 485 885 574 839 539 "},"⅞":{"ha":1122,"x_min":0,"x_max":0,"o":"m 82 500 b 332 968 108 554 164 661 l 358 1013 l 215 1013 b 21 985 153 1013 89 1006 l 0 1083 l 406 1083 l 406 1061 l 360 965 b 222 500 257 722 222 589 l 82 500 m 129 -200 b 833 1131 338 163 653 757 l 879 1114 b 175 -215 672 751 357 158 l 129 -200 m 625 156 b 751 311 625 224 676 278 b 669 443 704 342 669 381 b 858 596 669 544 761 596 b 1054 454 960 596 1054 538 b 951 331 1054 400 1014 356 b 1096 160 1026 296 1096 253 b 860 -17 1096 39 978 -17 b 625 156 724 -17 625 60 m 718 150 b 858 6 718 63 778 6 b 989 121 935 6 989 56 b 786 292 989 215 878 244 b 718 150 749 260 718 211 m 760 485 b 914 347 760 413 835 381 b 969 458 944 374 969 413 b 861 574 969 524 926 574 b 760 485 806 574 760 539 "},".":{"ha":319,"x_min":0,"x_max":0,"o":"m 42 74 l 160 190 l 276 74 l 160 -43 "},",":{"ha":314,"x_min":0,"x_max":0,"o":"m 44 -187 b 153 -39 101 -153 147 -89 l 47 31 l 133 168 l 272 83 b 60 -212 250 -24 167 -156 l 44 -187 "},":":{"ha":296,"x_min":0,"x_max":0,"o":"m 42 615 l 160 732 l 276 615 l 160 499 m 160 190 l 276 74 l 160 -43 l 42 74 "},";":{"ha":319,"x_min":0,"x_max":0,"o":"m 49 615 l 167 732 l 283 615 l 167 499 m 50 -187 b 158 -39 107 -153 153 -89 l 53 31 l 139 168 l 278 83 b 65 -212 256 -24 172 -156 l 50 -187 "},"…":{"ha":875,"x_min":0,"x_max":0,"o":"m 319 74 l 438 190 l 554 74 l 438 -43 m 160 190 l 276 74 l 160 -43 l 42 74 m 717 190 l 833 74 l 717 -43 l 599 74 "},"!":{"ha":317,"x_min":0,"x_max":0,"o":"m 142 306 b 72 1024 132 629 96 858 b 160 1100 82 1076 121 1100 b 246 1024 199 1100 239 1076 b 174 306 222 858 185 629 l 142 306 m 161 186 l 271 76 l 161 -33 l 50 76 "},"¡":{"ha":324,"x_min":0,"x_max":0,"o":"m 169 433 b 242 -285 181 110 218 -119 b 156 -361 235 -337 194 -361 b 68 -285 117 -361 78 -337 b 138 433 92 -119 128 110 l 169 433 m 157 772 l 267 663 l 157 554 l 46 663 "},"?":{"ha":703,"x_min":0,"x_max":0,"o":"m 346 274 b 189 422 267 274 189 328 b 529 919 189 622 529 708 b 385 1071 529 1017 461 1071 b 188 869 286 1071 221 983 b 88 779 169 819 142 779 b -1 838 49 779 19 801 b 375 1100 78 1010 224 1100 b 672 853 532 1100 672 1006 b 314 388 672 606 314 542 b 382 319 314 344 342 319 b 494 444 438 319 486 374 l 518 443 b 346 274 510 328 426 274 m 338 179 l 447 69 l 338 -40 l 228 69 "},"¿":{"ha":703,"x_min":0,"x_max":0,"o":"m 357 439 b 514 290 436 439 514 385 b 174 -207 514 90 174 4 b 318 -358 174 -304 242 -358 b 515 -157 417 -358 482 -271 b 615 -67 533 -107 561 -67 b 704 -125 654 -67 683 -89 b 328 -387 625 -297 479 -387 b 31 -140 171 -387 31 -293 b 389 325 31 107 389 171 b 321 393 389 368 361 393 b 208 268 265 393 217 339 l 185 269 b 357 439 193 385 276 439 m 365 753 l 476 643 l 365 533 l 256 643 "},"•":{"ha":392,"x_min":0,"x_max":0,"o":"m 26 429 l 196 599 l 365 429 l 196 260 "},"*":{"ha":640,"x_min":0,"x_max":0,"o":"m 103 604 b 108 668 88 619 86 646 b 285 803 144 689 199 721 b 72 775 171 800 111 785 b 24 815 39 778 24 794 b 72 856 24 836 42 853 b 285 828 111 846 171 831 b 108 964 199 910 144 942 b 103 1026 86 985 88 1011 b 167 1022 119 1042 143 1042 b 308 840 189 986 222 931 b 279 1065 306 961 289 1025 b 321 1113 281 1096 300 1113 b 361 1065 342 1113 361 1096 b 332 840 351 1025 335 961 b 475 1022 418 931 453 986 b 538 1026 499 1043 522 1042 b 533 964 553 1011 554 985 b 357 828 497 942 442 910 b 569 856 471 831 531 846 b 617 815 600 853 617 836 b 569 775 617 794 601 778 b 357 803 531 785 471 800 b 533 668 442 721 497 689 b 538 604 554 646 553 619 b 475 608 522 589 497 589 b 332 790 453 644 418 700 b 361 565 335 669 351 606 b 321 518 361 535 342 518 b 279 565 300 518 281 535 b 308 790 289 606 306 669 b 167 608 222 700 189 644 b 103 604 143 588 118 589 "},"#":{"ha":1194,"x_min":0,"x_max":0,"o":"m 719 271 l 339 271 l 243 -75 l 207 -75 l 303 271 l 4 271 l 4 303 l 313 303 l 415 675 l 113 675 l 113 707 l 424 707 l 518 1044 l 554 1044 l 460 707 l 840 707 l 935 1044 l 971 1044 l 876 707 l 1189 707 l 1189 675 l 868 675 l 765 303 l 1081 303 l 1081 271 l 756 271 l 660 -75 l 624 -75 m 729 303 l 832 675 l 451 675 l 349 303 "},"/":{"ha":725,"x_min":0,"x_max":0,"o":"m 3 -99 b 667 1185 199 249 499 825 l 722 1163 b 58 -121 526 815 226 239 l 3 -99 "},"\\":{"ha":725,"x_min":0,"x_max":0,"o":"m 675 -121 b 11 1163 507 239 207 815 l 67 1185 b 731 -99 235 825 535 249 l 675 -121 "},"-":{"ha":706,"x_min":0,"x_max":0,"o":"m 94 381 b 354 368 190 374 271 368 b 611 381 436 368 517 374 l 611 322 b 354 336 517 332 436 336 b 94 322 271 336 190 332 l 94 381 "},"–":{"ha":844,"x_min":0,"x_max":0,"o":"m 94 381 b 750 381 285 365 561 365 l 750 322 b 94 322 561 340 285 340 l 94 381 "},"—":{"ha":1129,"x_min":0,"x_max":0,"o":"m 94 381 b 1035 381 285 365 846 365 l 1035 322 b 94 322 846 340 285 340 l 94 381 "},"_":{"ha":1174,"x_min":0,"x_max":0,"o":"m 94 -44 b 1079 -44 338 -61 838 -61 l 1079 -101 b 94 -101 838 -85 338 -85 l 94 -44 "},"(":{"ha":531,"x_min":0,"x_max":0,"o":"m 472 -243 b 51 415 201 -94 51 156 b 472 1072 51 674 201 924 l 488 1049 b 208 415 304 907 208 661 b 488 -219 208 168 304 -78 l 472 -243 "},")":{"ha":515,"x_min":0,"x_max":0,"o":"m 28 -219 b 307 415 211 -78 307 168 b 28 1049 307 661 211 907 l 43 1072 b 464 415 314 924 464 674 b 43 -243 464 156 314 -94 l 28 -219 "},"{":{"ha":408,"x_min":0,"x_max":0,"o":"m 393 -226 b 113 -35 229 -226 113 -156 b 193 250 113 68 193 144 b 35 415 193 360 121 413 l 35 440 b 193 607 121 444 193 497 b 113 892 193 713 113 789 b 393 1083 113 1013 229 1083 l 393 1056 b 249 913 314 1056 249 999 b 332 632 249 815 332 738 b 154 428 332 518 247 453 b 332 225 247 404 332 339 b 249 -56 332 119 249 42 b 393 -199 249 -142 314 -199 l 393 -226 "},"}":{"ha":435,"x_min":0,"x_max":0,"o":"m 42 -199 b 186 -56 121 -199 186 -142 b 103 225 186 42 103 119 b 281 428 103 339 188 404 b 103 632 188 453 103 518 b 186 913 103 738 186 815 b 42 1056 186 999 121 1056 l 42 1083 b 322 892 206 1083 322 1013 b 242 607 322 789 242 713 b 400 440 242 497 314 444 l 400 415 b 242 250 314 413 242 360 b 322 -35 242 144 322 68 b 42 -226 322 -156 206 -226 l 42 -199 "},"[":{"ha":467,"x_min":0,"x_max":0,"o":"m 118 -219 l 118 1076 l 438 1076 l 438 1049 l 264 1049 l 264 -192 l 438 -192 l 438 -219 "},"]":{"ha":465,"x_min":0,"x_max":0,"o":"m 28 -192 l 201 -192 l 201 1049 l 28 1049 l 28 1076 l 347 1076 l 347 -219 l 28 -219 "},"‚":{"ha":367,"x_min":0,"x_max":0,"o":"m 78 -250 b 186 -103 135 -217 181 -151 l 81 -33 l 168 104 l 306 19 b 93 -276 283 -87 200 -219 l 78 -250 "},"„":{"ha":610,"x_min":0,"x_max":0,"o":"m 78 -250 b 186 -103 135 -217 181 -151 l 81 -33 l 168 104 l 306 19 b 93 -276 283 -87 200 -219 l 78 -250 m 321 -250 b 429 -103 378 -217 424 -151 l 324 -33 l 411 104 l 549 19 b 336 -276 526 -87 443 -219 l 321 -250 "},"“":{"ha":607,"x_min":0,"x_max":0,"o":"m 306 844 b 518 1140 326 951 410 1085 l 532 1115 b 424 967 475 1081 429 1017 l 529 897 l 443 760 l 306 844 m 63 844 b 275 1140 83 951 167 1085 l 289 1115 b 181 967 232 1081 186 1017 l 286 897 l 200 760 l 63 844 "},"”":{"ha":610,"x_min":0,"x_max":0,"o":"m 78 786 b 186 933 135 819 181 885 l 81 1003 l 168 1140 l 306 1056 b 93 760 283 949 200 817 l 78 786 m 321 786 b 429 933 378 819 424 885 l 324 1003 l 411 1140 l 549 1056 b 336 760 526 949 443 817 l 321 786 "},"‘":{"ha":365,"x_min":0,"x_max":0,"o":"m 63 844 b 275 1140 83 951 167 1085 l 289 1115 b 181 967 232 1081 186 1017 l 286 897 l 200 760 l 63 844 "},"’":{"ha":367,"x_min":0,"x_max":0,"o":"m 78 786 b 186 933 135 819 181 885 l 81 1003 l 168 1140 l 306 1056 b 93 760 283 949 200 817 l 78 786 "},"«":{"ha":614,"x_min":0,"x_max":0,"o":"m 392 367 l 558 115 l 535 94 l 251 367 l 535 639 l 560 618 m 315 639 l 340 618 l 172 367 l 339 115 l 315 94 l 32 367 "},"»":{"ha":614,"x_min":0,"x_max":0,"o":"m 79 639 l 363 367 l 79 94 l 56 115 l 222 367 l 54 618 m 299 639 l 582 367 l 299 94 l 275 115 l 442 367 l 274 618 "},"‹":{"ha":394,"x_min":0,"x_max":0,"o":"m 172 367 l 339 115 l 315 94 l 32 367 l 315 639 l 340 618 "},"›":{"ha":394,"x_min":0,"x_max":0,"o":"m 79 639 l 363 367 l 79 94 l 56 115 l 222 367 l 54 618 "},"\"":{"ha":529,"x_min":0,"x_max":0,"o":"m 149 724 b 86 1111 131 864 110 979 l 239 1111 b 175 724 217 979 196 864 l 149 724 m 443 1111 b 379 724 421 979 400 864 l 353 724 b 290 1111 335 864 314 979 "},"'":{"ha":325,"x_min":0,"x_max":0,"o":"m 149 724 b 86 1111 131 864 110 979 l 239 1111 b 175 724 217 979 196 864 l 149 724 "},"☜":{"ha":1457,"x_min":0,"x_max":0,"o":"m 699 164 b 629 232 650 164 624 196 b 575 218 608 221 596 218 b 506 272 529 218 506 243 b 518 308 506 283 508 296 b 494 304 511 304 503 304 b 429 363 451 304 429 332 b 478 463 429 419 458 431 b 175 467 394 468 301 467 b 64 522 100 467 64 486 b 214 582 64 568 119 578 b 553 618 326 588 419 594 b 418 764 457 651 418 721 b 464 807 418 785 432 807 b 544 778 493 807 517 793 b 650 736 586 757 606 746 b 724 726 672 732 710 728 b 885 694 786 721 825 718 b 971 649 907 686 947 663 b 1100 588 1014 621 1053 596 l 1096 589 b 1225 656 1103 607 1150 656 b 1306 643 1256 656 1290 649 b 1357 425 1336 599 1357 507 b 1247 226 1357 324 1326 226 b 1174 247 1213 226 1197 247 l 1115 247 b 1092 269 1110 250 1096 261 b 1006 238 1065 264 1042 254 b 817 182 946 206 882 182 b 775 186 803 182 790 185 b 699 164 751 172 722 164 m 83 522 b 182 483 83 496 106 483 b 560 465 346 483 424 485 b 624 492 585 471 604 481 b 689 513 642 504 661 513 b 749 457 733 513 749 483 b 747 444 749 453 749 449 b 861 415 788 424 826 415 b 981 475 917 415 960 436 l 990 469 b 861 403 968 426 919 403 b 743 432 825 403 783 411 b 731 413 740 425 736 418 b 794 356 771 413 794 396 b 789 325 794 343 792 333 b 856 285 815 339 856 326 b 794 197 856 258 836 226 b 996 251 871 197 926 214 b 1131 292 1057 279 1074 286 b 1161 443 1151 350 1161 400 b 1132 569 1161 486 1151 526 b 961 633 1064 569 1015 601 b 876 679 925 656 896 671 b 722 711 822 703 760 707 b 646 721 688 714 665 717 b 554 754 611 726 583 739 b 439 779 524 738 472 747 b 436 764 438 776 436 771 b 600 621 436 717 483 644 b 750 538 690 601 735 563 l 740 532 b 588 607 721 567 658 599 b 214 567 413 578 397 578 b 83 522 122 561 83 556 m 447 788 b 543 760 475 758 515 750 b 536 764 542 761 539 763 b 464 790 504 782 482 790 b 447 788 457 790 451 789 m 449 363 b 494 321 449 338 463 321 b 568 344 517 321 539 331 b 636 374 607 364 628 372 b 728 443 674 383 718 408 b 646 435 701 425 664 407 b 683 497 628 464 658 483 b 632 478 664 496 650 488 b 553 446 614 467 589 454 b 449 363 481 432 449 397 m 469 431 b 529 457 483 440 503 449 l 490 461 b 469 431 485 449 476 439 m 524 275 b 575 233 524 253 542 233 b 683 275 611 233 635 253 b 761 319 732 296 751 308 b 772 338 765 324 769 331 b 689 329 746 318 708 300 b 728 392 671 357 701 376 l 735 396 l 732 396 b 711 393 725 396 719 394 b 640 357 690 376 663 364 b 549 317 618 351 557 322 b 524 275 532 306 524 290 m 642 238 b 699 179 636 206 660 179 b 783 210 725 179 758 192 b 832 265 807 225 825 246 b 772 254 817 247 790 233 b 790 313 753 275 774 297 b 771 303 783 310 778 307 b 692 261 756 292 728 278 b 642 238 672 253 658 247 m 656 439 b 729 457 668 417 706 438 b 701 496 729 476 722 492 l 689 489 b 656 439 663 475 642 458 m 699 333 b 775 351 711 311 750 332 l 775 356 b 750 393 775 375 765 388 b 732 383 746 392 740 389 b 699 333 707 368 686 353 m 781 261 b 836 286 799 243 825 264 b 806 315 835 307 822 317 b 781 261 785 294 764 278 m 1106 272 b 1119 258 1108 268 1115 261 b 1125 274 1121 264 1124 269 b 1106 272 1118 274 1111 272 m 1108 586 b 1125 585 1114 586 1119 585 b 1118 599 1122 589 1121 594 b 1108 586 1113 593 1110 590 m 1135 603 b 1181 443 1165 547 1181 497 b 1142 263 1181 392 1167 335 l 1172 263 b 1249 242 1207 263 1218 242 b 1338 425 1310 242 1338 326 b 1292 631 1338 504 1319 588 b 1225 640 1276 635 1249 640 b 1135 603 1178 640 1151 621 "},"☝":{"ha":781,"x_min":0,"x_max":0,"o":"m 76 424 b 144 493 76 472 108 499 b 131 547 133 514 131 526 b 185 617 131 593 156 617 b 221 604 196 617 208 614 b 217 628 217 611 217 619 b 275 693 217 671 244 693 b 375 644 332 693 343 664 b 379 947 381 728 379 821 b 435 1058 379 1022 399 1058 b 494 908 481 1058 490 1003 b 531 569 500 796 507 703 b 676 704 564 665 633 704 b 719 658 697 704 719 690 b 690 578 719 629 706 606 b 649 472 669 536 658 517 b 639 399 644 450 640 413 b 607 238 633 336 631 297 b 561 151 599 215 575 175 b 500 22 533 108 508 69 l 501 26 b 568 -103 519 19 568 -28 b 556 -183 568 -133 561 -168 b 338 -235 511 -214 419 -235 b 139 -125 236 -235 139 -204 b 160 -51 139 -90 160 -75 l 160 7 b 182 31 163 13 174 26 b 150 117 176 57 167 81 b 94 306 118 176 94 240 b 99 347 94 319 97 332 b 76 424 85 371 76 400 m 92 424 b 122 339 92 397 104 364 b 178 290 138 315 158 297 b 167 350 160 306 146 332 b 225 332 188 369 210 349 b 215 351 222 339 219 344 b 174 431 204 367 190 394 b 150 481 165 450 160 464 b 92 424 118 486 92 463 m 110 328 b 164 126 110 251 126 196 b 204 -8 192 65 199 49 b 356 -39 263 -29 313 -39 b 482 -10 399 -39 439 -29 b 546 161 482 58 514 107 b 592 246 568 197 583 226 b 624 400 615 300 619 363 b 633 476 626 435 629 457 b 667 568 639 511 651 539 b 692 683 650 599 660 650 b 676 686 689 685 683 686 b 533 522 629 686 557 639 b 450 372 514 432 475 388 l 444 382 b 519 535 479 401 511 464 b 479 908 490 710 490 725 b 435 1039 474 1000 468 1039 b 396 940 408 1039 396 1017 b 378 563 396 776 397 699 b 404 499 383 538 393 518 b 425 433 417 481 425 461 b 369 374 425 389 396 374 b 357 375 365 374 361 374 b 328 261 336 335 328 296 b 388 142 328 206 349 163 l 382 132 b 315 261 339 154 315 203 b 344 379 315 297 324 339 b 325 392 338 382 331 386 b 268 328 325 351 308 328 b 238 333 256 328 246 331 b 197 267 251 307 239 267 b 110 328 171 267 139 286 m 146 547 b 188 439 146 511 165 488 b 232 361 208 390 221 371 b 250 350 236 357 243 353 b 242 433 231 376 213 414 b 304 394 269 451 289 421 l 308 388 l 308 390 b 306 411 308 397 307 403 b 269 482 289 432 276 460 b 229 574 264 504 235 565 b 188 599 218 590 203 599 b 146 547 165 599 146 581 m 154 -126 b 338 -215 154 -187 239 -215 b 543 -169 417 -215 500 -197 b 553 -103 547 -154 553 -126 b 515 -12 553 -56 533 -29 b 356 -58 460 -43 410 -58 b 175 -19 304 -58 247 -44 l 175 -50 b 154 -126 175 -85 154 -96 m 171 3 b 186 -3 176 1 182 -1 b 185 17 186 4 185 11 b 171 3 181 14 174 7 m 174 342 b 199 286 156 324 176 297 b 228 317 219 288 229 300 b 174 342 207 338 190 358 m 233 628 b 257 554 233 606 243 583 b 286 486 276 515 285 494 b 356 394 296 449 321 404 b 347 476 338 421 319 458 b 410 439 376 494 396 464 b 390 490 408 458 400 472 b 358 569 379 508 367 533 b 275 674 344 642 310 674 b 233 628 250 674 233 660 m 246 424 b 264 347 224 411 244 372 l 268 347 b 306 372 288 347 300 357 b 296 390 304 376 301 382 b 246 424 281 415 265 436 m 343 653 b 369 593 353 639 361 619 l 374 632 b 343 653 361 638 351 646 m 351 467 b 369 393 329 454 350 417 b 408 421 389 393 404 400 l 401 433 b 351 467 388 460 371 481 m 497 -3 b 511 4 501 0 507 1 b 499 14 506 10 503 13 b 497 -3 499 8 497 3 m 672 579 b 676 586 674 581 675 583 b 703 658 694 618 703 640 b 700 675 703 665 701 671 b 672 579 671 647 663 607 "},"☞":{"ha":1457,"x_min":0,"x_max":0,"o":"m 758 164 b 682 186 735 164 706 172 b 640 182 667 185 654 182 b 451 238 575 182 511 206 b 365 269 415 254 392 264 b 342 247 361 261 347 250 l 283 247 b 210 226 260 247 244 226 b 100 425 131 226 100 324 b 151 643 100 507 121 599 b 232 656 167 649 201 656 b 361 589 307 656 354 607 l 357 588 b 486 649 404 596 443 621 b 572 694 510 663 550 686 b 733 726 632 718 671 721 b 807 736 747 728 785 732 b 913 778 851 746 871 757 b 993 807 940 793 964 807 b 1039 764 1025 807 1039 785 b 904 618 1039 721 1000 651 b 1243 582 1038 594 1131 588 b 1393 522 1338 578 1393 568 b 1282 467 1393 486 1357 467 b 979 463 1156 467 1063 468 b 1028 363 999 431 1028 419 b 963 304 1028 332 1006 304 b 939 308 954 304 946 304 b 951 272 949 296 951 283 b 882 218 951 243 928 218 b 828 232 861 218 849 221 b 758 164 833 196 807 164 m 119 425 b 208 242 119 326 147 242 b 285 263 239 242 250 263 l 315 263 b 276 443 290 335 276 392 b 322 603 276 497 292 547 b 232 640 306 621 279 640 b 165 631 208 640 181 635 b 119 425 138 588 119 504 m 296 443 b 326 292 296 400 306 350 b 461 251 383 286 400 279 b 663 197 531 214 586 197 b 601 285 621 226 601 258 b 668 325 601 326 642 339 b 663 356 665 333 663 343 b 726 413 663 396 686 413 b 714 432 721 418 717 425 b 596 403 674 411 632 403 b 467 469 538 403 489 426 l 476 475 b 596 415 497 436 540 415 b 710 444 631 415 669 424 b 708 457 708 449 708 453 b 768 513 708 483 724 513 b 833 492 796 513 815 504 b 897 465 853 481 872 471 b 1275 483 1033 485 1111 483 b 1374 522 1351 483 1374 496 b 1243 567 1374 556 1335 561 b 869 607 1060 578 1044 578 b 717 532 799 599 736 567 l 707 538 b 857 621 722 563 767 601 b 1021 764 974 644 1021 717 b 1018 779 1021 771 1019 776 b 903 754 985 747 933 738 b 811 721 874 739 846 726 b 735 711 792 717 769 714 b 581 679 697 707 635 703 b 496 633 561 671 532 656 b 325 569 442 601 393 569 b 296 443 306 526 296 486 m 332 274 b 338 258 333 269 336 264 b 351 272 342 261 349 268 b 332 274 346 272 339 274 m 332 585 b 349 586 338 585 343 586 b 339 599 347 590 344 593 b 332 585 336 594 335 589 m 621 286 b 676 261 632 264 658 243 b 651 315 693 278 672 294 b 621 286 635 317 622 307 m 625 265 b 674 210 632 246 650 225 b 758 179 699 192 732 179 b 815 238 797 179 821 206 b 765 261 799 247 785 253 b 686 303 729 278 701 292 b 667 313 679 307 674 310 b 685 254 683 297 704 275 b 625 265 667 233 640 247 m 682 351 b 758 333 707 332 746 311 b 725 383 771 353 750 368 b 707 393 717 389 711 392 b 682 356 692 388 682 375 l 682 351 m 685 338 b 696 319 688 331 692 324 b 774 275 706 308 725 296 b 882 233 822 253 846 233 b 933 275 915 233 933 253 b 908 317 933 290 925 306 b 817 357 900 322 839 351 b 746 393 794 364 767 376 b 725 396 738 394 732 396 l 722 396 l 729 392 b 768 329 756 376 786 357 b 685 338 749 300 711 318 m 728 457 b 801 439 751 438 789 417 b 768 489 815 458 794 475 l 756 496 b 728 457 735 492 728 476 m 729 443 b 821 374 739 408 783 383 b 889 344 829 372 850 364 b 963 321 918 331 940 321 b 1008 363 994 321 1008 338 b 904 446 1008 397 976 432 b 825 478 868 454 843 467 b 774 497 807 488 793 496 b 811 435 799 483 829 464 b 729 443 793 407 756 425 m 914 760 b 1010 788 942 750 982 758 b 993 790 1006 789 1000 790 b 921 764 975 790 953 782 b 914 760 918 763 915 761 m 928 457 b 988 431 954 449 974 440 b 967 461 981 439 972 449 l 928 457 "},"☟":{"ha":781,"x_min":0,"x_max":0,"o":"m 76 339 b 99 415 76 363 85 392 b 94 457 97 431 94 443 b 150 646 94 522 118 586 b 182 732 167 682 176 706 b 160 756 174 736 163 750 l 160 814 b 139 888 160 838 139 853 b 338 997 139 967 236 997 b 556 946 419 997 511 976 b 568 865 561 931 568 896 b 501 736 568 790 519 743 l 500 740 b 561 611 508 693 533 654 b 607 525 575 588 599 547 b 639 364 631 465 633 426 b 649 290 640 350 644 313 b 690 185 658 246 669 226 b 719 104 706 157 719 133 b 676 58 719 72 697 58 b 531 193 633 58 564 97 b 494 -146 507 60 500 -33 b 435 -296 490 -240 481 -296 b 379 -185 399 -296 379 -260 b 375 118 379 -58 381 35 b 275 69 343 99 332 69 b 217 135 244 69 217 92 b 221 158 217 143 217 151 b 185 146 208 149 196 146 b 131 215 156 146 131 169 b 144 269 131 236 133 249 b 76 339 108 264 76 290 m 92 339 b 150 282 92 300 118 276 b 174 332 160 299 165 313 b 215 411 190 368 204 396 b 225 431 219 418 222 424 b 167 413 210 414 188 393 b 178 472 146 431 160 457 b 122 424 158 465 138 447 b 92 339 104 399 92 365 m 110 435 b 197 496 139 476 171 496 b 238 429 239 496 251 456 b 268 435 246 432 256 435 b 325 371 308 435 325 411 b 344 383 331 376 338 381 b 315 501 324 424 315 465 b 382 631 315 560 339 608 l 388 621 b 328 501 349 600 328 557 b 357 388 328 467 336 428 b 369 389 361 389 365 389 b 425 329 396 389 425 374 b 404 264 425 301 417 282 b 378 200 393 244 383 225 b 396 -178 397 64 396 -14 b 435 -276 396 -254 408 -276 b 479 -146 468 -276 474 -237 b 519 228 490 38 490 53 b 444 381 511 299 479 361 l 450 390 b 533 240 475 375 514 331 b 676 76 557 124 629 76 b 692 79 683 76 689 78 b 667 194 660 113 650 164 b 633 286 651 224 639 251 b 624 363 629 306 626 328 b 592 517 619 400 615 463 b 546 601 583 536 568 565 b 482 772 514 656 482 704 b 356 801 439 792 399 801 b 204 771 313 801 263 792 b 164 636 199 714 192 697 b 110 435 126 567 110 511 m 146 215 b 188 164 146 182 165 164 b 229 189 203 164 218 172 b 269 281 235 197 264 258 b 306 351 276 303 289 331 b 308 372 307 360 308 365 l 308 375 l 304 368 b 242 329 289 342 269 311 b 250 413 213 349 231 386 b 232 401 243 410 236 406 b 188 324 221 392 208 372 b 146 215 165 275 146 251 m 154 889 b 175 813 154 858 175 847 l 175 782 b 356 821 247 807 304 821 b 515 775 410 821 460 806 b 553 865 533 792 553 818 b 543 932 553 889 547 917 b 338 978 500 960 417 978 b 154 889 239 978 154 950 m 171 760 b 185 746 174 756 181 749 b 186 765 185 751 186 758 b 171 760 182 764 176 761 m 174 421 b 228 446 190 404 207 425 b 199 476 229 463 219 475 b 174 421 176 465 156 439 m 233 135 b 275 89 233 103 250 89 b 358 193 310 89 344 121 b 390 272 367 229 379 254 b 410 324 400 290 408 304 b 347 286 396 299 376 268 b 356 368 319 304 338 342 b 286 276 321 358 296 314 b 257 208 285 268 276 247 b 233 135 243 179 233 157 m 246 339 b 296 372 265 326 281 347 b 306 390 301 381 304 386 b 268 415 300 406 288 415 l 264 415 b 246 339 244 390 224 351 m 343 110 b 374 131 351 117 361 125 l 369 169 b 343 110 361 143 353 124 m 351 296 b 401 329 371 282 388 303 l 408 342 b 369 369 404 363 389 369 b 351 296 350 346 329 308 m 497 765 b 499 749 497 760 499 754 b 511 758 503 750 506 753 b 497 765 507 761 501 763 m 672 183 b 700 88 663 156 671 115 b 703 104 701 92 703 97 b 676 176 703 122 694 144 b 672 183 675 179 674 182 "},"@":{"ha":1319,"x_min":0,"x_max":0,"o":"m 626 -154 b 83 397 313 -154 83 79 b 696 1015 83 743 356 1015 b 1239 497 992 1015 1239 811 b 917 78 1239 242 1081 81 b 743 249 819 78 743 136 b 747 303 743 265 744 283 b 479 81 674 151 571 81 b 292 326 351 81 292 193 b 671 781 292 528 426 781 b 854 701 738 781 803 756 l 872 765 l 1013 765 l 925 356 b 914 256 918 319 914 283 b 993 142 914 181 943 143 b 1206 497 1097 143 1206 290 b 697 983 1206 797 978 983 b 117 396 369 983 117 729 b 626 -122 117 92 325 -122 b 994 4 761 -122 885 -79 l 1013 -19 b 626 -154 900 -107 767 -154 m 460 325 b 551 181 460 244 489 181 b 803 517 640 181 749 300 l 804 517 l 838 638 b 710 707 810 678 763 707 b 460 325 561 707 460 478 "},"&":{"ha":1297,"x_min":0,"x_max":0,"o":"m 1033 -24 b 803 67 967 -24 889 4 b 485 -24 710 6 596 -24 b 71 308 222 -24 71 140 b 322 610 71 428 150 549 b 246 847 269 697 246 774 b 507 1100 246 1014 364 1100 b 751 882 661 1100 751 1001 b 514 632 751 778 683 679 b 583 539 539 596 565 564 b 764 325 600 514 701 397 b 888 186 811 269 851 224 b 971 438 940 253 969 339 b 943 436 961 436 953 436 b 736 606 810 436 736 529 b 836 703 736 661 775 703 b 1000 469 928 703 993 613 b 1157 636 1072 486 1133 540 l 1178 631 b 1001 443 1149 524 1083 463 l 1001 440 b 910 163 1001 326 967 233 b 1096 51 988 85 1042 51 b 1218 135 1158 51 1200 94 l 1238 128 b 1033 -24 1206 35 1128 -24 m 224 374 b 583 49 224 219 350 49 b 769 92 653 49 715 64 b 569 292 707 140 640 207 b 411 485 517 356 456 429 b 339 582 383 519 360 551 b 224 374 260 533 224 456 m 392 922 b 499 651 392 825 444 729 b 649 889 600 697 649 792 b 517 1072 649 989 596 1072 b 392 922 444 1072 392 1010 m 792 607 b 956 465 792 546 846 465 l 971 465 b 847 672 964 582 917 672 b 792 607 811 672 792 643 "},"¶":{"ha":1025,"x_min":0,"x_max":0,"o":"m 406 494 b 68 789 219 494 68 581 b 406 1083 68 997 219 1083 l 974 1083 l 957 999 b 774 1038 900 1014 840 1028 b 796 -296 765 608 778 129 l 711 -296 b 732 1043 726 131 739 613 b 539 1056 674 1050 611 1054 b 560 -296 528 622 542 135 l 475 -296 b 496 494 483 -44 492 226 l 406 494 "},"§":{"ha":917,"x_min":0,"x_max":0,"o":"m 475 -324 b 79 -62 311 -324 153 -222 b 167 -3 103 -21 129 -3 b 265 -87 210 -3 238 -25 b 482 -292 313 -224 389 -292 b 643 -139 564 -292 643 -239 b 85 488 643 122 85 156 b 204 707 85 589 139 661 b 150 861 171 750 150 800 b 442 1103 150 1011 282 1103 b 838 842 606 1103 764 1000 b 750 782 814 800 788 782 b 651 867 707 782 679 804 b 435 1071 604 1003 528 1071 b 274 918 353 1071 274 1018 b 832 290 274 656 832 622 b 713 72 832 189 778 117 b 767 -83 746 29 767 -22 b 475 -324 767 -233 635 -324 m 217 540 b 665 121 217 328 507 261 b 700 238 686 150 700 189 b 250 658 700 450 410 517 b 217 540 231 628 217 589 "},"©":{"ha":1215,"x_min":0,"x_max":0,"o":"m 608 35 b 86 556 294 35 86 272 b 608 1078 86 840 294 1078 b 1129 556 921 1078 1129 840 b 608 35 1129 272 921 35 m 118 556 b 608 64 118 294 314 64 b 1097 556 901 64 1097 294 b 608 1049 1097 818 901 1049 b 118 556 314 1049 118 818 m 290 558 b 631 893 290 756 447 893 b 899 764 732 893 832 850 b 831 682 889 707 867 682 b 754 744 799 682 772 701 b 622 865 718 826 675 865 b 451 610 535 865 451 776 b 681 300 451 428 549 300 b 906 494 786 300 871 379 l 925 490 b 611 221 883 326 763 221 b 290 558 433 221 290 368 "},"®":{"ha":1213,"x_min":0,"x_max":0,"o":"m 608 35 b 86 556 294 35 86 272 b 607 1078 86 840 294 1078 b 1129 549 949 1078 1129 810 b 893 235 1129 349 1022 235 b 704 396 796 235 739 303 b 565 553 674 475 664 553 l 565 556 l 529 556 l 529 351 b 536 246 529 310 531 279 l 397 246 b 403 351 401 279 403 310 l 403 768 b 397 875 403 811 401 842 l 582 875 b 857 715 740 875 857 833 b 653 560 857 615 775 571 b 826 421 757 542 803 493 b 939 283 853 344 869 283 b 1096 549 1031 283 1096 397 b 607 1049 1096 790 931 1049 b 118 556 313 1049 118 821 b 608 64 118 292 313 64 b 896 153 756 64 858 125 l 914 129 b 608 35 874 99 765 35 m 574 581 b 726 715 679 581 726 613 b 582 849 726 814 681 849 l 529 849 l 529 581 "},"™":{"ha":1283,"x_min":0,"x_max":0,"o":"m 194 499 b 201 597 200 529 201 557 l 201 1060 b 32 1031 153 1057 99 1051 l 10 1083 l 525 1083 l 504 1031 b 335 1060 438 1051 383 1057 l 335 597 b 340 499 335 557 336 529 l 194 499 m 554 499 b 569 726 563 539 569 617 l 569 985 b 564 1083 569 1025 568 1053 l 706 1083 l 894 658 l 1079 1083 l 1219 1083 b 1214 985 1215 1053 1214 1024 l 1214 597 b 1219 499 1214 557 1215 529 l 1075 499 b 1081 597 1079 529 1081 557 l 1081 1029 l 850 489 l 828 489 l 594 1019 l 594 726 b 610 499 594 617 600 539 l 554 499 "},"°":{"ha":711,"x_min":0,"x_max":0,"o":"m 356 629 b 101 882 218 629 101 726 b 356 1135 101 1038 218 1135 b 610 882 493 1135 610 1038 b 356 629 610 726 493 629 m 183 882 b 356 658 183 746 256 658 b 528 882 456 658 528 746 b 356 1106 528 1018 456 1106 b 183 882 256 1106 183 1018 "},"|":{"ha":333,"x_min":0,"x_max":0,"o":"m 143 -326 b 143 1118 153 114 153 678 l 190 1118 b 190 -326 179 678 179 114 l 143 -326 "},"¦":{"ha":333,"x_min":0,"x_max":0,"o":"m 143 -326 b 150 313 147 -132 150 90 l 182 313 b 190 -326 182 90 185 -132 l 143 -326 m 190 1118 b 182 513 186 932 183 725 l 150 513 b 143 1118 150 725 147 932 "},"†":{"ha":764,"x_min":0,"x_max":0,"o":"m 365 11 b 290 569 365 307 338 454 b 364 800 335 621 360 704 b 111 754 251 797 172 771 b 53 814 72 763 53 789 b 111 875 53 840 72 867 b 364 829 172 858 251 832 b 318 1067 363 921 343 1013 b 382 1132 324 1107 350 1132 b 444 1067 414 1132 440 1107 b 397 829 418 1011 399 919 b 653 875 511 832 590 858 b 711 814 693 867 711 840 b 653 754 711 789 693 763 b 397 800 590 771 513 797 b 472 569 401 704 428 621 b 397 11 424 454 397 308 l 397 -343 l 365 -343 l 365 11 "},"‡":{"ha":775,"x_min":0,"x_max":0,"o":"m 382 -343 b 318 -279 350 -343 324 -319 b 364 -61 342 -228 360 -147 b 111 -108 256 -64 163 -94 b 53 -49 72 -100 53 -74 b 111 13 53 -22 72 4 b 364 -35 163 -1 256 -32 l 364 -31 b 292 199 364 69 338 150 b 365 406 328 256 365 331 b 292 613 365 482 328 554 b 364 801 335 657 361 711 b 111 754 256 799 163 768 b 53 815 72 764 53 789 b 111 875 53 842 72 868 b 364 829 163 861 256 832 b 318 1068 363 924 343 1013 b 382 1132 324 1107 350 1132 b 444 1068 414 1132 440 1107 b 397 829 419 1011 399 922 b 653 875 507 832 600 861 b 711 815 693 868 711 842 b 653 754 711 789 693 764 b 397 801 600 768 507 799 b 471 613 401 711 428 658 b 397 406 435 554 397 482 b 471 199 397 331 433 256 b 397 -32 425 150 397 69 l 397 -35 b 653 13 507 -32 600 -1 b 711 -49 693 4 711 -22 b 653 -108 711 -74 693 -100 b 397 -61 600 -94 507 -64 b 444 -279 401 -146 421 -226 b 382 -343 440 -319 414 -343 "},"№":{"ha":1454,"x_min":0,"x_max":0,"o":"m 1178 721 b 981 914 1069 721 981 794 b 1178 1107 981 1033 1069 1107 b 1376 914 1286 1107 1376 1033 b 1178 721 1376 794 1286 721 m 97 0 b 128 392 117 90 128 256 l 128 900 b 117 1083 128 979 125 1028 l 340 1083 l 829 81 l 829 693 b 799 1083 829 828 818 993 l 893 1083 b 861 693 872 993 861 828 l 861 183 b 872 0 861 106 864 56 l 647 0 l 160 994 l 160 390 b 190 0 160 256 171 90 l 97 0 m 989 682 b 1179 672 1057 675 1118 672 b 1368 682 1240 672 1301 675 l 1368 631 b 1179 643 1301 639 1240 643 b 989 631 1118 643 1057 639 m 1078 914 b 1178 743 1078 822 1111 743 b 1281 914 1247 743 1281 822 b 1178 1085 1281 1006 1247 1085 b 1078 914 1111 1085 1078 1006 "},"¢":{"ha":876,"x_min":0,"x_max":0,"o":"m 440 -83 b 446 149 442 -7 444 72 b 85 529 226 151 85 328 b 447 907 85 738 229 897 b 442 1139 446 983 443 1064 l 493 1139 b 488 907 492 1064 489 983 b 776 763 597 901 704 851 b 700 681 767 706 740 681 b 611 761 649 681 628 718 b 486 879 583 828 542 869 b 481 528 483 742 481 614 b 485 243 481 456 482 354 b 531 238 499 239 515 238 b 782 458 646 238 746 325 l 803 453 b 486 150 760 282 640 167 b 492 -83 488 72 490 -7 l 440 -83 m 269 594 b 449 254 269 417 346 296 b 451 528 450 361 451 458 b 447 879 451 614 450 743 b 269 594 354 869 269 767 "},"$":{"ha":956,"x_min":0,"x_max":0,"o":"m 471 -153 b 474 -37 472 -115 472 -76 b 71 263 297 -28 138 78 b 154 329 81 300 110 329 b 274 210 219 329 250 264 b 475 -4 301 93 368 13 b 482 440 478 144 481 299 b 131 813 318 533 131 624 b 469 1086 131 981 285 1086 l 475 1086 b 472 1208 474 1128 474 1168 l 524 1208 b 521 1083 522 1168 521 1126 b 840 879 651 1068 768 997 b 757 811 828 840 800 811 b 656 894 707 811 679 849 b 519 1047 631 965 585 1024 b 513 654 517 917 513 781 b 872 269 678 563 872 471 b 519 -37 872 89 713 -29 b 522 -153 521 -76 521 -115 l 471 -153 m 279 901 b 482 671 279 799 371 733 b 476 1057 481 796 478 929 b 451 1058 468 1058 460 1058 b 279 901 354 1058 279 994 m 511 422 b 518 -7 513 285 515 136 b 717 172 635 -6 717 67 b 511 422 717 285 624 356 "},"€":{"ha":1328,"x_min":0,"x_max":0,"o":"m 751 -24 b 271 436 521 -24 310 146 b 71 422 211 433 149 429 l 71 488 b 268 475 147 482 210 478 b 265 532 267 493 265 513 b 268 600 265 556 267 578 b 126 589 225 597 179 593 l 126 654 b 274 644 182 650 231 647 b 783 1100 317 907 511 1100 b 1217 849 990 1100 1143 990 b 1125 763 1208 804 1178 763 b 1024 849 1072 763 1043 801 b 772 1072 982 969 899 1072 b 476 636 606 1072 486 892 l 532 636 b 935 654 671 636 765 642 l 935 589 b 532 608 772 603 675 608 l 476 608 b 476 603 476 607 476 604 b 486 469 476 556 479 511 b 881 488 621 469 714 475 l 881 422 b 490 442 722 436 626 442 b 843 67 535 194 683 67 b 1222 467 1011 67 1178 200 l 1246 467 b 751 -24 1197 132 974 -24 "},"£":{"ha":1067,"x_min":0,"x_max":0,"o":"m 151 536 b 347 521 229 529 292 524 b 199 850 278 628 199 729 b 515 1103 199 1019 354 1103 b 910 838 682 1103 840 1011 b 818 783 890 806 863 783 b 713 874 767 783 733 811 b 515 1075 681 985 619 1075 b 360 903 433 1075 360 1019 b 460 517 360 790 419 657 l 478 517 b 804 536 571 517 660 524 l 804 471 b 478 492 660 485 571 492 l 467 492 b 496 300 483 428 496 364 b 469 154 496 246 486 197 b 665 78 528 115 588 78 b 842 256 794 78 835 186 l 997 226 b 731 -21 978 54 865 -21 b 446 106 600 -21 522 49 b 233 -24 394 22 314 -24 b 72 113 132 -24 72 43 b 242 247 72 178 125 247 b 440 175 322 247 383 213 b 450 253 447 200 450 226 b 368 489 450 339 414 415 b 151 471 307 485 239 479 l 151 536 m 163 101 b 272 18 163 58 203 18 b 421 124 340 18 392 61 b 269 181 375 156 328 181 b 163 101 192 181 163 138 "},"¥":{"ha":1018,"x_min":0,"x_max":0,"o":"m 399 0 b 410 183 407 58 410 108 l 410 328 b 104 311 310 326 224 322 l 104 369 b 410 354 224 360 310 356 l 410 467 b 104 450 310 465 224 461 l 104 508 b 401 493 219 499 304 496 l 179 921 b 85 1083 150 981 111 1042 l 358 1083 b 435 869 367 1024 401 943 l 599 518 l 764 850 b 857 1083 811 956 843 1036 l 938 1083 b 797 849 901 1036 844 954 l 621 494 b 915 508 717 496 800 499 l 915 450 b 614 467 796 461 713 465 l 614 354 b 915 369 713 356 796 360 l 915 311 b 614 328 796 322 713 326 l 614 183 b 625 0 614 108 617 58 l 399 0 "},"+":{"ha":888,"x_min":0,"x_max":0,"o":"m 408 81 b 425 378 417 178 424 282 b 143 363 333 376 240 372 l 143 428 b 425 413 240 419 333 414 b 408 710 424 508 417 611 l 479 710 b 461 413 471 611 463 508 b 744 428 554 414 646 418 l 744 363 b 461 378 646 372 554 376 b 479 81 463 282 469 178 l 408 81 "},"−":{"ha":875,"x_min":0,"x_max":0,"o":"m 143 428 b 438 414 249 421 339 414 b 732 428 535 414 626 419 l 732 364 b 438 378 626 372 535 378 b 143 364 339 378 249 372 l 143 428 "},"×":{"ha":638,"x_min":0,"x_max":0,"o":"m 510 160 b 318 372 446 235 383 306 b 129 160 253 306 192 235 l 83 206 b 294 396 157 269 229 331 b 85 585 229 461 160 522 l 129 631 b 318 421 193 556 253 486 b 508 631 383 486 444 556 l 554 585 b 343 396 478 522 408 461 b 556 206 408 331 479 269 l 510 160 "},"÷":{"ha":725,"x_min":0,"x_max":0,"o":"m 260 613 l 356 707 l 449 613 l 356 519 m 68 428 b 363 414 174 421 264 414 b 657 428 460 414 551 419 l 657 364 b 363 378 551 372 460 378 b 68 364 264 378 174 372 m 356 268 l 449 175 l 356 81 l 260 175 "},"=":{"ha":835,"x_min":0,"x_max":0,"o":"m 124 539 b 418 525 229 532 319 525 b 713 539 515 525 607 531 l 713 475 b 418 489 607 483 515 489 b 124 475 319 489 229 483 l 124 539 m 124 304 b 418 290 229 297 319 290 b 713 304 515 290 607 296 l 713 240 b 418 254 607 249 515 254 b 124 240 319 254 229 249 "},"≠":{"ha":781,"x_min":0,"x_max":0,"o":"m 189 103 b 289 251 221 150 254 199 b 101 240 228 250 168 246 l 101 304 b 314 292 176 299 244 294 b 381 404 335 326 358 364 b 428 489 397 433 414 461 l 396 489 b 101 475 297 489 207 483 l 101 539 b 396 525 207 532 297 525 l 449 525 b 546 719 486 596 517 658 l 601 689 b 494 526 567 639 532 586 b 690 539 557 529 621 533 l 690 475 b 469 488 613 481 542 486 b 410 388 450 457 431 424 b 356 290 390 354 372 322 l 396 290 b 690 304 493 290 585 296 l 690 240 b 396 254 585 249 493 254 b 335 253 375 254 356 254 b 244 71 301 189 271 129 l 189 103 "},">":{"ha":585,"x_min":0,"x_max":0,"o":"m 83 178 b 389 336 200 236 274 271 l 468 382 l 388 429 b 83 589 272 496 200 532 l 115 643 b 407 461 224 574 289 529 l 518 396 l 518 368 l 407 304 b 117 122 290 236 224 193 l 83 178 "},"<":{"ha":585,"x_min":0,"x_max":0,"o":"m 468 122 b 178 304 361 193 294 236 l 67 368 l 67 396 l 178 461 b 469 643 296 529 361 574 l 501 589 b 197 429 385 532 313 496 l 117 382 l 196 336 b 501 178 311 271 385 236 l 468 122 "},"≥":{"ha":647,"x_min":0,"x_max":0,"o":"m 107 221 b 507 394 242 278 314 307 b 106 569 311 486 242 514 l 131 628 b 553 413 264 553 331 515 l 553 376 b 132 163 332 274 264 239 l 107 221 m 89 50 b 329 38 176 43 247 38 b 568 50 411 38 481 43 l 568 -14 b 329 0 481 -4 411 0 b 89 -14 247 0 176 -4 "},"≤":{"ha":647,"x_min":0,"x_max":0,"o":"m 543 163 b 122 376 411 239 343 274 l 122 413 b 544 628 344 515 411 553 l 569 569 b 168 394 433 514 364 486 b 568 221 361 307 433 278 l 543 163 m 107 50 b 346 38 194 43 264 38 b 586 50 428 38 499 43 l 586 -14 b 346 0 499 -4 428 0 b 107 -14 264 0 194 -4 "},"±":{"ha":767,"x_min":0,"x_max":0,"o":"m 96 56 b 383 42 200 47 285 42 b 671 56 481 42 567 47 l 671 -10 b 383 4 567 0 481 4 b 96 -10 285 4 200 0 l 96 56 m 82 428 b 364 413 179 419 272 414 b 347 668 363 504 356 569 l 418 668 b 400 413 410 569 401 504 b 683 428 493 414 585 418 l 683 363 b 400 378 585 372 493 376 b 418 122 401 288 410 219 l 347 122 b 364 378 357 219 363 288 b 82 363 272 376 179 372 "},"≈":{"ha":814,"x_min":0,"x_max":0,"o":"m 547 394 b 278 506 414 394 379 506 b 144 413 218 506 171 461 l 100 463 b 269 547 142 511 200 547 b 536 436 397 547 433 436 b 671 529 596 436 644 479 l 714 479 b 547 394 672 431 617 394 m 100 235 b 269 321 142 283 200 321 b 536 208 397 321 433 208 b 671 301 596 208 644 253 l 714 253 b 547 167 672 203 617 167 b 278 279 414 167 379 279 b 144 186 218 279 171 235 l 100 235 "},"¬":{"ha":865,"x_min":0,"x_max":0,"o":"m 76 472 b 394 460 182 465 289 460 b 713 472 507 460 607 465 l 713 435 b 731 101 713 335 722 206 l 660 101 b 676 411 668 197 675 315 b 394 422 583 419 494 422 b 76 408 289 422 182 418 l 76 472 "},"~":{"ha":821,"x_min":0,"x_max":0,"o":"m 551 283 b 283 396 425 283 383 396 b 149 303 222 396 175 351 l 104 351 b 274 438 146 400 204 438 b 540 325 399 438 440 325 b 675 418 600 325 649 369 l 718 369 b 551 283 676 319 621 283 "},"^":{"ha":619,"x_min":0,"x_max":0,"o":"m 490 657 b 349 963 439 774 408 847 l 308 1036 l 269 961 b 128 657 208 846 178 774 l 71 689 b 238 981 136 797 176 863 l 294 1092 l 322 1092 l 381 981 b 547 690 443 864 481 797 l 490 657 "},"%":{"ha":1360,"x_min":0,"x_max":0,"o":"m 336 -3 b 663 550 429 143 544 342 b 919 1035 757 719 849 892 b 521 1043 807 1015 663 1004 b 622 831 586 993 622 915 b 346 561 622 688 515 561 b 69 831 176 561 69 688 b 346 1100 69 974 176 1100 b 439 1086 378 1100 408 1096 b 949 1093 628 1033 783 1053 l 1013 1072 b 693 533 919 928 806 733 b 400 -24 581 333 475 132 l 336 -3 m 200 831 b 346 588 200 701 261 588 b 492 831 431 588 492 701 b 346 1074 492 960 431 1074 b 200 831 261 1074 200 960 m 738 246 b 1014 515 738 390 843 515 b 1290 246 1183 515 1290 390 b 1014 -24 1290 103 1183 -24 b 738 246 843 -24 738 103 m 868 246 b 1014 3 868 118 929 3 b 1158 246 1099 3 1158 118 b 1014 489 1158 375 1099 489 b 868 246 929 489 868 375 "},"‰":{"ha":2006,"x_min":0,"x_max":0,"o":"m 338 -3 b 664 550 431 143 546 342 b 921 1035 758 719 850 892 b 522 1043 808 1015 664 1004 b 624 831 588 993 624 915 b 347 561 624 688 517 561 b 71 831 178 561 71 688 b 347 1100 71 974 178 1100 b 440 1086 379 1100 410 1096 b 950 1093 629 1033 785 1053 l 1014 1072 b 694 533 921 928 807 733 b 401 -24 582 333 476 132 l 338 -3 m 201 831 b 347 588 201 701 263 588 b 493 831 432 588 493 701 b 347 1074 493 960 432 1074 b 201 831 263 1074 201 960 m 739 246 b 1015 515 739 390 844 515 b 1292 246 1185 515 1292 390 b 1015 -24 1292 103 1185 -24 b 739 246 844 -24 739 103 m 869 246 b 1015 3 869 118 931 3 b 1160 246 1100 3 1160 118 b 1015 489 1160 375 1100 489 b 869 246 931 489 869 375 m 1406 246 b 1682 515 1406 390 1511 515 b 1958 246 1851 515 1958 390 b 1682 -24 1958 103 1851 -24 b 1406 246 1511 -24 1406 103 m 1536 246 b 1682 3 1536 118 1597 3 b 1826 246 1767 3 1826 118 b 1682 489 1826 375 1767 489 b 1536 246 1597 489 1536 375 "},"↑":{"ha":600,"x_min":0,"x_max":0,"o":"m 63 340 l 300 738 l 539 340 l 528 332 l 318 551 b 360 -12 326 293 339 132 l 243 -12 b 283 553 264 132 275 293 l 74 332 "},"↗":{"ha":718,"x_min":0,"x_max":0,"o":"m 514 474 b 143 44 338 285 231 163 l 60 128 b 489 497 178 215 300 321 l 185 490 l 183 504 l 633 615 l 519 167 l 506 169 "},"→":{"ha":871,"x_min":0,"x_max":0,"o":"m 407 604 l 804 367 l 407 128 l 399 139 l 618 349 b 86 307 374 340 240 329 l 86 422 b 619 383 240 400 374 392 l 399 593 "},"↘":{"ha":718,"x_min":0,"x_max":0,"o":"m 519 440 l 633 -10 l 183 103 l 185 117 l 489 110 b 60 479 299 286 178 392 l 143 561 b 514 133 231 444 338 322 l 506 438 "},"↓":{"ha":601,"x_min":0,"x_max":0,"o":"m 285 156 b 244 721 276 415 265 576 l 361 721 b 319 157 340 576 328 415 l 529 376 l 540 368 l 301 -29 l 64 368 l 75 376 "},"↙":{"ha":718,"x_min":0,"x_max":0,"o":"m 204 133 b 575 563 381 324 488 446 l 658 479 b 231 111 540 392 419 288 l 533 117 l 535 104 l 85 -8 l 199 440 l 211 439 "},"←":{"ha":871,"x_min":0,"x_max":0,"o":"m 250 383 b 783 422 496 392 629 400 l 783 307 b 251 349 629 329 496 340 l 471 139 l 463 128 l 65 367 l 463 604 l 471 593 "},"↖":{"ha":717,"x_min":0,"x_max":0,"o":"m 197 167 l 83 615 l 533 504 l 532 490 l 228 497 b 657 128 417 321 539 215 l 574 44 b 203 474 486 163 379 285 l 211 169 "},"↔":{"ha":1119,"x_min":0,"x_max":0,"o":"m 669 604 l 1054 367 l 669 128 l 661 139 l 867 347 l 254 347 l 458 139 l 450 128 l 65 367 l 450 604 l 458 593 l 254 386 l 867 386 l 661 593 "},"↕":{"ha":618,"x_min":0,"x_max":0,"o":"m 547 204 l 310 -179 l 71 204 l 82 214 l 290 8 l 290 622 l 82 417 l 71 426 l 310 810 l 547 426 l 536 417 l 329 622 l 329 8 l 536 214 "},"̈":{"ha":0,"x_min":0,"x_max":0,"o":"m 308 913 l 408 1011 l 506 913 l 408 815 m 139 1011 l 238 913 l 139 815 l 40 913 "},"̇":{"ha":0,"x_min":0,"x_max":0,"o":"m 39 919 l 150 1029 l 261 919 l 150 810 "},"̀":{"ha":0,"x_min":0,"x_max":0,"o":"m 225 785 l 21 1039 l 185 1039 l 256 785 "},"́":{"ha":0,"x_min":0,"x_max":0,"o":"m 128 1039 l 292 1039 l 86 785 l 57 785 "},"̋":{"ha":0,"x_min":0,"x_max":0,"o":"m 310 1046 l 439 1046 l 260 785 l 231 785 m 125 1046 l 249 1046 l 88 785 l 58 785 "},"̂":{"ha":0,"x_min":0,"x_max":0,"o":"m 183 1046 l 242 1046 l 400 783 l 374 783 l 213 933 l 51 783 l 25 783 "},"̌":{"ha":0,"x_min":0,"x_max":0,"o":"m 54 1047 l 215 897 l 376 1047 l 403 1047 l 244 785 l 186 785 l 28 1047 "},"̆":{"ha":0,"x_min":0,"x_max":0,"o":"m 219 792 b 65 1026 111 792 64 881 l 93 1026 b 219 883 97 929 153 883 b 347 1026 288 883 343 929 l 375 1026 b 219 792 376 881 329 792 "},"̊":{"ha":0,"x_min":0,"x_max":0,"o":"m 196 774 b 58 910 119 774 58 835 b 196 1046 58 985 119 1046 b 332 910 271 1046 332 985 b 196 774 332 835 271 774 m 93 910 b 196 806 93 854 139 806 b 297 910 251 806 297 854 b 196 1014 297 965 251 1014 b 93 910 139 1014 93 965 "},"̃":{"ha":0,"x_min":0,"x_max":0,"o":"m 378 800 b 164 946 271 800 247 946 b 128 804 110 946 93 882 l 103 800 b 171 1036 46 926 78 1036 b 385 890 276 1036 301 890 b 421 1032 439 890 456 954 l 446 1038 b 378 800 504 911 471 800 "},"̄":{"ha":0,"x_min":0,"x_max":0,"o":"m 89 938 b 526 938 271 911 346 911 l 526 851 b 89 851 346 879 271 879 l 89 938 "},"̒":{"ha":0,"x_min":0,"x_max":0,"o":"m 42 835 b 203 1067 67 935 132 1019 l 221 1049 b 151 943 186 1017 163 982 l 240 883 l 165 761 l 42 835 "},"̦":{"ha":0,"x_min":0,"x_max":0,"o":"m 69 -342 b 140 -236 106 -310 128 -275 l 51 -176 l 125 -54 l 250 -128 b 89 -360 225 -228 160 -312 l 69 -342 "},"̧":{"ha":0,"x_min":0,"x_max":0,"o":"m 196 -342 b 29 -251 128 -342 63 -312 b 54 -231 35 -239 43 -231 b 79 -256 68 -231 74 -242 b 167 -314 97 -292 129 -314 b 254 -210 225 -314 254 -261 b 175 -115 254 -157 225 -115 b 101 -146 150 -115 124 -125 l 81 -129 l 172 0 l 208 0 l 136 -99 b 214 -81 161 -86 188 -81 b 360 -208 308 -81 360 -144 b 196 -342 360 -276 303 -342 "},"̨":{"ha":0,"x_min":0,"x_max":0,"o":"m 182 -337 b 46 -218 94 -337 46 -283 b 297 13 46 -133 125 -28 l 308 0 b 149 -197 196 -42 149 -129 b 228 -290 149 -253 183 -290 b 294 -268 250 -290 272 -283 l 306 -283 b 182 -337 267 -321 224 -337 "},"¨":{"ha":543,"x_min":0,"x_max":0,"o":"m 307 913 l 407 1011 l 504 913 l 407 815 m 138 1011 l 236 913 l 138 815 l 39 913 "},"˙":{"ha":301,"x_min":0,"x_max":0,"o":"m 39 919 l 150 1029 l 261 919 l 150 810 "},"`":{"ha":290,"x_min":0,"x_max":0,"o":"m 232 785 l 28 1039 l 192 1039 l 263 785 "},"´":{"ha":288,"x_min":0,"x_max":0,"o":"m 108 1039 l 272 1039 l 67 785 l 38 785 "},"˝":{"ha":439,"x_min":0,"x_max":0,"o":"m 285 1046 l 414 1046 l 235 785 l 206 785 m 100 1046 l 224 1046 l 63 785 l 33 785 "},"ˆ":{"ha":424,"x_min":0,"x_max":0,"o":"m 188 1046 l 246 1046 l 404 783 l 378 783 l 217 933 l 56 783 l 29 783 "},"ˇ":{"ha":424,"x_min":0,"x_max":0,"o":"m 51 1047 l 213 897 l 374 1047 l 400 1047 l 242 785 l 183 785 l 25 1047 "},"˘":{"ha":397,"x_min":0,"x_max":0,"o":"m 204 792 b 50 1026 96 792 49 881 l 78 1026 b 204 883 82 929 138 883 b 332 1026 272 883 328 929 l 360 1026 b 204 792 361 881 314 792 "},"˚":{"ha":356,"x_min":0,"x_max":0,"o":"m 185 774 b 47 910 108 774 47 835 b 185 1046 47 985 108 1046 b 321 910 260 1046 321 985 b 185 774 321 835 260 774 m 82 910 b 185 806 82 854 128 806 b 286 910 240 806 286 854 b 185 1014 286 965 240 1014 b 82 910 128 1014 82 965 "},"˜":{"ha":499,"x_min":0,"x_max":0,"o":"m 353 800 b 139 946 246 800 222 946 b 103 804 85 946 68 882 l 78 800 b 146 1036 21 926 53 1036 b 360 890 251 1036 276 890 b 396 1032 414 890 431 954 l 421 1038 b 353 800 479 911 446 800 "},"¯":{"ha":549,"x_min":0,"x_max":0,"o":"m 61 938 b 499 938 243 911 318 911 l 499 851 b 61 851 318 879 243 879 l 61 938 "},"¸":{"ha":386,"x_min":0,"x_max":0,"o":"m 190 -342 b 24 -251 122 -342 57 -312 b 49 -231 29 -239 38 -231 b 74 -256 63 -231 68 -242 b 161 -314 92 -292 124 -314 b 249 -210 219 -314 249 -261 b 169 -115 249 -157 219 -115 b 96 -146 144 -115 118 -125 l 75 -129 l 167 0 l 203 0 l 131 -99 b 208 -81 156 -86 182 -81 b 354 -208 303 -81 354 -144 b 190 -342 354 -276 297 -342 "},"˛":{"ha":331,"x_min":0,"x_max":0,"o":"m 176 -337 b 40 -218 89 -337 40 -283 b 292 13 40 -133 119 -28 l 303 0 b 143 -197 190 -42 143 -129 b 222 -290 143 -253 178 -290 b 289 -268 244 -290 267 -283 l 300 -283 b 176 -337 261 -321 218 -337 "}}}
